<mxfile host="app.diagrams.net" agent="Mozilla/5.0 (Windows NT 10.0; Win64; x64) AppleWebKit/537.36 (KHTML, like Gecko) Chrome/135.0.0.0 Safari/537.36" version="26.0.15">
  <diagram name="Page-1" id="s_BzJoV-4q08kUjuNvMo">
    <mxGraphModel dx="1167" dy="619" grid="1" gridSize="10" guides="1" tooltips="1" connect="1" arrows="1" fold="1" page="1" pageScale="1" pageWidth="850" pageHeight="1100" math="0" shadow="0">
      <root>
        <mxCell id="0" />
        <mxCell id="1" parent="0" />
        <mxCell id="saT2jb2MqarJS_3Qa-GO-1" value="Client&lt;div&gt;&lt;br&gt;&lt;/div&gt;" style="shape=umlActor;verticalLabelPosition=bottom;verticalAlign=top;html=1;outlineConnect=0;" vertex="1" parent="1">
          <mxGeometry x="120" y="220" width="30" height="60" as="geometry" />
        </mxCell>
        <mxCell id="saT2jb2MqarJS_3Qa-GO-4" value="" style="shape=image;verticalLabelPosition=bottom;labelBackgroundColor=default;verticalAlign=top;aspect=fixed;imageAspect=0;image=https://cdn-images-1.medium.com/max/1200/1*gjFEvJt_18hI5Sk39fL2nQ.png;" vertex="1" parent="1">
          <mxGeometry x="220" y="225.73000000000002" width="150" height="48.53" as="geometry" />
        </mxCell>
        <mxCell id="saT2jb2MqarJS_3Qa-GO-8" value="Product Service" style="shape=image;verticalLabelPosition=bottom;labelBackgroundColor=default;verticalAlign=top;aspect=fixed;imageAspect=0;image=https://caodang.fpt.edu.vn/wp-content/uploads/a-9.png;" vertex="1" parent="1">
          <mxGeometry x="510" y="50" width="133.68" height="80" as="geometry" />
        </mxCell>
        <mxCell id="saT2jb2MqarJS_3Qa-GO-9" value="Order Service" style="shape=image;verticalLabelPosition=bottom;labelBackgroundColor=default;verticalAlign=top;aspect=fixed;imageAspect=0;image=https://caodang.fpt.edu.vn/wp-content/uploads/a-9.png;" vertex="1" parent="1">
          <mxGeometry x="510" y="210" width="133.68" height="80" as="geometry" />
        </mxCell>
        <mxCell id="saT2jb2MqarJS_3Qa-GO-10" value="CustomerÂ Service" style="shape=image;verticalLabelPosition=bottom;labelBackgroundColor=default;verticalAlign=top;aspect=fixed;imageAspect=0;image=https://caodang.fpt.edu.vn/wp-content/uploads/a-9.png;" vertex="1" parent="1">
          <mxGeometry x="510" y="370" width="133.68" height="80" as="geometry" />
        </mxCell>
        <mxCell id="saT2jb2MqarJS_3Qa-GO-18" value="" style="shape=image;verticalLabelPosition=bottom;labelBackgroundColor=default;verticalAlign=top;aspect=fixed;imageAspect=0;image=data:image/png,iVBORw0KGgoAAAANSUhEUgAAAmIAAAEYCAYAAAD/B5rcAAAACXBIWXMAAAsTAAALEwEAmpwYAAAgAElEQVR4nOy9d5gcZ5W+fVd17p6cJM1IGkmjaEUr2JJlIds4B4J/LGnJJixgwCSzyy673uVjgWVZwIAXDCzGGAzGYCNn4yArWVaOVhxJozSjybF7uru66vvj7bFGXdWTp2dGPvd19SX7faurq7p7qp4+57zP0SzLQhAEQRAEQcg8+kgfgCAIgiAIwpsVEWKCIAiCIAgjhAgxQRAEQRCEEUKEmCAIgiAIwgghQkwQBEEQBGGEECEmCIIgCIIwQogQEwRBEARBGCFEiAmCIAiCIIwQIsQEQRAEQRBGCBFigiAIgiAII4QIMUEQBEEQhBFChJggCIIgCMIIIUJMEARBEARhhBAhJgiCIAiCMEKIEBMEQRAEQRghRIgJgiAIgiCMECLEBEEQBEEQRggRYoIgCIIgCCOECDFBEARBEIQRQoSYIAiCIAjCCCFCTBAEQRAEYYQQISYIgiAIgjBCiBATBEEQBEEYIUSICYIgCIIgjBAixARBEARBEEYIEWKCIAiCIAgjhAgxQRAEQRCEEUKEmCAIgiAIwgghQkwQBEEQBGGEECEmCIIgCIIwQogQEwRBEARBGCFEiAmCIAiCIIwQIsQEQRAEQRBGCBFigiAIgiAII4QIMUEQBEEQhBFChJggCIIgCMIIoY30AQijDi+QA+QCBUApUA4UAlndHtnJbTtTHlGgGTgGnABqgabkWBSwMnYmg8SyxsyhCoIgCGMU90gfgDBiuIHxQAUwO/nvHKAMKEIJr+AQvE4caADqk4+9wK7k4xhKoAmCIAjCmxKJiI0MGiqqlI+KPAUBH+Dp9m8n0ApEgFjy3yaghYFFlQLAXGAFsDD5mA7kDeI8BoMJnAKOADuBDcBmVARtVCARMUEQBGG4GS1CzA9M4HyEpgQlEIpR0ZkQSqD4UZEcA5XmigEdQA0q2tIE1AHnkv/dBlQn/x0pAsBUYBYwP/koR51f18PTw/NN1HmGUefUhDqnKlRE6XVUCvBUcpsudGAasBy4CliJEl6jOQp6DngNeAp4Fjg5kgcjQkwQBEEYbkZCiGnAJOASYBlwGUogjENFh4ZqAYGBiiLVo4TK68BR4BDqBn+G4UuLTUQJoOuBVcAUlIgcLjqAs6i03yuoaNp7gMtRInYs0gK8DPwBeJoRENMixARBEIThJlNCTEcJrxuAW1BpsYIMvbYTEVT05SCwNfl4HRVlMga4zxzU+X0QFX0ayfO72KgEHgQeQkUBM4IIMUEQBGG4GW4hNh54L/B3wGKGNyo0WFqBw8BuVL3SJpQASPTyvGnAx4F3o9KqYxqPx0N2djb5+flmfn6+Pm7cOPLy8ozs7GwjFArpXq/X4/P5NMuyiMfjlmVZ8UQiETcMw4hEIvFTp06FT5065Y/H4+6amhqjubk5YJqmC/VdCwzy8FqB3wM/REU2hxURYoIgCMJwM1xCbAFKnLwHVe81FgmjUn3rUSmyLag0ZxflwBeAjzJyBe8DxufzUVZWxvTp05k1axYVFRXMmjWLcePGUVBQQHFxsRUMBru+H1byoWH/zlioOrY3/jtJ25kzZ4yamhpPa2tr/fbt2xsPHz7Mli1bQidPnsxta2vLQy1S8A7g8DuA3wHfZRgjZCLEBEEQhOFmqIVYOfCPwEcYuuhX191Q0zQNt9uNx6Nq2w3DIJFIkEj0FrQaEmpQ9VdrUDVtX2Dg6UcD0Nxut15YWBjLy8vTsrKyvIWFhXi93jcebrebSCRCW1sbbW1thMNhOjo6aGxspKWlpV/nnZWVxYIFC7jiiiu49NJLmTt3LtOnTycUylgJmUVy5efhw4dbjh8/3rZly5aWTZs2hTdu3Dipra1tKv1/PxuB7wP3Au1DfLwixARBEIRhZ6iEWBZwF/BFBiZOEoBVUlISnTBhgqe8vDw6c+ZMd2FhYaCkpMQsLS018vPzPW63W+sSYpqmYRjGG4/GxkbOnj1LbW0tjY2NNDQ0UFNTw7lz56iurqampiZTgs2JSDAYbJo5c6a+aNGi6MyZM91LlizxjRs3rrCoqChaWFio+Xw+n6b1/HFYlkV7ezsNDQ00NTXR0tLC3r17qaqq4ujRo5w4cYKzZ89SV1eHpmnMmDGDVatWcdVVV7FixQqmTp2Kro+qZgoGUFtVVXVi27ZtR9esWdO5du3a6SdPnrwUZe3RVw4CX0GtthwyRIgJgiAIw81QCLGlwM+AJf14TgJoqKioiCxbtsxYsmSJtmLFipypU6cGi4uL3R6Pp6umaNCqoUuknTlzhkOHDr3xOHLkCMeOHaOxsXGwL5GO+kmTJp1ZuXJl+IYbbrBWrlxZMnXq1HFut9uLSscNeVo4FotRV1fH4cOHcblcLFmyJJMRr6HgXEtLy56HH35438MPP+zfsGHDlaZpzqPv79XPgH9BGcgOGhFigiAIwnAzGDGgAZ8Hvolqd9Mblsvlqpo3b171Lbfc0n7TTTflLlq0aHJWVlYuKo2ZUSsNwzCorq5m3759bNmyha1bt7J//35OnjyJaZq978CZRFZW1oHVq1cf/vjHP87q1atn5+fnT0ZFDIW+YxqGsX/v3r3rfvGLX9Q/9NBDK9va2lbTs99aF4eBTwFrB3sQIsQEQRCE4Wag4icL+Dnw/j5sG83Pz9+xevXqPXfeeWfeqlWrlnm93okMrEh7WGlpaeHAgQOsW7eOF198kR07dlBfX9/7E5PccMMN5+69996dM2fOXIgyqB0zWBa0RaLUNrXT0NxBQ2uEhtYwdc0dNLd30hmNE4nGCSf/BfB53Hg9LrxuF16Pm+yQj/EFWZTkhSjKC1GUG6I4N0RhXhC9l7RrD5yurKx8/Hvf+97Jhx9++K2tra3X0XukNAr8M6p+bMCIEBMEQRCGm4HcHYtQK9au72U7My8v79k77rhj+5133jlvypQpKxljKyjPnj3L1q1bef7553nuuec4duyY48156dKlfP3rX+e2227D7R7NxvUXUtvUzuPrX+dgVR21TR3Ut7RT3xImGjMwEiZGQkUGNU1D05JfFk274EtjWWAl11NYlhIvuq7hcem43S7ysvyUFeUwa3IxMycVMXtyCVNK88nL6vdajrMHDx787Y9//OPqBx544EPhcHhxH57zW+BOlO1FvxEhJgiCIAw3/RVik4BHUW74adF1fecXvvCFR77whS9MLC8vfx+DMDeNRA3CnTHC0RhxwyRhmsTiCSzA43bh0jU8Lhchv4eg30vA52HgwZf0dHR0sHnzZp566imefPJJjhw5Qn5+Pt/4xjf4zGc+g8/n69f+4kaC2qYOqhtaqW3uoK6pg6a2SFIEJYgZJpZlEfC5Cfi8eD3qHEsKshlfkEVBdoC87AC5oYEvTo3GE6zdWcnDf9vNhj1VJEyTnJAPXdNBG1yuWGkYi4RpEjdMDNNC18DvdVOYE+KSKSVcPncSV8wrZ1ppPr0tVOjGvs2bN//q61//es7LL7/8OdQPg57YgPKyO9P/cxAhJgiCIAwv/bnXFqH6//VUlB9bsWLFvT/72c9OLliw4PMom4c+ETcSnK5r5fDJeo5VN3K6tplT51poCUfpiMTo6IwSiydImFY3Qwt1Al6Pm6yAh1DAR1bQR0FWgIKcAPk5AUqLcpheVsi4/CyK80P4PIOPWLW1tbF27VoqKiq45JJL+vScWDzB0dMNvHbgFK8fP8ex6iaq69toC3eSMC2MhIlpWcqoS0ueHIBlnTfx0pKRJpeO3+umICdIaVEOFWUFTJtQwNypJUwrLSQr2P+s77aDp/n5X7ewcU8VlgYB7/BE9iwLjIRJzDAwTYu8LD8LKiZw7dLpXLOkgnEFfS6n+9P999//+D/90z99pLGx8bpett2LMtw92L9jFSEmCIIgDC99FWJeVCTstnQbeDyeo3fdddf/941vfGNpdnb2pwFXbzttaouw9eBpNu6u4vUT56iqbaa1I4qRMNF1Dbeuo2samqah68kUmcN+LAsSloVlWpiWhWlaWJZFwrJwaRpej4vskJ9x+VmUFeUwpTSfuVNKmDGpiMnj8vC6ez3UAWEBB6tqeXrTITbuq+L42UbaIzF0TcPtduF2dZ1fP/drWeqcTZU+TCRM0CDg81CaTAMumz2J5XMnMrW0oM/1WaZl8crO4/zkz5vYU1mD3+vB4x5euwvTst5IhU4ozOatS6Zz++q5zK8Y35ennz1x4sR3PvrRj+avXbv2ayiD2HScAt4JbO/rsYkQEwRBEIabvkqAnwKf6WF+049+9KPvf/7zn/8ycEVPOzItix2HzvLYuv28uu8kZ+pbMC0Lr8uFO5lq1Dgf9BoKLAtM08QwTRIJlS5z6RrZIT8TS3KZPamY+RXjmD9tPDMmFeEfZDQonjB5cdtRHn15L9sPnaUtEsXnceFxuwZTtJ6WrvfLtFRkLR43MS2TvCw/c8pLuHpxBW9dWsHkcX1rABCJxnnouV386qmtNLZGCAW8GVnSaiRMItE4Qb+Hqy6t4EM3XsqSWWW9P88wfv6tb31r/T333PPv9Nxm6gxwM7CnL8cjQkwQBEEYbvpyf/00cF+6yYkTJz714IMP/vLqq6/+PqrvoiOWZfHSjmM89NxOth08TWfMwOd143G7Mutb0Y1EwiSeLEq3LIuQ30v5+DwunVnG8rmTWDh9AhMK++LMcZ6Xtlfyqye3se3QaQACXg+6PjJnmDAtYnEVbSrMDbFi7iTevmouK+dPxtOHKODx6ia+/du1vLS9koDfg8eVGTNY07QIR+N4PS6uWzaDz75zOdMnFvb4HMuy1r744ov/c8cdd3zh5MmTb+1h0xOoxvOv93YcIsQEQRCE4aY3hXAJqq2PY0F0WVnZE2vWrPnt4sWLf0QPdg17K2v46V82s3bXsWQBumdYIkODJWFaxI0E8UQCl6ZTlBukYmIhd9yylLcsmtrjc6vONfODP27g2c2HVZrQ6+5PAfqwYyRMOmMGLl1jQcUE3n3NfG68fCahQM/1ZEbC5KHndvKTv7xKeyRG0NcXK6+hwTQtOjpj5GX5ef91i/jEbcvICva4KKLqwIEDX77hhhveferUqXf3sN0R4AbgeE87EyEmCIIgDDe9KYU1pKkL0zRt67PPPvtf119//U9JY0sRTyT4+eNb+OUTWwlHY4T83lElTnqjtaOTyePzuf/udzK9LH1E5s9r9/H9P2ygrrmdrIBvWFZtDhWWBZ2xOAnTZHZ5CR+9eQm3rJiN19NzhGzvsRq+/vPnOVhVS3bPYmjIMRImHZ0xFk6fwD/+/Wouu2RST5s3Hjhw4HM33njjFSdPnvxsD9ttRKUp01pbiBATBEEQhpueJMMngPsdn6Rpp379619/7sMf/vA3gflO25w818w9//cC63YfJ+T34hpdPQ57RAPCsTiTSvL4+VffwdQJzu4bkWic7/7uFX7/t91vGJuOJTqTRfKXzijlM7cvZ3UvUb/6lg6+8Yu/8bdtR8kKeDMe1YxE43jcOp942+V8+h2X406fKo3s3r37rmuvvXZufX3953vY5cPABwDHVgoixARBEIThJp1ymAD8BnCq7ra++MUvfuVrX/vaB4GVTk/ef7yWT//34+yprCEn6B+VacieiBkJsvxefvzFtzG73NmDtq65gy/86Ame2HiQ7KC3J1EwanG7dLweF2fqWnj61UOcOtfC7CnF5KTxJgv6vdx4+QzihsnWA6oGzp1Bge1xu7CA9btPcOhUHZfPmZQuteoZP378DcuXL39gzZo1ZyORyNI0u5yPcul/2WnynnvuGZLjFgRBEIR0pFNI/4LqIWljypQp//fSSy81Tp069StO87uOVPP5H66hrrmDoM8zpKsfM4FpWkQNg29/6kbescrZI+zkuWbu+tGT7D1Wk/E03XBhWRbtkRjjCrL40ntW8c63zO0xxfroy/v49m9fpjOewO9xZfxzbgtHmV5WyH995mbmV4xLt1nnzp07P3XDDTdcV1dX94E028RRKcoXUickIiYIgiAMN0632gnAaygX/VQOP/jgg9/74Ac/eC8QsE2erOeO7zxKfUt4TIowgNaOKP/wjsv5yvtWOc6frW/lH773GAdO1pEduDhEWHdiRoJYPMFtK+fw9Q9eRWFuemuuV/dV8cV7n6I1HCXgdWf88w53xsnPCfC9z9zElQumpNusbf/+/R+/+uqr76irq0vXlmsbKrob6z4oQkwQBEEYbpxSk59HGV/auOWWW77/3e9+93YcHPPrmjv43A/WUFXTTMjvHZMirKMzxrLZE/nWJ2/A7WBk2tAS5nM/WMO+47UXpQgDcOk6HrfOnsoaNu45wYKKCZTkO7vdTyrJY8H08by04xgdnbGM2Vt04XG7CEdiPL/lCFNLC9ItqPCVlJQs9/l833z22Wfn47ywpBRlZ7Gv+6CkJgVBEIThJlWI5QM/S/6byo777ruvftq0ae9NnbAsuPt/n+HVfafGbKrOSJiE/B7++86bKSvOsc0nEiZ33/cM6/ecIGeMnmNf0TQNn9fNuaZ2nttyhInFOcyY6NzSsaw4l0UzS3l5ZyXtkREQYy6dWMLk5e2VzJhUxLRSx4UVuZdffvnkYDD43RdeeOFmVKeIVPKBB7sPiBATBEEQhpvUu+Y1pDFlvfXWW9dee+21b3Oa+8OLu3l+y5ExK8JArcj72C3LmD/NubXOvY9u4tktRwbVZHusEfR5CEdifPknT/PjP28iYTouLmTprDJ++qW3U5ATJBIzMmrQawFet4u4YXL3T59h3e4T6Ta94u67775p1apV6cyJVwGLhuMYBUEQBCEdqULs9jTb7fnSl77kw0Gkna5t4b7HNuPzuEe1f1ZPdMYM5leM58M3L3acf3FbJb94YitZvZifXox4krYcP3pkI1+771ki0bjjdpfOKOXeu24jJ+QjGk9k+CjB63HRGYtz90+fZt+xc+k2+/Bdd93VCZx12gXqh4ggCIIgZIzuQmwScJ3TRrfccsvOq6++2rHQ+Sd/eZWa+jZ8vRiCjlYsS61YuPP2FY6u8bVN7Xznd2sBcI1Qq6KRRtc1ckJ+Hlu3n6/e9wyRmLMYWzyzlG9+/Ho0TaV6M43f66alo5Ov3vc01Q1tTpvoN954400zZsw4kGYXVw7j4QmCIAiCje5C7Gag2GGbpne96115wIzUif3Ha3nutcOEAmOzOB8g3Blj1cIpXLPEuVf0j/60keNnmwgMshH4xUBulp9nNh/iqz95Om1k7Lpl0/nq36+mM2ZgZnjVoQUEfB6OnG7gX+5/jphDZC4YDM5/xzveEcDZxHUe4LwyQRAEQRCGgVQhZmPixImVN998s6Pl+sMv7KI9Eh+zkSLTsvD73Nxx6zLH+fW7T/D4+gNkBceu0BxqckN+nn3tCF/+8VOEO53F2IduuJQ7bllKWzia4aNT5AR9rN15jIdf3O007bvmmmsmAh0OcyWk6asqCIIgCMNBlxArIE2roptvvvlMSUlJeer40dMNPL/lCEH/2PQLA+VD9ZaFU1k2Z6JtLhZP8NO/vIppmmOuM8BwkxPy8dzWI9x939PEDOd6sC+/bxU3L581YmLM5/XwyEt7HcXi4sWLS0pLS51WXWQDZcN+cIIgCIKQpEuIzQGcol5NN910Uy6Qmzrx/NYjNLZFcI/RaJhlWbh1jXddNc9x/olNB9h++AwBh7oxQUXGnnntMN/+7VrHebdL518/+lZmTCykM2Zk9uAAn8dFVXUTr5+otc2VlJT4ly1b5vTB6sDkYT84QRAEQUjSJcRWOE2OGzcuunz5cpt5a9xIsHZHJV535lvbDBVqpeQEVjo4soc74/zmmR14XGNzAUKmyAn6eOi5nfxizRbH+eK8EP/84Wtwu/S01hfDhaZpROMG6/ccd5xfvnx5uqfavu+CIAiCMFz0KMSWLl0aGT9+vK1mZk9lDYdO1o/ZlZKgVvW94y2XODbr/tvWIxw8UYdfCvR7RNM0gn4PP3xkI09uOui4zcr55XzybZfREXGuJxtOXLrO3kpnK4tZs2ale5qTmbEgCIIgDAs6EEKlJlMxVqxYYeLgQv7KzmN0RONoY7R2Km4kKB+fz/WX2RaCAvCXV/ahj9GUa6Zx6TqarnHP/73AriNO9lzwqbdfxlsWTqE9Esuo2avbpVPb1E67Q53a+PHj031/33xmcYIgCMKIoaMsK5wafMeWLVvmwm76ys4j1Y6RpLFCZ8zgxstnUphjb2i95fXT7Dh8Fr9PomF9xed20R6O8R+/fon2SMw273G7+OcPX01hbjBtcf9w4NI1GlrDNHd02ubKy8spKXFqO8nYbQ8hCIIgjDl01Coxm3dSQUGBMWvWLFvTxXON7ZyobsLrHptpSdOyCPo9XLPEsZMTf163l86YISsl+4EFBP0e9lRW873fv+K4TUVZIR+/dVlGC/c1XSPcGaO+xe5UEQqFyM7OdnqaCDFBEAQhY+ikKU4uLy8PTpo0ybZa8kBVLQ2t4THrHRaLJ6iYWMQ8h56Sx6ubeGXncVkpOUCygz7++NJentjgbFz/gesXsXT2RMKd9qjZcKChkUiYtIftr+d2u/F6HbOQIsQEQRCEjKEDU5wm5s2bF9V1e/px//FzxI3EmK4Pe8uCKY4RvfW7jtPQEh7TadeRRNM03LrOfz28jhM1zbZ5n9fNl95zJV6Pm4SZgfW2GpgWjis2XS4Xbrdj+jnzvZkEQRCENy06MNNpoqyszI9DfdjRMw1jNm1nWRZ+n4dVC6c4zq/ddRyXg/gU+o7X46KmoY17/7TRcX7ZnIn8v6vmZSQqpqFS0fG4sxDz+RyDX63DfVyCIAiC0IUOTHAYN2fOnBmFCxe5mZZFTX3bmF1RGIsnmFFWyNyp42xzlWcb2XusBp93bNa+jSayAl6e2XyI57cecZz/2C1LGZefTdwY/uCTZVqOCwTcbjeBQMDpKY7dwgVBEARhONAB+9JB0KZMmWIrlGpu76S+NYxrjKbu4okEi2eVOfqDvbq3iua2iETEhgCVtta490+baG63r1icVJLLu986n0g0A7ViGo4/HDRNS5debxn2YxIEQRCEJDpgCwsEAgGtuLjYJsQamjtoHMNiRdd1Fs8sdZx7RdKSQ0rA5+ZAVR0PPLPdcf791y2ifHz+sNpZWBa4XS5Cfvvii1gsRlubY/BLhJggCIKQMRyFWF5eHkVFNkN96ls6iMYMxmJmMmGa5IX8zJtmT0vWNLZx8GQd3jHcKWA0EvR5+OOLe6hyKNwvyg3ygesvJTasdhYWLl0j6LevjozFYkQiEacniRATBEEQMoZjajIUCpGVZbMWoy0SI5GwIKP+6END3DCZUppPaZHNGo1DJ+tpaBm7KdfRisetU9fckTYq9rYr51BWkkt8mKJiKiKmpxVinZ32tClQNywHIwiCIAgO6IA/ddDr9eJ2u23+Ah2RGKZpMhYXTRoJk/lTxztaU+w6Uq0sOUbguC52Qn4Paza8zoGqWttcYW6Qt62cQ2SYomIWFm6XTsChJtAwDOJxW//LKFA9LAcjCIIgCA7ogC0f5/f7cblcNl3SEYmRsDLg/zQM6BrMr7CbuALsOTq2WzaNZly6TmtHlIee2+k4f/vqeRTnhTASQ7+C0rQg6PcSCtgjYtFo1Cki1gHYFaMgCIIgDBOO6iM7O9vR7LI9Eh2TUSPTsvB7PUwrzbfN1TV3cPRMA54x2rJpLBD0e/jb1qNUnm20zZWPz+OqRVPpjNmiU4PGTJgU5QbJDtr9ws6ePUtTU1PqcC1gL2gTBEEQhGHCUYhlZWU5Lu1vC8fGZFoykTApzAk61oedrmuhuT0yZls2jQVcuk5TW4S/rN3nOH/zFbNxu3SsIY62Jkz1uTvZldTW1pJI2GrTzqKiYoIgCIKQERyFmMvlHB1SbWnGnmAxEiZlJTnk59gt046eaiASNcZsy6axgt/r5pnNh2hsDdvmls0qY8akYqLxoS3aNy0oygs5zp0+fdpp+NyQHoAgCIIg9IIO2O5+DkXMAGO2jspImEyZUOAoIY+dbRzySMybFSvZ1zFuJIgbCWJx9ejqTVp1rpm1O4/Znuf3ebhq0dRh8RQrK7ZHQQGOHz/uNHx4yA9AEARBEHrAjUOTY4eUDQAuXRuTokXTYOp4e30YwJEzDf22rbAsi4RpYVkWpgVYFpqmoesauqah6doYjBv2ny7BZVrgcul4XTrZQR8Bvwdd03DpOrquYRgJovEEuqbx7GuHuX31PNu+VsybzP89tQ0r+V4OFZNKch3H00TEDgzZCwuCIAhCH3AUYobhbCcwFn22LFQ7m4kl9shIJBqntrEddw+O+pYFhmkSNwwSCWUQ6vO6yQn58Xvd+L1u3C6daNwgEjXoiERpj8QwEiYetwuvxz0mDXDTYZoWkaSp7/jCbGZPLmbhjAlMGZ/PhMJsinJDhPwe9KQI0zUNI2Em35840biBkTBt0dX508YzqSSXk+dahsRY1zQtgn4P5Q4C3DRNTp48mTocQ4SYIAiCkGHcgC0PmTYiNhaFmGXh97gpzLXXCrWFozS0hm2F+pal+lLG4ga6plOcF2J2eTFzykuYVprP1AkFFOWHCPo8BLxudF0nbiTo6IzRFo5ReaaBrQdPs/3QGQ6frCduJAj6vWNyoUMXFhDpjOH3erh68TRuf8tcls2ZSH62Y+NsB+wrF7sTCnipKCuk8kzjkAixhGlSlBtiQmG2ba6pqYmqqqrU4RrANigIgiAIw4kb1dJlYvfBRCLhmCJyj8HQjmla5IZ8lDgUbdc2dRDujKMlzythWnRG46DB5HH5rJw/mZXzy5k3bbzjDb07Xo+LUMBLST5UlBVw/WUziBsJth48zUPP7eLl7ZW4XDo+j4uxltw1EiaRWJzVC6fxuXetYOH0CcPyOmXFOZhDlPo2EiZlxTkU5doXaBw7doyamprU4cNIeyNBEAQhw7hx8E3q7OzEMAw8ngubJec4+DGNdkzLIhjwUpBjj9ycrW8hZhi4dAe/830AACAASURBVJ2OaIzsoI/rL5vBrSvnsPySSeRm2ZoO9AuP28UV88q5Yl45T796iO8+tJZzzR2E/B7GQqmdBnTGE/g8Lu756LW8960LhjUqahhD96YkTJPycXmO9WaVlZVO6fcjQ/bigiAIgtBH3EBD6mBbW5ujECvMDSX9nhgzaTbLsgj5vHg9di+puuYwDS1hKsoKec9bF/D/Vs9jdnnxsBzHzStmMXNyEV/+8dMcqqolFPSOejEWNRKE/B6+95mbWH3ptGF/vXA0NmT7siyYOdn5s9y7d6/j8JC9uCAIgiD0ETdwJnWwubmZxsZGysrKLhjPzwngcbmwsBgr6wJN0yI76HO03tA0jTtuXcpn3rkirc3BUDK9rJCffultfPK/HuN4dSMBn6f3J40QCdPEret877M3s3rR1F63j8YMaps7aGmP0NgaSRbmJ0iYJiG/h+ygn5Dfg9/noSQ/izyHaKNniKJtlmXh87iYPrHQcf7gwYNOw7uH5MUFQRAEoR+4gaOpg01NTdTW1tqEWF6WH6/HRTxhjhlfV9OyyA45p1RvXz2X9127sF/RPQuoa2rnbEMbzW0RWsNROqMG2UEv+dkBypOrB9MxsSSX7/zDjXzsO48SiydGrTdbpNPgS++9skcRFu6Ms37PCTbsOc7+Y7Wca2qnLRxVfSMt3qj36lo9qesa8USC91yzgHs+dq1tf0MVIEyYFoW5IWZOKrKfVyTC/v37U4erANugIAiCIAw3bhxqY2KxmFMfPopyQxTkBDnb0IpLHxu9GS0LshyaPgOOrW+cONfYzp7Kal57/TSvHz9HdUMbja1h4gkT07IwTWVroesahTlBZkwq4tYrZnPzitn4HFYALpg+nk/ctoz/fni9Yx/EkSYSjbN4VikfvWWJ47xpWazZcIBfPbGVg6fq6Ex2JvC4dFwuHU1TkUiP24Xf606mYC0sIBpJpG3wHRmifpOxeIJppQUUOyzQOHLkCCdOnEgd3oMU6guCIAgjgBuoBIzkf7/B0aNHueaaay7YOD8rQFFekFO1zTBGmmSbppVWiPVEeyTKxr1VPL/lKFsOnKKuqQPTMnG7XLh0DZdLx6Ppb0R/LEu9Vl1zmHONJ1i36zhrNhzgPz91g2OE7O+vX8RTmw5SebYRn0P92khiAR+88VLH44oZCe751Qv86eW9GAmLkN/DkpllLJw+gWml+eSE/MQNk5O1zbyw9ShHT9cn6/NUMtula+RnOVtedEYN9CEoPkyYJvOmjXOc27VrF9FoNHV486BfVBAEQRAGgBuoRtWJlXefOHLEYRGZBmXFuWw7aCsrG7VoGuSG+r76sbq+jcfW7+fJjUokddUbBf3n67k0IBIz8HncTC8roCg3iAW0dnRyrrGd+pYOLBPW7jzGnT/4K/d/9XYKU2wUsgI+3n3NAv79gZcYTaVinTGDWZOLuHpxheP8fz74Mn94YQ8+r4slsybwxXevZOmcibgcTHE/ctMSPvW9x9h5+OwF0cfxaVK3LR2d6IO0SLEs1Ypr/rTxjvOvvfaa0/C2Qb2oIIwQqeUjbx4ssKBw1SfxZI/DMp1NyDNEGTABCKEME0NAVvIRAMKoiHtr8r87gXpUScTQrVAafiYDxUARMAnIB/xAEPAAEdT5RVDndyb5by3Sx7dHuuwrTpMixNL04mPqhLwh83rKBBo4rphMpbqhjd89v5PH1r3OucY2fF43Ib+zQorEDJZfMokvvW8VsyYXv1FkbpoWNY1tHKyqY83GA7y0vZItr5/mf/64gW998nrbfq5dNp37n9hKc1tk1NSKxY0El8+ZRNBBHb6y6zh/eHEPAb+bSSV53HvXbZTkZ6XdV1bAS3FeKNks/rxIckoZdnTGqWvqGLQ9hmmZ5GX5mTOlxDZnWRbbttk0Vy2yYlIQhL6RBSwE5iYfM1CiZCJKgPX2s9pECZU6VDbqMLAL2IdaMNQxLEc9MCYCi4DlyX+nAeNRAqwvJFDnWQMcAl4DtqKut5ksBdEBF0oOxBm6cuQhw406qEpgZfeJw4cPk0gkcLkuTEGWFeeqnpOMlXp9zeac351ozOAPL+7ml09uo7q+laDfS04PETQjYVKUG+TfP34tk0ryLpjTdY3SohxKi3K4ZkkFz285wj//4nkeW7efd101j0tnll6w/fiCbBbPLOWZzYdwu/qfPh1qLMvC43KxfO5kx/k/vrhH1cNpGjlBH3lpUoxdbD90hg17qggko2GWZRHweigpsIu3prYwLeHooFOTsXiCS6aUUFZkXwVbVVXFgQO2LkYHUFFhQRAEJ0LAFcDbgWuBWYPYl57cXwiYAry129xB4K/Ao4xclH4CcAvwNuBywP6Ltu+4UMJtPErIvSc5Xgm8DDye/Dc8iNdwIh94BMjmvAhzJV/nJkZhPXBX+GFf6kRtbS319fW2J0ydUIDf6xk7zb81K22U5cipej7x3b/wzQdeprmtk5yQv0+RKdOiT42pr79sBn939TwaW8P8df3rjtssmVU2avzETMsiK+hl8rg821xNQxt7jlbj97rxed3sO36OXz2Z/lpxvLqJf/vVC4QjsTfSjZZlEfB7GO8QRattbCfSGRt0ajKeMFk8a6Ljfnbv3k1bW1vq8EuDekFBEC5WAsDnUKLoeeCzDE6E9cZs4GuomtV1KNGQKRYAPwB2AL8AbmNwIqwnKoCPA08CW4C7hvi1vMDVKCG5DFiMimIuJqUWfrTQpTr2pE7U1dVx9KjN2YKJxTkU5gZJpFn5NtqwLNVT0onv/O4VXtl9nJyQD4+7bykxt0unrrmDJzb2rT+0162Ey2sHTjkex8LpEwj6PKMi3WuaFjkhH8X59tTh4dP1NLV3vhFd9Hpc3PvoRr5+/3McPnXeE7ijM8aajQf46H8+SuWZBgK+89/7hGmRnx0gz6E/ZX1rmHA0Pih/OssCn9vF5XMmOs5v2LDBafiVAb+gIAgXK5ehfqTdixJImcQFrAKeBh5EpQSHi8nAT1Di7y5U9CqTzEUJwG3A5+k9tdsXLJyjbJ2MwrQknFeHB1GFhG/kc0zT5OjRo6xceUHGkvzsIBMKs6mub8UzBlZOWpbyu3Kiy16hv/i9bu7/61YumTKuR5+t/cfP8aeX95Ad9FFd30ZVTbNtNV9pUQ4FuQHqm8PorpFN9qq+nH5Ho9naxnZicQOfR9lt6JqG3+vh0Zf38bctR5kxqRC/10N1Qysnqptw6zoBn+eCb72RMBlXkOX4ntc0tGGa1qA6NhiJBOMLs5lfYb+WJBIJ1q1blzp8DIcfIYIgvKm5BXgYldrqjXZUHdQxlCfnOc4XrXeJgWzOpyPHA/NRaUlnx+kL+SBwHXAn8Oe+nkAf+TTwDVQ6si9EgFOouraTwFnU+UdQtVddhfvZqLq5cmBmcv+93WgnAT9CpS//EVjfj/MY83S9OTWovO2l3Sdff92eTtM01dR66+unh//ohgINomn8qbL8A2sz5NI14kaCL977JF957yree+3CC1JhlgVrdxzjPx54kaa2TgI+N+2RGEdO1duEWFFukPJx+VTXt414wb4FeN0uXA5qKBy1v4eapgryY4bBzsNnsVDvjd/rdkzdmqZFaaFzB4Pj1Xbfuv4SMxLMnzaefIeI24EDB9i3z5aBfxUY/AsLgnCxcB29i7Ba4G/Ac8AmlDjpz+pHHShARYOuA94JXNLD9uOBPwCfAv6vH6/T0/5+yPmarZ6oAV4EnkGlLY+iRFdfCaHOcymq7uwKen5vr0Clgf8RJczeFHQJsShqVcMFQszhxgWoVj2jNMJnQ0c1rnYimGZVZF/wuF0YCZNv/uYlnnz1IFcumEJJfhYt7RE27Kliy+un0JKixEr6jB2oquWdzLXta1ppARv3Vg34WIYOC03XHBuJ9pQydOk6AV/vItLCony8vf4MoLqhddCF+pYFl13inJbcuHEj4bAtWv23Qb2gIAgjy9Aai08Ffk96odAI/Az4KSoaNFBMlK3DK8nHf6CK9r8OXJnmOe7ka9egUpYDZRFK1PVW6/YqqlbsSVTEb6B0oOrAtgD3oSJkHwA+hrL9cMKPEooLUFG7sWTxMSC6hwv3Au/tPnnw4EEikQiBwIURhoqyQnxJgTHam39rmkY05uwxo1JwAxeU7qST/K4j1Ww9cBqXrpEwLdwu3RYVcukax842Ou5n1mR7K56RQNM0wp1xDCOBKyV9GBqAKW4quq47mtt2xgxqGtpx97FOz4munqJLZjsLsZdestXkt6IuNoIgjDk0LDNGtPoA3llXDZWP2L+hPLKcOAC8C3BedTU4YqiI00uoFOS/oyJJqXiA/0UFTJxvJj2zCvgjPaci96GE4V9Q9hNDzWHgX1Fi9rOourR0wvdjqHKpD6Lquy5aUoXYBVRXV3P06FHmz59/wXhFaQE5IR/tkRgubXT4X6VD09SN3omgzzPoFYsaqmast1ozt0vnRE0zze0Rm+3D1NKCpLC1+rQac7jQNY2OSIyYkcCXcj65IT8et2vA4tuyLPweF0UOHmLN7Z3Ut4QdTWH7SsxIsGhqCdPLCmxz9fX1bN5sM8/fj0N7r6GgrKzsBtSvveLkkJbycBrradxpXkddwBuSj2pU6sC+1FkQLkI0zUW4aivBKUvRXT4sa1ALyK4A3p9mrhKVVrOvXhtaosD3UaLvEZzF2GTgK6joWX+4AmUXYb9AKmLAfyZfv72f+x4I51CC7C+oYv2r0mz3LtT17gNcxGKs+932dZS/Rm7XQCQSobKy0ibEivJClBXnse9YDS7vaBdiGp1pasQGk5rsLy5dp6ktTE1ju02IjcvPIuTzEInFHeuzMoWuabRHYjS2hm09MKeVFZAd9NEZMwZ0jKaljHVzs+weba0dnUTjxqBEaNxIsGrBFEcxt2vXLk6ePJk6/CLDl1//APAW1EUzk1SjVh/9BnWBGxv1A4IwEHQXic5W4s1n8JfMxDIGlcH6OM4r9iyUhcVwi7DuPA18CJUmdWpGfCfwO9SPyb4wA1X3lk6EHUfVn41EqcYu4EaUGPt0mm3+H+rH5qcydVCZpvtd6wRK+V+AgxM5bpfO7ElFaZs3jyY0TSMSNRx9z/xed8buVLqu0n5n61ptc3lZgaQlyMjeN3Vdo6Wjk6qaZtvcuIIs5ZI/0M/csvC6dfIchFh7JEosbgw4zW1aFqGAN+0K1ieffDJ1yEDVPgwXETLzqzKVCSj/n0eBtcDqETgGQcgcpknH0Y3J1OSAf8gFSF+b9WdU2jDT/IX0hfnZwCf7uJ8cVDoy3Y/C3agFAyNZLxsFPoOKkKXjk8BXM3M4mae7EEug2g9cwO7dux2fOLN8dNQ19YamKff8rjY73fG43RntDpAwLU7X2U19c0I+xhVkjbiw1TSNeCJBpUMtW9DnYfK4POKJgZUNmJaF3+fB77X/6GwPx4jGEwP2EIvFE8yeXMzMycW2ufb2dp577rnU4T2oNN7FzFtQN5CPjfSBCMJwobk8xFvOkIi0wMBLGxagCvWd+OVAdzoEfAu1QtOJ1Sjj0t74L1IW4XVjK3ADDgGYEeKb9CzGvoW6rl10pBY2bU/d4MCBA7S1tZGdfWE93dwp4wiMgrqm3tFImKZjREzXtYwvNjh1zh5tAtXuaDR0K9CAQyedF8lMn1jI81sHVlZlWpAT8uPz2Fc5NbVFME1zwJ9F3Ehw5YIpjvYf27Zt4+DBg6nDz9G/JdhDgYW6KJ5F/d2l1n7pDmPd68G6j+moEoJClEv1TJzTDgHgV6j0xv8O6dkIwmhA00jEIoRP7iDnkhswzQH9UEznuH6GkWs11PX6DwFfcpibizKa7ckH8XbSp/OOouqvRlsz7m+iFkx83mHOgzLYfQtqsdVFQ+qXbycqbfPGeFVVFUePHuXSSy8U1ZNKcinMDVLfEsY9wkakPZNeKJqmmdH2QrqmcbbB1mIHgAmFOaOioMel65w814xpWTY7iaWzyvANsGDfsiyyAl7HBuxNbREGmlYwLYuQ38tVlzqbTz/11FO2pwC2wQxgoZafnxiGfU8BrkfVjsx3mP8fVC2GrBIVLjp0l5f2o+vxFpTjK5mJleh3rVg6N/nDqNqkkeR54IvYL5BulOVFOiGWA3w3zVw78D6UKeto5MuoVOo7HOYWolKU38joEQ0zqSGESlL8UQzDYO9e24JKivJClI/PJ26M/joxFflyMBjNsPLRdY2G1jBxw/6rrTgvxGhoOulxuzhR3cSZWnsKdeH0CZQW5WAMMD2pIn5De47RmMHMyUXMKrenJSORSLq0pC0FnyGcVkENBSeA+4HlKP+dVPzJ+eAwvf6bjSDKh6nrMYNR2sPuTYGmqVqxYxsHunLSfvFQpEsLZpLXUJExJ+b08LxPA9PTzP07Ixvp6w0Ddfwn0szfiXLtv2hIFWJNONhY7NjhXE4za3LRgG/KGcMCXUsXb8ms8NF1jaa2iKOdRmFeAN2lj3hUzO3SaWgNs+Ow3a8wN8vP4lllxNIY5PaEhrKYcKrVc4qS9RUjYXLt0ul4HNKSW7dudTIlfo6L1yAwjPr1/G2HuXmo1UfC4FmCEvNdj430vU2MMAxobi/RumPE6o6iufvteTguzfhoEGLNpBckzu7Y6nyc0pkAG3D+sTbaqEGlJ52UdR4qanbR4FTduCV1YNeuXY5Pnl8xYVDeT5lC13THXFqmA1C6phHpjDv2vizIDuJzu0dFnZhlwfrdJxznVsybPDCxqEHCMDEdF00M7DuUME3yswJcs6TCcf6pp55yej9HIi2Zaf4VdcFN5bNI5GYo8KJWrnU98lGNmoURxaL92Cbof1Qs3QXI3ittZEhn3ppuxdz7gBKHcRN1bRgS99sM8ETy4cSHgNIMHsuw4vQFtKVtDh8+THV1tW3DS6aUkBPyOUY5RgsWydSk05xlZTQCpTzNDFo67L50Ib8Xj1sfDdlJfB4Xu45W09gasc1dfskkSvL7v8JTQ8MwnYWYb4ARsc6oweLZZcmWWxcSDod54gnb3/BW3hx1UgbO9SFLUAW+wtBiIJ5tI47m8hKrq6Sz9kh/o2L2m5vCuU1H5knXYigf+8pJP+lXSj8FvDxUB5Uh/gNlb5FKLimdgMYyTkJsLykffHV1tWMD8EnFuZSPz8NwqHkaTWiac27SsgbhPDOg41CptIhDA22vx4VL1xgN13OP28XZ+lb2HbcvqJlQmM2qBeVpuxWkQ9Mg3Bl3tL/IDfnQNa3/Z67BTctnOk69+OKLHDhwIHX4UcbOr8HB8gLKobs7bmDZCBzLxcZoXp305saCcOUmME368THVpBmfQPpoWSb5Nqow/6puj6tR3lqpF9SVOC/YAdXrcayxg/Q+bh/gIonwO33JTuNQJ7Zhgz3T4XbrzCkvGbC3VKbQNeeImJnh8JMGGIbpKGJ8Hjcu1+iIiIESjC9tdzaTvuWK2f2O3umaRkdnzDEtm5sVwO/rX1o2biSYWJzLqoXO9j9//OMfU4fagL/2/YjHPJ04F+RenukDuQgRITZK0dweovXHiNYeQXf3uXNKulqwOagm2SNNJaoP5SvdHmtREf7Um++tafaxh7EXDevi12nGF5BedI4p0ql9W/rGyWEf1Eq60YxpWQT9HsdVk+FoZmu2uwxTnVouedw6HvfoKTPxedy8svMY9S0dtrmlsycya3Ix0Xjfg0uaphGNJ2hoCdvmcrP8+D39E2KdMYMrF0yhINtexnH69GmeffbZ1OGXgUN9foGLA5svIKMn3SIIw0bHsU3Kbb9vPjv7cS4K96KiLmMFP8ol34m/4pziGwv8DWfTWRcqUjjmSSfENqYO7Nu3j8ZGe83g3KnjyAr4HGt/RgOWqfyrnGjtiI7IT1vT4U9e05S57Ggo1gclDM/Ut/HyjmO2Ob/XzQ2XzSDWj5R0V/P1hla7EMsJ+ZIRsb7ty7IsfF532rTkk08+SUODzf7HFiJ7E2Bf+pp+pZXQdyQiNorRXB46aw/TdmQ9uqdP9fbbSd9L8qOMnXT+bJSdSiomI9vCaLBESB/NSyc8xxTphNhuUsK1J06ccHIoZ/K4XMqKc0ZtelJFxNILsUxb62uahq47reC0kkapo+ca79I1nnnVOYh084rZlOSH+uwjp2ka8Xgiad56IVl+L3lZgT73seyMGSysmMCyOZMc5x999NHUoSqUMeKbDac2Duka/wp9ZzTUDQk9oLt9dBzbRLSuEs3t1Df7AsKkFyp5KHf70Z36UczDuWaqCmXoPJaxGUImmQdkZfJAhoN0F5SzONSJbd682bZh0O9l1uTiUWvsagEhv3OtQFs4sxGxroBPqmM9qIUDoy2q6PO42Xmkmn3H7EX7k0pyueGymY4LD9JhYdHokJr0ed0U5YZIOIUKHUgkTN6+ak5yccOF7Nixg/Xr16cOrwHq+3ygFw9OX6iL1UNNEM6j6ZjRMG2HXlJO+1qv2vkR0q+Umomq0bp2KA9xGLgszfgBVI3sWGY7zqnVYi6CleA9rTh4lZT8q5MQA2VpsGaDbYXaqEAD8nOcDcXbI9HMRqAsC5eu4XbwzUqYJolRkpbsQtc12sJRnth4gHnT7J6Hf3fVfP66/gAJ03QURXbSt3gqyAn0yQYlbiSYPD6f65bNcJz//e9/Tyx2gdYweXOmJUEtb09lMIK0KLnPLNQFsACVNqhHRd8iqBVodrU9PARQ/TYLUC1dslC+XqBuPG2onnR1qJ56Q/UH5iRm7Z40gyMbZcwZQL3nhaiamGagBZWxqGFk635KUMcWQh2vF/UenwP20f/32436LP2o885CvdcdqO9WGHXufUL3+IjWHqZl12PkLXkvltHjR7QOeAzVn9GJ2cCzwC9Q/VtHozP93DTjTrWiY41zqDqxS1LGPajPZjR+Hn2mJyG2KXVg586dtLa2kpOTc8H4/GnjyQ74MPp8Q84MFir6NKEw2zYXNxK0dsQc04TDdjyWcpHPDthD5ZFoHMNIZLwJeW8EvB6e2XyIj9y8xPY+XjK1hFULynnmtUNkOZxTKroGtU3OQmxcQd+iy50xgxsvm0G+Q5F+bW0tjzzySOrwBt4c3mFOOBkeNvVzH4uA1ahowEKUOEhn0hQGjqHSIC+h3nd7PcPA8aC80FYDq1D96EpRIqUnqlHu5AdR0dH19K2HoIaqucniwmLueQ7bLUQJo64G7Xry4UVlGI734fUuQVkTrE7ubwqqYbsTLaj3eh9KQLyCs/Hn1OSj+/PS3ZincD517UOdT+pxL0E1i16V3N7J4mEfqpF2X8LlM5P7vAq4FPV5hlDCumu/Yc6L6uOo79ZaVNamR9Gvu/10Vu8ncmYPwYkLMeP20ohufBkVVUq3oMUF/APwCWAz8CIqpbmXfgjEYSKAs4krqMUIY52ua0uqEIOLoN1RT0JsO+oP8Y2GqJWVlezbt48rrrjigg2nlRZQPiGPg1V1uLyjyNbDsnC5dAodImLtkRhNbeGMdgawLAufx0VW0H5tDXfGiRsJnI02Rg63W+dsfRtrNrzOp95udz5433ULeXF7pWOT8FRcLp2GljCmadkEcGlhTq/1eqZpkRvycduVzi3WHn/8cU6dOpU6/BucV0S9GXCyqjjcx+euBu4GbqTvNVFBlEiZh1ptFgH+DPwA5Qc0UPyooumPo27w/WVC8rEiuZ8q4AHgXtK7loO6Pj6EEgo94eN8x4YuAdadX6Ju3ulYBnwB1YLK38trdZGLEi6XAh9ECZQfonqKdg/9fAz4l27/v5P07+GPgLd1+/9foLyqQNVK/QB4P+mFeBd9KRi+DNXC5u30XuMTTD7Gofp6Xp8cfx34GeqzdP6Fp2lYlkbLjkfRNAiU9SjGTqBc6dfgHE3uwoXy61qJcqqvRKX/XkV9zw/RN+E9lOSR3mnfqVZ0LJLux1NZRo9iGOjpAltLSrjPsixHPzGvx8XC6RMcm1mPJKYFAZ+Hghx79KSlo5O2cDSjETHTUnVXuQ5CrD0SxUiYoy4iBuDzunh8/QFaw/YsyPK5k7lyQTkRB3+wVLp6bTrZXuTnBOjNzjYSjbNiXjmzJtt79BqGwQMPPJA6fBx1UX0zkoWzEHNqfdSdyahU7kvAzQyuMD2AEmSbUF5A6W4UPVGCivjcR88izESlsE4DJ1Hp0nRpu3Lg31DvxepeXr+v5+9OPpy2T/dDIBslnDYCf0/fRZgTU1FC6gkufJ9TL8o95edSi2m7npuNsj/4CL2LMOj5PSsFfo967/8eZxFmoiIgNagIbrobyyUoMf1qcl+OaJoOWDRt/xPh07vRvT2upNyAEqN9/cECUIHy7/oWynx0G0qQ3Y/68bAcFeEbTnJwjgxbQPswv3amSPejyXnV1hiit/DVy6QYxK1bt467777btuGy2RN5+G+7sBg9a7tNS1lXFOWGbHP1zR1E45lNBZqWSUFukKDD4oG65PGMJi+xLnweN5Wn63nutcP83dV2/7wP3riYDXuqsCyrx5o7XdNoj8QIR+MEfBe+B1kBL163K9nuwHkxg65r3L46NSukWLduHa++astAPsKbs0gfVPpoWspYA/BaD89ZAjyMijqkEkWlHNejBG4D6sLoR6WzClBppstQN8juosKHuokvREUc+urnFgQeR0WyUtmBSg1tRd2w61Gpqwjq5uNBCcEKlIC7EeVG3l0kzEnu/92kXzWXKgLSXeK6ttO6/dv1306/LypQ0dqVaV63DnVD3wacQb3fLSjhUojKVCxC3eS7RwSuRUXnbk3uoz9COvVcuwTkD4G3OGwfRQmlOlQtV1fdYDqxtxwlyJ2Kq3ej0o2voCJd7cn9uFHfg7LkMVyDSmN2v1DORUUuZ6EiVHZ0F5qZoHnHn9CAQM9pyg3AlcA/Ah+m99R3Kl1/D5eiIqEJVI3TftT3dT/qb+k46vs6FASxC2lQ7+FYL9TvIp0Q6yl6OSboTYi9gvpjfOOPedu2bdTW1lJScmE6en7FePKzg4Q7Y7hco2N1t2UqURI5PwAAIABJREFUM9fcLPsPzbrmMLG4gd/bZ/flQZNIWEwoyMLnkL49XdvKaGhvlA6XS+ePL+7mtpVz8Kcc/8r55Vy5sJyXtx8jlMazDZS+isUTtHZ02tLFuVl+fF43iTRRwUgszqUzSlm1cIrjvn/9a5v5cgR1cX4zUgz8k8P4n0h/MbsO+F3yud1pQaXWfgkcofe0kwcVnfkIKg04vtvcpSjx9Hf0rW7vX7GLsCOoc1tD32qQqlDRvf8GrkD1ruu+CCkPeBAl1lJ7DhrAp1DRhq4/zgRKsP6w23ZRlPCt5nxUrHuN2OmU/U5DtaCa4nC821BRnqfoOW3aRXbyfL7IebF0Geq7fxODa+kVRr3/qb0Ln0UJ2LWoc+5E3Sf8KKEYwv49eVvymFILdjehUp5r6HlF73GUQPpP1Od4Nyqt2Z1voG7KX8ApCqm7wEzQtONPgEVg0iLMWFodVIeqGfsx6rv8LtQPjIH8dHehIoGlnPe96kT9gNiNShevTf73QNOIzivS1HXwYhFi6VKTvRcoj3J6U0yvowov3+DcuXPs2GEv95hYnEPFxAKioyg9qSJiPjwOqxRbOjozngo0LYuppc42Tqdqm0ddfVh3Aj4PeyvP8exm54j9B29YjMft6tGQVkO567e0238w54b8+NK461soUf3+6xbidhD5R48e5amnnkodfpqU7+6bhBAq0pLqdhtGiREnKlDpolQR9gwqvfkVVKF7X/6446i0zteBpcBvU+bLkq/ltJAgdbvPpoztRUVE/kzfRFgqm1Dp1tRjGo9KVaZioSJvaznfWmYD9qiihYp0bE/OvYpKN65HCc/uEcAQSvhNSdlHDPgSKkL2W/omwkDdZB9HpVg/xflo1PXA93GOkvQVHSXwujiJarR8E/Bz1Hm1Jo/dQEWxalA1U92F0HxUHVeqCPsWKkr5KP2zVdkEvAMl9FOL9e8kXVQM0HQVSGva8SjhU7v64jF2ArgH9SPiKlTfxz2oNPhg8KO+A29P7n8t6vv9J9Q5TO/n/uxpH0UE9RldDKTLblz0QiyCw+pJpzoxTdNYPLOsz6acmcC0LPKy/I4F+U1tmVphfx4NmDHRXiaTMC2qalsyWq82EHRd47fP7XD0Dls5v5xrlkyjo4daMU1Tq1VbOuylO1kBH163yzEmGI0ZzJlSwrVLna9NDz74IE1NtsWAv+rhVC5WlqIiLTc5zH0f5zYhPlS0K/WL+XPgnQyuLdQZ4ENcWCwO6gb0c3qOyN/MhfVDUZTQSI0u9ZcYqgB9d8r4u7kwetcTTrVcfa3v+jb2dGQN6nx/wOB83u5H3di7Igd3oWqU+krqn98qzkdwjqG+V/21gilCRVq7p48SnP9eDOZ8H0ClYFN7Rf4TzqlU4LwYa97+CNHaI2iuPmnVOMri4usoUXY5qi7tftR3aSjqsCaiIm8/RqUun0K9T/aiWDvpTiLO2G1tlEq697hrpfKYpS85xLWpA+vWrXPccNnsicmoxiCPaqiwLFsarYv2cCyz0TDTIjvk45Ip9hXGdU3tnDrXPCrrw7oT8HnYd/wcz6SJin38tssI+T09+IFpmJaF4dCFQeteUZNC3Ejwrqvn2+rKQEVoHYr0X2N0OukPtdcUqOL6m1A3u7WoOpxUHkOl5Jz4DOqXfnceRS3TH6oL+LeA/00ZuxW1Ai8dqW1lNjN0NiSdwHdTxvJRwmM4mcP5VYhdxFA32xeH6DWeB+7gfPSyr+LSiWWo1G0EeA8qQ9JfvoK9MfN/YI9KDpSXUatGu39XvcBPSR8lAg10XxauYD6W1e/ggYmq8/o96sfBYtR7dRsqsvo4Kho/mPqvEEqc/waVrv4yaqVsOtK9lp+e3oexRbrIl8ForuvpA33xmtiMCpO/kVPbs2cPlZWVVFRUXLDhohkTKC3O4Wx9qyq8HnE04mkidCqNlrkjiRkJZpcXM2WCva7wVG0LzW0Rx7TbaMOl6zz0/E5uWj7TJowWVIzntpVzePiF3WQ7rAw9T98VcDRuUFFWyG1XOJsn/+53v3OyrLiPvqXRMomGioY0MLhfbxoqxZOPWlE4mZ5XI3bdmJ1qhULY03+VwOcGcXzpuBtVb7So29jnUTczp2NLFRCpEazB8jLqs+heiL0ElRoaLj6L/WZyD0PfB/CvwP8AX+3n89JdEX/EwAwzS7HbdmxCCfOh5HnUud7bbWweKqLrWCdqGTGCFVfiyS7pzVusL5io1P1B4MnkWAAV4ZqB+t4vRC0qmEr///4no8oKPsb5+shU0qV4AqgaR3t7lLFHuuWuQ7XgYcToixDr6lN1TddAS0sLmzZtsgmx7KCPxTNLOVHdODqEmAZGGiHm9WT2+OJGgqWzJzqKrddeP0VnzOhFvIwO/F43+ypreGzdft5/3SLb/MduXcrfth6hPRIbkghfNJbgnasvcVxw0dLy/7d35vFRFHb/f+9udnMnEELCfcoRBAW5FBAVLFoP1FqvR7Fq0dqnttUq2latVlsfax9r609bD56qVAVtVRRPRBTBA7lE7vuO4UhIQs49Zn5/fBNIdmaTTbJX8Pv2tS/cmdnd2SMzn/ken28ZzzzzTPDitUhEJ9FwIEXqseRRJJUSKv1zGVIf1pAHkVRZpKkAHkGEVz0jkW7Gt222D273j/TBtghpRGgoxPqG2DYS5CEdow3ZhqQjo8GfkEhRWyJiIGm/1u7jzTSebWoCfyA6F0lPIlG7hmnf6cjvrfFJwDRxJCXjye2HaUTteq0aaSzZgtSrgkS0eiLRs1M4Js7Cnf86BIm2/Q75HBsSSoilEX3rjFhhdWYX2r0QCzcEsyB4wYcf2l/EnTa0V8IMrnbioKbWZ1sAnp3eFsuelmEiEbjThvayXb9swx6SXAkgXMPE43bx/HsrbQd49+nSkcsmnUR1bVPNWuGFIn3+AD3zsvnBRHvLildffZVNmywlTM8QuxE7iYiJFNmfh6SFmqrB+VHQ/S1IIXy0eLPuNRpyeYhtDwbdt3PUbivPA3MQy445SMF9tBiF9YT7BNFJV4NE+yytxM1g94e5AGsNVjgkIfVODVlO6OHNbcVAUp4N38PpWFPcmGaApLQcPB17YBqt6floNWXIheJzSNT5DMTKo76xYh3Nm087kIul4LrLSuwbCNyEFjDtjVANPi2dFpJwhCvEPiSoS2nRokWUlFgbe8YU9JQBzglQtO90Oiguq6baaxUF+TkZUhweg/ykzyeCYmhf67zGXUWH2bj7UMwjdG3B405i+74SXp7/te36aeeMoE+XDnh9Vgsmp9NhGy01TNPyXVR7/Vxx9kl07mAtcaipqeHpp58OXrwDqZX6LhFAuok+Bx5GDu7nIWKsKbpgFTeziK75YxViONqQUdibhAbnmycReqhxa3kQiVL9V92/obpKI0FwgX4tEt2IJnNpm30FtF6YD8bqY/dvojvl4hPE4b4eJ9b6R8yAj5Qug3C6U4lzQbOJXHB8iFw0jUCaDP5A8878D9DY47MU68VLPeHNj0t8Qhm37orpXkSBcOcRrUbU+tFc1O7du1m+fDlTpkxptGHXTpmc2DefT7/eQVqca56cTgflVTUcKq2kV36HRuu65WaR7EnCMM2ot1vU+vxMOqW/bXptxaZCSo9UN+m/lYikpriZ/dE3TD19CD3zGteQdu6QzjXnjOCPsz5uJDBNE5KTXHTMtFrelFfW4m0wa9PrD9C3a0eumHSS7evPnTuXFSssI/P+Sfht/7HGBO5GLADaqrpNRNSUI/YFe2l5N+EQGs+mM7HpkI4CXwbdPwFJj24IWv4Bja0T0hGRPc3mOdoDo4Luf4N0lUaTdXWvEe4svmBVUoX1ewmXsTSuh6tG/MeiiRdpemh4gRE0jcHEmZRMct7AaKYlW4sPsT35DImW/glr1LoeR936T5CLp1LkgqyPzbahZme2N0KNMtoZy52IBuEKMR9yYGxUFDR//nyLEAM49cSefLzSrlM+tjidDo5U1rC/pMIixHrndyA/J4M9+8uiGo0yDJP0VA/nhyg2X/LNznbZeOt2OSkqPsJz7yznd9dPtqy/fNIw3vh0HVv2Fh/tXDVNk+RkD52yrUKstKKaGq/vqJdardfP1VOG2w739vl8PPnkk8GL99PyVEwsMZEU2M4470c9wSmbg4g4iDZfI+m4+qsSNxIJCD7hf1y3bcNjzglIqmwWMjVhMzJQO9HxILMuG/I1rfNCawmVyHfa2qHI+5ELh9YQPJ9zHy0bG9RaVgXdPwURhLUAht9LatcT8eT2xfTHNC3ZUvYjRrIbkSYfO4YA5yOWIgEkihws+AmxrL2Rhf3ED2i7pU3caUnIynI189FHH+H1WktQTh3Si4zUZIw4+1g4HQ6qvX627LH6wKWnehjcKw9vlA1oa+oc4Yf2s0tLlvL52l0hLTYSnfQUN28u2cCGndYSkrQUD9edN7KRVYXfMOicnUaOzRD2Q2WV1NT6cTgd1Pr8DOyZy6Uhxhm99tprdl52/yL6EYa24CCxUgTB9RZ7iM04qGKsHVx2XZ9exFojuO4lHfgpItRWIgarj9dtewEi3Foz0zKauLEWTLem7qo1tKRbLviAvYfWG5cGe1+tJTZ+VsHCPJ+Gv3XTJDm339H5k+2Ah5ELuFA0HNIeqrP1ZNo2MzYR6Ib9BUUNsRH4UaUlCmA58oaPOnavWbOG9evXM3x44+65AT07MaBHJ9bu2B93keFwOFi5pZD/mmLt8DttaE/e+by1kffwMEyTqRMKbNfNX7aZ4rKqdtEtaYfL5aS8soaZby/j0VvOt6y/cHwBr3y0mtVbi0hNduMPGPTMyybZJgK5s7BUJh0AXr/BNeeMsP1cqqur+ctf/hK8+DBiEJroJFLsM9hHJVYpXS/Wk3uorq4vkNqtJ5AW/mDy624N669qkN/DIaQrcVPdvzsRU9JCYt9llYzVAypWn3dbXqctRdDB8xlHI5MJovk3YGL9nD2IFxoYftyZeaT0OBnT3xYf2ZhzG1LQbzfzcjLSBFJCaCFWX6+3NSp7FxvGYl/SsZfvmBCrQPLvR4VYIBDgww8/tAgxd5KLcSf1ZtWWwrgLMU+Siw27DlBV6yMtyPdq4vB+5OVkUF5ZGxUPr1qvnwE9cvneaGtE1ecP8P6XWxLexLU50lM8zF+2leUb9zJqcONShCSXk+vOG8Vtj4s7QcAwOXlAcIZG2LL3EA4c1Hj9nNgnL6R4nT17NsuWWZrbnqV9HGQSSYgFH9RbO+OupdRgbQhoamjvPCSNNwOxuuhH0zV2KUgasCtWI9H6WpoliGv5AqJj1WG3T8FuxNFsimhIS7oyg0NEbdnHDkH3uxO6xieaJFMn9E3TJK3fOJzJ6Zi+GpDfSD6N37cDidxF9wq9ZexH/g6us1mXj5g4v4vUBDby/KwjA2niaQ/HyFCcG2L5Sto2nSEhaKn6sAz0mz/f3sB80in9SUvxxD096U5ysuvbUr7ZEjzPF7rkZDBuaG/bkT2RwOsPMPX0IWTYFOJ/uW43G3cdsI0OtSecTgder59n59l3/k8ZPYCxQ3pSWe0lLdnNKQOtx+Jan58te4tJSnLiNwyuP28k6SnWz6yyspLHHrNYGhUhBq5KywgON8ZqDIofa21Uc14yexDz15OACcCvkRqxNUhtW7gHmQykcPlKJJW9FhnvFE3/MJAIXPDJIlaWAk25sTdHa9OSdnMyTOKXC5TP2uHE07EHHCvS/xFiWbK8wW0ZUoaTaJYPrzaxrv6gug/rHNR6Lo7s7sSUDoiQtGNRLHckWrQ0XLUUOSgebSNdunQpW7ZsYcCAxlGfIX3yKOjdmW+2FcU1KuZwSM3R+19t5lQbH6+rzj6ZD77ajGGaOCPof+YPGHTJyQjpCP/vj9fiCxgkt9P6sIakpbhZvHonH6/czlmnNO5YdzodXD1lOIu+3sHQvvkM62f1l9y2r4RdRaX4/AHGD+vNBePtP7MXXniBtWstc7yfpv20LydSRCw4AhYr00cPYjLZkLIwH1uDdEw27JrsgnRd9kVGCJ1Udz8P+1ROQzohUwfOQ0bINFWL0xa8yHtsGPkLjhhFi7YIsdYW0JpYB03PRbyyYvk3UC8IZTSTaWAGGunhMuzPgdnI93MkyvvXEjYivyO79vqGv/O3sJ81OxkYRNtmx8aL87E2u4B09TZn09MuaKkKOAQspsGMuCNHjvDOO+9w6623Nn5il5MzhvdlxaZ9cU9PpniSWLJ6J8VlVZaOvREDuzF5ZH/mfbaJrDRPxC7Zqmt9XDzxRLrlWs9v63bsZ8k3O21nJ7ZHHA6ZIfl/by/j9JP7WNK8Z47oR0GfPMaf1Me2Q3XV5kLKKqtJT/Hwsx+cajukvaysjMcffzx48S6sMwyV8CgOuh8rYZCCVYi1JS1aVHf7rMEyFxL56omIsmFIh1lPpNYs+I+yK8c81IJ9ziKBF6swiVVDQUusC4IPf20RTcG1aeU0/o5iihnw4+7QjaSsLpjGUWu14L+BetyIGLPMTosjZchnaPe7adgJ9n7ddsG/8VTgeiSa3N64PsTyz2jeb61d0JrCqDeDF8yda+9LeMbwvtI9GXIIdGxwJ7nYfaCM95ba1/T95KKxdMxMCTmXsqUYpklqspuLQtQ5vfbJWsqranE5EylA0jbSkt0s37iXBcusZQjuJBe/umIC548bZPvYj5ZvpabWz4XjCxhdYO/ZN3PmTDsX/SdpXzPUEukLDz5R5tHyC7PWkIpV9EU68hBARPoSZGjyHUjUq360zO1AcK1CElJraG1vbjs+rN18JxL9TraOyMzF1tKW32uwyGnrqKU2YpBxwkSc7rSGJq6hmhFSiN2FSbjUEFo4NhRdO7GfRQkyq7K9eYqNI3RaMloR7JjTmgPBAoJSQV999RXr1q2zbFjQJ48hffKo9bXV3LntuJOczFmwmiNV1lKYQb06M/3C0VRWR6bmr8brZ+SgbowcZK2HKjxUzofLt5J6HKQkg3HgYPaC1bZ1gWePOoFBvYI72mHznkMs37SPXvkduGmqZRoJALt27bLrlNyC1Pe0JxJJiAWr2l6IT1e06YNV7OyMweuCnMy2IQOxz677/4bkA1dH6bWDO9pOwmrxEGmG0di0N5YEe9L1pflawCjiIFBTBmajbGsoJ3on4m2XSLgIPfQ6WFA+g309XmfgzkjuVAy4F/sLxK3IpIbjgtYIsRJkJMNRqqureffddy0bOhwOJp3SL+Tg7ViS7E5i855DvLXEvhnmuu+PZPKo/pRXtr1m2TBMvj/WPvrzwVdbKCo+0u67Je1ISU5i2aa9LF4dfrR43pIN7D9cwY++fwq9u9g3z/3pT3+isNDi2/k32teMsUQSYQAraFygn4aIg2gT5HROGdL5FGvWAz/BOgLoYqLzXX0RdD8bGWcTTS6hZcf4SKYml9G4xqwPoQ05I0k6EiHKRD7jdACHK4nydR/gKyvE4Tp6Xt9FaO/Bc6K9oy0kmdDdxcGedIsB+y46uBHpsmwPXETobskniV3ncdRpbWjcMn/srbfesp3bOOHkPmSlpxAw4i/GPG4Xz85bxr5DweUasu7BG6cwoGcnKqu9rT4C+QMGXTpmcMaI4DFr0h349mcbcbejAd8tweFwYAZMnntnRVjp6P0lFbyycA0jBnRj2jn2F6Bffvklzz77bPDilcg4o/ZGIomxzVgjURfYbBdpzg66vwbrieQG4HfAfYih5S+jtC8fYe0yyyc6xrsrsF44/CwKr1NPPnBNCx8TSSG2hsbpXw82cx8jzBDEwmFj3W0rR387DjDNuvqwo2/rMGKNYsdomm/2iCW5hI4o2hkx34f9nNEUpK7W6qqdWHQGLC3ydWwC/i+G+xJ1WivEFlPfiVLH0qVLWbnSemE7qFdnhg/oSq3N4O1Y40lyse9gGU/8x36kXn7HDP72ywvpnpdFZY2vVUehGq+fccN6k59jPZav3FQolhWe41OIAaSkuPl87W7e+NSaqg7m35+sYd+hMn552TjbWZumafLAAw/g91t+Ow8Se1POSJBIQqwWa+v3xUTXymEg1o6uT7EKgBuA3wP3A3fV3aLlehycQsshOh2k+7HWtEwk9BV/W5lB2xsC2vJ7rSAocwLcRHTTk5ch7utdESf2XBqOPHLYuWqEnFuaV/d8icIorF509dh54S1FLFrsGA78NRI7FUX+Ruhj0e0kVkdrm2mtEKskqLvI5/Px3nv2naQXjh8c5yH3x0hP9fDmkg28+4V9F+/Anrk8edtF9MjLtq0na44kl5NzTrWPwM//ajM+fwBHBG0yEg0HUo/31JtL2V8SOnK8Ze8hnp67lEvPGMr3T7VP486ZM8fuN/Ua0gqvtJ2naexvlYmMD4oWt9C4zqUSKaYPJviKLpno1TpVBd2voXUGkeEc4Z6kcTrYgUQn7KYGtIWLgVub3Sr6PEFjz7ihRE/cZAPXBi3bjgQNmuLTJtbdRdNmw7Hk9BDLDwJfhVj3W0Jb+9xYtz4RuR+ZqGHHc9j4mbZ32tK1MxdolG+cO3euXfSCM0f0p1d+B3xRnusYDk6HA6fDwYPPL2TjLvtazYI+ebxwz2WcOrQXZZU1YadVvb4AvfKzbU1LS8qr+HT1zuPCN6w5kt1J7Pz2MI+8HPoYd6hUrERuv3KC7frS0lL++Mc/Bi+uRKJh7ZVEU+ArsdaS/BIxTY00U7CKvDewH08SPLg5h+gNLg5u0z1M81fbwd+ji/A6TtdjHUzfB3iZyLnOn4c0sdSH3VtSExLJ1CTI7yv4SuphWj+EvCl+jkxdaEg4dURLCS1k+iBGwvGmM6HLBhYRekZsEXLxE+oi4Q/Ar9q2axHnFiStascyEm9/I0JbhFi9E/FRVqxYwSeffGLZsENGCpNG9qcmAdKTAMluFyVHqvjt0x9w+Ih9hqt7bhb/uONifvaD03A4HFRUe5udEuD1+RlT0JPsdGv0fck3u9h7sOy4LNK3IyPVw7wl65n9oX0JxtghPXnx3itCFug/8cQTdp24/wBWR3RHlYdpHLXwIF1X9rOoWseguudsKFaqEINPOz7GKoZuIfJCtiPWgvn1ND8WKDhi5iZ824vfYK1LGg98gphutpYkZCbhXI7VNq1HRF48uZ/GYqgbUt8TyfRv/bSFhmwnvDrSWkL/DkG+rx+0cr8ixS9oOLi8Mc0Zmr5N6ItXB/Le72/dbkWcB4D/F2JdIdLRHKtRbDGlLULMD7wevPDFF1+03fj8cYNJT/XYFvTHGhOZkbhmexG//Ns8yirsj7vpKR5+dcUE/nXP5Zw9sj/+gMGRqlp8fsNyiWEiacmzTulv+1wLVwZ3yh/fOBwOkj1u/vLqZ6zdYbX6cjod9MizN/3+5ptvePRRy7FxK/C/bdilNGT47feRbrn7kdboq4lNNxckXkQMxBTxgaBlBcAHyOfVVsYgJpPBURA7QVLPTkSMNWQScHcE9qch92H1t3oljMeVYo002Xuv2D/2eqyeUCcgn/nrwPcIbVUQTBqSivwUseWoryMqA6YhY5zCJdIRMZDo5m1ByyYjXleREPsjgZeo646sw0AaIcI9ac8l9AVeMmL2G68uygmEjsrtJbRnWEPuo2lReh8yQileXm89gf8gx2M7DiAp7S0x26MY01ZDwbkEXbm+/fbb7NplTUuf1L8LIwZ0o7o2MaJiAJlpyXy+dje/+Os8DpaGHqs2rH8X/n7HxTz3mx/ygzNOJCczhapqL+VVtVTX+vD6AlTVeOmam2U71PpAaQUrN+8j2X38pyUb4klyUl5Zy+//uSBsjzbTNPntb39LaanlGDqTps1bXchJKQ/pnpqC1EE8jNQUrKi7vQs8hRx8HgBeRATB/xEdM8+GJKIQA/gfrFfWwxDPwOm0rlA+B6mxeR9J8TRkNmAZkxDE77HOpHwQ6aRqq9lmMvBHrN2YXxG67b8h+7B2et6ONCOEw9dI92hwo4ALsZyYjwioV5BIz7WI2Dqz7nFXICfnF+q2ewM4rcHzHKrbZiVt6wCN1O91JtZ5sGcgv69L2/C805DfV3CN3e/rloeLl9AiAETkvYJcwMWSMYhACRU9vJvQaclgfoZN4KQBlyFR2UvC3bkIcRWSXg31O9iEjDiy77A7TmirMtiE/OCPFmAWFxfz+uuvc9ttwRdBcP5pg/hsTWKNBcxOT2bB8q088doX/P7HwZ31jRld0IPRBT04cLiCFZv2sWZ7EZt2H+JQWRUHD1cydkhPcjKtF7JL1+2hqLiC9JTjY6RRuEjk0c2qLd/yx1kf89BPmr+onDlzJu+8Y1uL+Qvk5FKGpDqqkd+vG+nEykCKzTsgYqwlH3Ya0qk3Cvmj39uCx7aERBViAeSkNgupMaqnO+I2/1NEsH6ERCaDC9zr6Yw4xk9CxqDZhYefQ+p5mmMlErUMLhS8Fek0/BcSDdhGeB20DiQqNwXp3hsZtL4CSX+GM+i6FIkkNjx59EJOFv9GoiuFSIrz5Lp9DD4J1ouxx4HLsV4U96u7XR7G/jTkY+R91He1t8U3KJK/118gv5s7GiwbggiNj5Df2ec0P1YoH4mo3Yi9HcZDWCO84TAPSdPdHmJ9NnIBdxESzY1miUQq8nn9mtAXHR8ikcBwqUGi/08hw87tGIT8Tt9Asg/RFD+TkffX9ElXUpXBZsitxSRBvcci8Yd2PpKHPsro0aP57LPPcLsbnwuLy6u4/N6XOHC4MiFqpRwOqKjyMqx/F5741VS65GS26nl8/gClFTUku11k2dSH3fr427y5eD2Zacn4/AEChkmy25UQn0Es8PoCFJdX8ccbp3DDBaFrrrdv387EiRPZty+Ux2JMmEvdVWFr0+jdu3d/Bqn7GRK06lSsvlWJRDIiDG4Ksd5ATvDfIvPsDiMitgMigvsRuujcQKKQf2jhPj2IdHfZRe99iF/UbkQgFiMn+yokipFXd+uIiMRh2EeI9gPX0bIoyngkHRhOVuEpmu5GHYeI06kfyUi3AAAgAElEQVS03t/pK6Q4/WUa+0fdR+MaoC/qXs+O2cCVDe4/T+g5f63lF8CfsR9eXYoI8B1IxPEA8l46IGnMgYjQt0tpliKRsJC2DKYRoNP4H+Pp2BMzEBxsBeTC7jma91+rQCLrs4GFWOeItpa+SAr0J4jFRCg2I8X7rUnVOZEI+AyaPv8byN/DC0jEKhKj5LoDZyFR9lBji4I5jAi2Z1rwOnnI8SD4hF6DHH8qSZyLYiewLxI7k4L8cTf64SxYsIDJk621p4/OWcw/5i4lKy1atkDh4QAqarz0796Jp2dcQs8Q9UptJWCYLNuwh9RkN06ng937S/lq/V4+W7OTPfvL8BzHgixgGFTX+ujdpSNnjejHuacOtO0orefHP/4x//xn5Hxas7Oz6dGjB126dKFjx474fD527tzJxo0bqa0NaU1iIFfai9sgxJ5H2s2Du7jG0z5C7Dcgo1DsfUVazvvIyXdhKx//fSQyFumxMwZy9X8vYD9yo2l+iryv9Ga2+wfw32E83xBErE9Cphx0rXvuYMuPUiQy/C3ye/oAOQbbRb9+hwiUepoSYq/TODU1h9A2Am3hNOTkOjVCzzcPiVI1aV4YhhADEYiPIlHFcNiCREeXIxcpO5BuxeYaPrI4NoR+EPKdT6B5u4y1SPNAW+ulLkO8usKp09uLvMdFSCR3JyKSm7JByEKiiL2Rv9uzkO+9tXVojyK/mXBqm0IJsURlZSSKlmqQEGkjIfbiiy/aCrHLJ53Ea5+spaLaS5Ir2jNv7XEAVbU+uudm8fitF4YUYV6vF4fDYYnstQSX08GpJx4rYRjWrwvnnzaY8soa5i7ewMx5y9h/+PhKWzqAaq+fFE8Sv7xsPFdPGUGHjOZ9HG+99VaSk5NZsGAB27dvJxAIz+4kKyuL/Px88vLyKCgooKCggJNOOokTTjiB/Px8UlOPncf8fj8rVqzgrrvuYtGiYD9TQK5QzkOiLK3No29BTp6HkAOHgRy02kvHzz+RFNv1SBpjGC1L9YKk5r5ErmQ/aOP+vIecBC7iWK1UW3zFNtc934s07SPVHP9AhM2NSPdlT+Tg3/DA5sc6YD0U6+tu/0R+Pzl1/6YhkbwqJPpSgQiycNKowSKxqTTuSkQImMifcbTSb18g3+U5iJgdR8vnbn4LvImkqCN5ceNFopOrkOhJc0JlQN3turr7JXW3GuSzLkO+syTkt5HJsVKKPFoWAf0UKSHY3YLHhOLfiHh8kObnq/ZAykKuqLu/H4lUFdX9W4VEp+sjzx2Q95VO5Oap3o58ztMJPSO0vVIZqfBcH+RLPToSIjc3l2XLltGnTx/Lxg/N+pjn3llBZnp8omK1Xj9ZGSk8PeMSTupvL9D9fj/XXnst5eXl3HPPPYwZMwanM/LC8dvicn7z1Ad8tmYXmXGOEkYCEWE+8jpk8OjPz7cdfN4clZWVbNmyhR07drBnzx7Ky8upqqrC4XDgcrnIyMggNzeXTp06kZeXR35+Pp07dyY9PT3s76iyspIf/OAH/vnz59tdjLwDPGaa5kct3nmge/fuLo6Fvg3kxBb/duHW4UFSJuORaE0X5Gq3Y92/1cjBuBQ5AdWLnHVYOwMjRR7S0TkA6TbsUbcv9aIlFRG+lXX7V4qI6q1IRGEdka8VSUMiABnIZ5SDnIR3IyesUHV10eYZRCjW8xrwwzjtSyjykBmkk5Hvs2PdLQdpYKiPABYhEZnFiEhs0e8rzIhYQ/pwzFzULpUaK3YjTUczsTawRIIpSOF/tGefNsUBJBV+JtKkEIrVSOq4qW7g9hYRWxTJPOk/CaonuPfee3ngAWvd5LZ9xVx532xqfYGYR8V8/gAul5PHb72QiSeHnuZy88038/TTTwOQlJTEqFGjuPTSS5k6dSoDB4bbHBUeFdVebnv8bRZ9vYMMm1E/7QmfP0B6qodn7vxBSJGbKCxZsiQwceJEl00KchHwqGma82we1izdu0fKmzNhcSARMg8S8fHStqLwSOJETt4m4aUxjnfm0dgM9FlC1wAmCg7kt+Wp+38vIkDa5AjeCiFWzwikbutiot9Z3ZDdSLfmYzSe2xkNHIhtyo1IKUBz6fZIUS/A/o5cLOUigvOiZh5zA6Ed9vORzytR6sCa46tI7ugZSPvrUXr27MlXX31Fly7WE/LvZn7I7AWrYxoFChgGPr/BQz85h4tPD66jPsadd97Jn//8Z9t16enpjB49mjFjxjBs2DD69+9PXl4ebrebHj16tDpqdrC0kmv/8Cq7ikpJaafu+yZQXePjwelnc9mkk5re1jQxkUkH8aKyspIxY8awfv364FWvAH8zTfOL1jzvd0CIKa2jvnHAhQhZP83UNbWRdCTV2dDe4bdIsfZ3jjYIsXpykajdBUi9Uy9anrJvCgNJ6X+ApF0XEblGgJYwEOlmvADpLo70eLE9iFZ4H+nyDRaZSUgEMFQHK4gwvxP75oysuuWpWC8Qg7MTZtC/dv/f1Lq2bu8ANkTyLOhAPtxG4c2HH36Yu+66y7Lx+p0HmPbAK/gNA1cUUn7BGKZJdY2Pu645gxvOD92599BDD3H33S33jZwxYwaPPPJIyPVFJUdw4LAdBl7Pp1/v4Gd/eROXyxlXgdJaqmt9jBrcg+fv/mHI73TPgTIWfb2dj1duJ79jBrf88DS6dYrGjOXm8Xq9nHrqqaxaFTxRh7uBZ03TbFUtggoxJQR3An9qcP8IUqgdrWjHWGAJx2yKTKRo2rY48ngnAkKsIcnI7MwCJE0+BEmRp9TdUoP+DSB1Y7UNbhVI4fs3SLPIzrp/E6mWtCvSqXoykjLsg9SA5SDpeDfHxKiJvC9vg38PI8JrI/LetiNlTGVhvPZPkIaCpqI1MxFLm3DqJROWSIZeTMQUs5EQe/bZZ5k+fTqdOnVqtPGQPnlMGnUCcz9dF/WomImk/35y0ZgmRdgzzzzTKhE2ceJE7r3X3g/QNOGpN79k1vurSHI6GTesNz+9eCx9ulqbYyYO78vE4f34cNmW9pmiNOHSM4bairDyqhr+MmcJ7325mZLyKlxOBwETFn+zk6u/N5yppxdEVJCVHqlma2EJ3XIzQz7vwYMHKSwstFu1lOOvIFSJP8HDzDORk9ubUXq9a2h8jC/CaiKrtI5ajplEN8RF41rFhjWL1Rwr4q9FhHii145+W3db0GBZOhIdTEdEWDLyO6sXYA0FZwmtr2t7GhGnzxO627Iv7ScFGZJI58D+g/iTDK1fsG3bNl566SV+8QvrlIYfnXsKHy3fSiDKUbHyyhouO2sYv7oi1AB7GVh+yy3hdiwfo3///syaNYvMTPu6wEdeXsTTb35FeqoHB/Cfj9fw5brdPD3jEgb3tjaUXDl5GItWbcc0TRztKCrmDxjkdkzntKHBJteShrzn6fm8+dkGOmSkkJWWfPToU3akhr/MWcysD1YyclAPThnYjRP75JHXMYOc7DQyUj220cFar5+KGi+V1V7KKmrYf7iCvQfLKDxYzoZdB9m2r4RzTx3A7Vc2/Z3v32+xx9mO9eCqKJFgHXJiymmw7HKiI8T6YPXDWohEKJToEUAiXQlpHBohwu3YjQQfIOngfyENHQ1ZjDSetPvPOhpn+p8BTzRcUFBQwJdffklWljUy8YcXFvL8uyvJilIHZXlVLWcN78fjt00lNdledy5evJgLL7yQsrJwoqXHyM7ONt59913nuHH2tjwvvLeSP7ywkPQGYsJRt08jBnZj1j2XW+rBqmt9XHrPS+wuKsXjbj/+YtW1PsYN683//do6qWLx1zuY/sjrpCW7Q4pLf8Cg1ufHMGQoe0aah5wsEWLJbhfJ7iQChknAMPAHDKprfFTW+Kis8VJR5cXnD+D1B6isrqVLpyxuv+p0rv7eySFfb8+ePUyYMIHduy2d4P+LXEy0xdC1VY9TvhO8QmO3/EokhRjJWjEHIu4ubLDMi3S9WvLw3xUinJpUYksnpNGk3uduNTJhoyhuexRBolEV/jJSZHe0JXHDhg3MmTOHm26yNuv8+ILRLFi+lUOlVREVHg4kHXlin3weuvmckCJs7dq1XHXVVS0WYampqYHnn38+MG7cONsc4sKV23h09qdi5NpADJjIjMtVmwt5f+kmLj79xMbPm+zmxL75bN1b3K6EWMAwbdOtAItW78Qwmo7wJbmcJLnko6yv59tdVYphmMh/ja8aHA4HTqcDp0NuBiZOJ/zgjKHcefUZ9O4SehxhdXU106dPtxNhVUgYXFGixT9pLMTSkQvX84mcxcUjNBZhIALwOyvClHZPMRL9egzp7ryY40SEQduHfttxGJtxBI899hiHD1uj4l07ZXLjhaOp9UW207za6yc/J4NHbzmPzh3sO3H37t3LVVdd1eKROoMHD+add95xXnzxxbYibNPug9z77IcEDDOkPYfDAYtW7bBdN7RfXqujMfHCAXQNUYu189uSFtmUOB0OXC4nHreLlOQkUpPdpCW7SW148yThTnLhDxhU1Xo5sW8+f/3lhfy/X01tUoQFAgFuvvlm5s+3ne38PNHtYlOU+Yibf0POrFsWupU7PPoj7vh3BC1fT12UV1HaMQbwS2QCwc747kpkiVZh1kyCPqiNGzfyxBNP2G58xeSTmXBSHyqrvRHJlfr8BsnuJB6++VxO6NHJdpuysjKuueYa1q5tyhfuGCkpKUyYMIGZM2fy5ZdfctZZZ9nuakl5Nb9+6n2Ky6qatKFwuVzsL6nAMKyCKzM1mXZUHnaUnEyre351rY/DR6pxOiPzhkwkjXmkqpZar4+BPXP5w43n8NLvruC8Uwc12W1aVlbGFVdcwaxZs+xWFyFjNBQlmpjAr5BROA2ZgoyReRwRZvYHLit5yInpKWTe5CVB6/ch42wiMStQURKBcCdVtBuiZVh1CGk7fazhwr/97W9cc8019O3b2Eg1yeXkjqtO50fb9+P1+dtk8moYJv5AgPtumMy4Yb1tt/F6vdxwww2hRtwAIrz69OnDySefzFlnncUZZ5zBwIEDm/QJ8wcM7nl2Pmu3729UkG67nwGDtFSPrUAxTOm2PB4IGCYV1d5WvR8TMA0Tv2Hg8wcwDRO3O4n8jhmcNrQX3z91EKMGdw/Ld23Lli1MmzaNpUtDztz+PVKoryjRZidiWPkfxLOpng7IeJ2fI+aWezg2ALsKqSfzIF5kHZA5fgMR2wQ7PkFqdi1GeYqiJA7RdA59DnFwLqhfUFxczIMPPmg72PnEvvncdvl4fv/cAtJTPK3qGDRNqKzx8osfjuOHZw4Nud2MGTN4/fXXGy3zeDwUFBQwbtw4TjvtNEaOHEmfPn1ISwtvFJhhmDzw3EI+XLaFzGZEmGlK0fm5YweEeK5EMSkPHxNsh5enJidxysBuFBYfqRNkJk6HQ75fBzhwACamidSCmfL5uBxOXElO0lLc5GdmcEKPTgzr14WTT+jK4N6d6ZiZanmtEARefvllx4wZM5whrCpA0kJPteZ9K0orWYNEsn6DHCeD6yd6190mtOK59yK/5/9FLAQURUlgoinEyoA/I8WpR3nuueeYOnUqF198seUBV08ZzprtRby6cE1YQ6KDKa+q4fJJJ3HLpaeF3Oavf/0rjz/+OADJycmcddZZXHDBBebEiRMZOHCgIzm55d2blTVefv/Pj3h9UXieaOVVtVw0YQg/PHOY7fqATboy0XE6HKQmW02mXU4nf7zpHK47byRfb/mWnd8e5mBZJTVeH9W1fqprfbgcDjLSkklP9ZCe4qFDRgpdO2XRKz+bLp0y6dwhvTVec+b+/fuP3Hnnnc5Zs2Y1Na5jI9By3xJFaTsHkTTlTCSleC4wmqYNLENRDiwDZiMdk4citI+KokSZaM/SmYVMdp/ccOGvf/1rJk6cSE5OjuUBv5l2JnsOlLF0/R6yWnDyLaus4Yzhfbn3R5NCRtNef/11ZsyQmtULLriA+++/n5EjR0IbbDy+XLeHR15exNptRWSmeZqt7aqoqmX4CV2550eTQm7T3gr1DdMk2ZNETpZ99NDpdDCoV2cG9bL6phmGCY6Ijjoya2try2fPnl1+3333Ze/evTv0KANpLLkOGSuiKPFifd3tIaTbfEDdrR9SK5ZWd0tHfKrKETPQMiTNuRJxLT9uusgU5btEtIVYAHgAGatxtLhq06ZN3HPPPfz973+3PCA7PYW/3HI+N//5DdZs3x+Wv1h5VS1jC3ry6C3nk5ZiP/rriy++4Prrr8fv94ccuxQuPr/Bso17+M/Ha1mwfCs+f4CMZkSjAzhS7WVAz1we+8UF5GSFTq21t4iYaZqketxNvqdQRKqIH6C2tjbw5ptvFv/5z3/2LV++vAtNz4E7AvwX4qIfUVrahasodZhIneJ2xMhSUZTvALGYLv0pkp6c3nDhP/7xD8aMGcN1111neUB+TgZP3n4RM558jy/X7yYzLdk2YmKaJuVVtYwe3IO//fLCkHVDO3bsYNq0aZSXl3P77be3SoRVVHtZt2M/n6/Zxedrd7Nh5wG8/sBRW4XmKK+qFYuFX1xAr/zQ9gogw8nbE4ZhkpriJjM1dgPcG3Lw4EHeeOMN85lnnjFXrFjRCRkz0hRliAh7P/p7pyiKoiihiYUQA+lIOxsZu3GU22+/neHDhzN8+HDLA7rlZvGPOy7if19ezOufrsXrN0jxJOFyOjAMk5o637ErJp3EXVefQXaImrKysjKuvfZatm3bRn5+PrfddluzO2ticuBwJdv2FbN2exHrdx5k466D7DtYRo3XjztJnN7DMVz1+8Xn6pwxA7n/x2eH9DRriJ2lRSITMEw6ZaWRHsP5mIWFhSxZsoR3332XDz74gKKiIgfh/Z53IOnyL6K7h4qiKIrSPLESYnuBXwNzGi4sKSlh2rRpvPfee/ToYe3AzkpP4YEbv8eUsQN4+cPVrN1RRGW1l/RUD6N69uC/vncyk0b2Dz02x+/npptuYsmSJQCMGjUq5PiZg6WVbN1bzNdbvmX5xr1s3nuIkvIqvL4ATqcDd5ILT5LLtjPQjoBhUFnto1N2GrddOYFp54wI25aj/Qkxg05ZaWHZSLSG8vJytm/fzjfffMOqVatYtmwZGzdupLi4uKVPNR+4EbBY6iuKoihKPIiVEAMZsXEecG3DhfUjht5++22ys7NtHzjhpD6MH9aHQ2WVlB6pITPdQ+cOGbiaqC8yDIOf/exnvPrqq0eXpaeHjkZ9smo7//OvT9h3sJzU5CTSUjx46mYchothmHj9AXz+AFnpKVx5dgHTLxgdcvRPKNpbatI0oUOItPCSJUu47777SE9PZ9CgQfTq1YsuXbqQm5tLUlIShmEQCATw+/0EAgHKy8vZs2cPhYWF7N69m3379lFUVERhYSFer7e1u1gKPIiYZUZ2hIOiKIqitIFYCjGAO5H27IKGC5csWcKVV17JSy+9ZNtJCTISqHOH9LBSeyBpz2eeaTxpac2aNRw5coTMzEzL9pedNYwxBT34YOkWPl29ne2Fhzl8pBp/QESRy+k8WlheL/8M05SbYeLAQVqqm8G9O3PG8H5cMG4w/bvbv5fmCATaV0QMpK7PjpdeeomFCxcCMG/evEbrHA5HtDtEq5HZpw8DW6P5QoqiKIrSGmItxPYDP0GKpBt5Hbz//vucffbZvPzyywwePLjVL1BTU8Mdd9zBk08+aVm3YcMG3n77ba666irbx/bu0pGbLhrD9AtHs+9QOdv2FbNtXwmFh8rZd6ic8ooafP6AiDOHdHh2yk4jNzudE3p0YkifPAb0zMUTRvqyvLyc999/n4suuohg7zIRdu0Jk66drOIWYNu2baEfFR0RZiKt/K8hUVidHakoiqIkLLEWYgCLkaG0Fu+KVatWMXnyZJ588klbw9fm2Lx5M9OnT2fx4sUht5kxYwYjRoxoUuw5nQ565mXTMy+bM0f0a7TONI+lDls7iunAgQNMmzaNqqoqLr/8csv6gGk06cyfSJiA0+Ekv6M1IlZeXt6kEIsgtYif0qfI2JjFSDRMURRFURKaaA39bo5/IOM3LBQWFnLJJZdw2WWXsW5deMGMkpISHnvsMcaPH9+kCAPxeLrsssvYsGFDi3caJEWa5HK2WoTNnTuXsWPHMn/+fLKysmy3CQSMdjP02zRNkj0u2xqx6upqSktLI/2SPsSAdTkyxuV6JN09HBkVMx8VYYqiKEo7IR4RsXpmIE7RP7Vb+Z///If33nuPyZMnc9lllzF27FhycnLo0KEDgUCAwsJC9uzZwwcffMCsWbPYs2dP2C+8du1axo8fz0MPPcT06dNJSor+x7B27Voeeugh5syZczQl53LZpzCla7J9KLGjZq42QuzgwYNUVVUFL34M2AwMAXoCGUia2lN3A6hBhhyXIp5fJcgA5M3IMOSDyAiXQITfjqIoiqLElHgKMYCfA6nImBkLlZWVvPXWW7z11ltkZGTQsWNHOnTogGEYfPvttxw+fDhUndFG4B3g9lAvfPjwYX7605/y/PPP8/Of/5ypU6faFvG3BcMwWL58Oc8++yyzZ8+msrKy0fpQQixgmLSX3KRhmKSnemxng+7YsYOamprgxZ8AbwUtcyAmrPW/Rx8qshRFUZTvAPEWYgHgBsRn7Lc0kSqtqKigoqIinMjXDmAakrrKQnyjQrJ06VKWLl1Kv379mDJlCueddx5Dhw6lZ8+erYqUeb1eNm7cyMKFC3njjTf4/PPP8fvtHRNCCzEDHO1DiQUMk5zMNNJSrGauNmnJANKwEYyJ2EqotYSiKIrynSLeQgzkJHwvEsV6HGid54PwHtKVWa/W/hvYB/wGaHL+zvbt23nqqad46qmnyM7OZsCAAQwePJh+/frRu3dvevXqRXZ2Nh6PB7fbjdPppKKigqKiIvbv38+BAwdYt24da9euZdOmTXaRIAtGCL8wh9PRbiJiAcOgY1aK7ZSBw4cPBy+qAL6NxX4piqIoSnsgEYRYPS8hA5jvB66iZY0EZYhX1KNIWqsePzJe6TXgFuByoFl31bKyMpYvX87y5cst6xwOB06nE5fLhc/na5MFg8/ns13udrnaS4kYhmHSMTPNdt369euDF5Uhw7YVRVEURSF+XZOh2Apcg8ylnI0UZTfFbuAPSMfcwzQWYQ1ZC9wMDEXq0d4ELOGacDBNk0AggNfrbYkImwM8H7wwpBBLchFdn9PI4QC6dLI3c7VJTR4AKm02VRRFUZTvJIkUEWvIx3W3rsBZSIddR6ATElXZCnwDLEM66sKlEHih7tYTEXwjgBOBvkAPwB2RdyDeVu8hfmkfIt5pjQgdEWsn4TAkg9o1x77JwSY1eRBo9ZwiRVEURTneSFQhVs+3yIiaaLAHeK7uBtABEWdD627DgP6IGOxAeMnCfUit2/vA23X/X4+liKo+tRk8tDwpzMHi8cY0xVPNbuxUdXU127dvD158ICY7piiKoijthEQXYrGktO62psGyNKBz3a0b0BvIRkSZA0ntViJdnzuRSN0h7EvtLZX5Xq8XwzAs3ZPupETLGNtjmiZpyR7ybOZM7t+/n2+/tdTl747JjimKoihKO0GFWNNUIQaiuyLwXBYh5vf7bYVYUghbi0TDME0yU9y244127txp8U1DUsOKoiiKotTRPkIvxweWKFmogv/Wjk+KNdIxmUp2utXM1SYaBs03XyiKoijKd4r2ccY/PrAUqft8PgIBq4G809k+ivX9AYPOHdNJ9lgDqzbGuwb2Zq6KoiiK8p1FhVjssDi8+nw+W1NXVzuZ+B0wTTpnWwv1QcYbBaFmroqiKIoShAqx2GHxqghlCOtyOmkXWsw06d45y3aVTWryMGI9oiiKoihKHSrEYoclNWmapm1ELCnJicPRPr6arrlWIeb3++1SkweQrlRFURRFUepoH2f744Pa4AWGYdjWiCUluXAmeEjMNE087iRbD7Hy8nIKCy0NknvRod6KoiiK0ggVYrGjOnhBIBDA77dqE7fLidNBQo85MkxIS3HbuuoXFRVRXl4evFg9xBRFURQlCBViscNSrG8Yhq0Qc7mcJHqRmGmapKd46NzRGhHbu3cvVVVVwYu3xWTHFEVRFKUdoUIsdtQAjfKQfr8fr9c6ejHFk4TL6cDeoD8xCBgGnbLSSEvxWNaF8BDbG/WdUhRFUZR2hgqx2FFBUMG+1+u1ixyRkeIhyeVMYBkmHmL5ORkku61TAGxmTPqROZyKoiiKojRAhVjsqCbIwsLr9dqNASItxS3u+gmsxEzDpEfnbNt1Nh5iZaiZq6IoiqJYUCEWO2oJ6pwMFRFLT/HgcjkxE1iJmUDvLh1s1+3ebanLL0U9xBRFURTFggqx2FGDTeekXUTMneTCk+RK2K5JE3AnOemaa+2YPHz4MDt37gxeXIh6iCmKoiiKBRViscNWiNlFxNxJLlI8Sbau+4mAaUjHpF1q8uDBgxw+fDh4sRbqK4qiKIoNKsRiRw1SsN+I0lJroMjtdpKe4sFITB1GwDDJTEu2NXPdu3evnYfYlpjsmKIoiqK0M1SIxQ4fcCR44f791hr2FI+brPRk2/FHiUDAMMjPySQzLdmybts2W7swFWKKoiiKYoMKsdhiydkdOHDAspEDyExPxkjQ1GTAMOiWmymdnUFs3rw5eJEJWPwsFEVRFEVRIRZrioIXlJSU2G6Yk5mWuMX6pknPvLCtK0pQDzFFURRFsUWFWGyx5CGLi4ttN+yUnZbAwyYd9MrvaFnq8/nsOiYPAPZvUlEURVG+46gQiy2WiNiBAwfw+XyWDTtmpiaki5hhmqSnuBnUK9ey7tChQxQWFgYv3oFNk4KiKIqiKCrEYo0lD1lcXGzrJdalYwZul3V8ULyR0UaZ9LBJTW7bts1uzqTF3VVRFEVRFEGFWGw5GLygpKSEQ4cOWTbsmd+BlOQkjATzsPD7A/TvnkN2eopl3ddff233EEv1vqIoiqIoggqx2FJEUJqurKyMffusteydstPITEu8zsmAAUP75mFYk78AAAhkSURBVNuuW7p0qd1iFWKKoiiKEgIVYrGlBJtRPzadhnTISCE/JwN/IHG8xAzTJD3VzenD+1rWVVdXs3r16uDFpcC6WOyboiiKorRHVIjFlmLAUkS1ceNGy4buJBdD+uThDwRisV9hUev1U9A7j4JenS3rNm/ezJYtFt/WDcCuWOyboiiKorRHVIjFlgA2nlohaqsYXdATh8MR7X0KG5/f4Mzh/XDZGLm+88471NTUBC9eBQnZ/KkoiqIoCYEKsdhjiRCtXr3azvaBUYO6k98xA18CpCd9/gBdO2Vw/vhBlnWBQIB58+bZPeyrqO+YoiiKorRjVIjFHksesqioiBUrVlg2zM/JYNLIE6iptfqMxZqqWh+XnjmMHp2tthWrVq1i+fLlwYtrgWWx2DdFURRFaa+oEIs9a7FJ182dO9d24ysmDSMzLZlAHAeA13j99M7vwH9972Tb9S+++CJ+vz948RfA+mjvm6IoiqK0Z1SIxZ7t2PiJzZs3j127dlkEWkGfPM47dRAV1V7iUS0WMEwCAYNbLx9PXscMy/qNGzfywgsv2D3UNlepKIqiKMoxVIjFniJgW/DCgwcP8tprr9VgEy277vyRdMpKw+uPbQelYZpUVNVy88VjmTphiO02f/3rXykttThylABvRHv/FEVRFKW9o0Is9hhIetLCc889V1JdXW0ZDH5C90789JJTqfFa0n9Rwx8wqKjycuPU0dx2xQTbbb7++mv+9a9/2a2ai8yYVBRFURSlCVSIxYf5dgvXrl2b+u6771qq3gGu+/4pnD3qBMoqLRYREcU0TSqqa/G4Xfzuhkn8+pozbbfzer3MmDGDqqqq4FXVwFNR3UlFURRFOU5QIRYflmBTJwbkPPbYYy6v1/tN8AqHw8ED07/HySd05UhVbcR3yDBNKmu81PoCfH/sIF6+70quPeeUkNs/+OCDLFiwwG7VS2i3pKIoiqKEhSveO/AdpQI4DSgIXrFnz55O6enpr0+YMGEY4Gm4Lj3Fw+kn92Ht9iK27yvBneTC2QbDV9M08foDVNf6SHYnMaqgB3dfexY/veRUOmWnhXzczJkzmTFjht2qg8D1wOFW71QCcf/998d7FxRFUZTjnMSxbf/u8X3gXbsVqampn3300Uc7TzvttKvt1h+pquXxf3/Oqwu/oarWR2qyG5fL2eyXaZom/oCBzx8gYJgku5Po3aUDk0eewLmnDmRw787NCrtZs2Zx0003UVtrG5X7GfD3Znaj3WAm2MB1RVEU5fhDhVh8+QiYZLdi7Nixb3z44YfdMjMzx4Z68Ddbi3hpwdd8tnonB8sqCQRMXE4HDocDh0PaL03DxDBNHA4H7iQneR0yGNSrM6MGd2f4Cd0o6NOZ9FRPqJdoxCOPPMLdd99t5xkGMBu4muNopJEKMUVRFCXaqBCLL99DomJJNuuMc8899+NXX321Z2Zm5sCmnqSo+AirthSycddBCg+Vc6Tai9cXIMXjIjMtmdzsdPp2y6FXXjb9uueQm53eop3ct28fd9xxB3PmzAm1yTLgXMS24rhBhZiiKIoSbVSIxZ//BW4PsS4wZcqU5S+99FJebm5u31juFEBVVRXPPPMM//M//8OBAwdCbbYBSbNaZmi2d1SIKYqiKNFGhVj8SQcWAKeGWG8WFBR8+9RTTyVPnDixUyx2qKamhnfeeYcHH3yQ1atXN7XpGuBSYEss9ivWqBBTFEVRoo0KscTgJCRF2T3UBqmpqd5bb73VcccddyTl5ORE5XvbuHEj//73v3nllVdYt25dc5t/CFwDhAyVtXdUiCmKoijRRoVY4jAGGQvUramN+vfvz2233cYVV1xBbm5um16wpqaGjRs3snTpUubNm8fChQuprq5u7mF+4GHgj0B03WXjjAoxRVEUJdqoEEssRiNiLGRkrJ7u3btz4YUXcu6553LKKafQrVs3XK7QtnCGYXDo0CEKCwtZs2YNn3zyCUuXLmXr1q2hrCjsWArcBSwK9wHtGRViiqIoSrRRIZZ4FACzgFHhPqBjx47069ePHj160L17d9LS0khLS6Ompobi4mJKSkooKipi9+7dFBUVEQi0eHj4FuAvwPMc51GwhqgQUxRFUaKNCrHEJBv4PWKQamdtEQv8wArgn4hH2JE47UfcUCGmKIqiRBsVYonNeOA+4Gxi911tR9Kj/waWAy0Onx0vqBBTFEVRoo0KscTHAUwG/hsRZJkRfv4KYB3wJbAQ+AQoj/BrtEtUiCmKoijRRoVY+6IvcAEizEYAPWnZd2gARcBe4Guk6H4pYsZqO7fou4wKMUVRFCXaqBBrv+QgwmwQMAzIA3KRiFkAEVbVHBNeO5Gi+11AMd/hlGO4qBBTFEVRoo1DTzaKoiiKoijxwRnvHVAURVEURfmuokJMURRFURQlTqgQUxRFURRFiRMqxBRFURRFUeKECjFFURRFUZQ4oUJMURRFURQlTqgQUxRFURRFiRMqxBRFURRFUeKECjFFURRFUZQ4oUJMURRFURQlTqgQUxRFURRFiRMqxBRFURRFUeKECjFFURRFUZQ4oUJMURRFURQlTqgQUxRFURRFiRMqxBRFURRFUeKECjFFURRFUZQ4oUJMURRFURQlTqgQUxRFURRFiRMqxBRFURRFUeKECjFFURRFUZQ4oUJMURRFURQlTqgQUxRFURRFiRMqxBRFURRFUeKECjFFURRFUZQ4oUJMURRFURQlTqgQUxRFURRFiRMqxBRFURRFUeKECjFFURRFUZQ4oUJMURRFURQlTqgQUxRFURRFiRMqxBRFURRFUeKECjFFURRFUZQ4oUJMURRFURQlTqgQUxRFURRFiRMqxBRFURRFUeKECjFFURRFUZQ48f8BXXPaSpsBa7QAAAAASUVORK5CYII=;" vertex="1" parent="1">
          <mxGeometry x="717.15" y="54.349999999999994" width="155.34" height="71.31" as="geometry" />
        </mxCell>
        <mxCell id="saT2jb2MqarJS_3Qa-GO-20" value="" style="shape=image;verticalLabelPosition=bottom;labelBackgroundColor=default;verticalAlign=top;aspect=fixed;imageAspect=0;image=https://2024.allthingsopen.org/wp-content/uploads/2024/05/Gold_MongoDB_FG.jpg;" vertex="1" parent="1">
          <mxGeometry x="724.82" y="371.25" width="140" height="78.75" as="geometry" />
        </mxCell>
        <mxCell id="saT2jb2MqarJS_3Qa-GO-27" value="" style="shape=image;verticalLabelPosition=bottom;labelBackgroundColor=default;verticalAlign=top;aspect=fixed;imageAspect=0;image=data:image/png,iVBORw0KGgoAAAANSUhEUgAAAmIAAAEYCAYAAAD/B5rcAAAACXBIWXMAAAsTAAALEwEAmpwYAAAgAElEQVR4nOy9d5gcZ5W+fVd17p6cJM1IGkmjaEUr2JJlIds4B4J/LGnJJixgwCSzyy673uVjgWVZwIAXDCzGGAzGYCNn4yArWVaOVhxJozSjybF7uru66vvj7bFGXdWTp2dGPvd19SX7faurq7p7qp4+57zP0SzLQhAEQRAEQcg8+kgfgCAIgiAIwpsVEWKCIAiCIAgjhAgxQRAEQRCEEUKEmCAIgiAIwgghQkwQBEEQBGGEECEmCIIgCIIwQogQEwRBEARBGCFEiAmCIAiCIIwQIsQEQRAEQRBGCBFigiAIgiAII4QIMUEQBEEQhBFChJggCIIgCMIIIUJMEARBEARhhBAhJgiCIAiCMEKIEBMEQRAEQRghRIgJgiAIgiCMECLEBEEQBEEQRggRYoIgCIIgCCOECDFBEARBEIQRQoSYIAiCIAjCCCFCTBAEQRAEYYQQISYIgiAIgjBCiBATBEEQBEEYIUSICYIgCIIgjBAixARBEARBEEYIEWKCIAiCIAgjhAgxQRAEQRCEEUKEmCAIgiAIwgghQkwQBEEQBGGEECEmCIIgCIIwQogQEwRBEARBGCFEiAmCIAiCIIwQIsQEQRAEQRBGCBFigiAIgiAII4QIMUEQBEEQhBFChJggCIIgCMIIoY30AQijDi+QA+QCBUApUA4UAlndHtnJbTtTHlGgGTgGnABqgabkWBSwMnYmg8SyxsyhCoIgCGMU90gfgDBiuIHxQAUwO/nvHKAMKEIJr+AQvE4caADqk4+9wK7k4xhKoAmCIAjCmxKJiI0MGiqqlI+KPAUBH+Dp9m8n0ApEgFjy3yaghYFFlQLAXGAFsDD5mA7kDeI8BoMJnAKOADuBDcBmVARtVCARMUEQBGG4GS1CzA9M4HyEpgQlEIpR0ZkQSqD4UZEcA5XmigEdQA0q2tIE1AHnkv/dBlQn/x0pAsBUYBYwP/koR51f18PTw/NN1HmGUefUhDqnKlRE6XVUCvBUcpsudGAasBy4CliJEl6jOQp6DngNeAp4Fjg5kgcjQkwQBEEYbkZCiGnAJOASYBlwGUogjENFh4ZqAYGBiiLVo4TK68BR4BDqBn+G4UuLTUQJoOuBVcAUlIgcLjqAs6i03yuoaNp7gMtRInYs0gK8DPwBeJoRENMixARBEIThJlNCTEcJrxuAW1BpsYIMvbYTEVT05SCwNfl4HRVlMga4zxzU+X0QFX0ayfO72KgEHgQeQkUBM4IIMUEQBGG4GW4hNh54L/B3wGKGNyo0WFqBw8BuVL3SJpQASPTyvGnAx4F3o9KqYxqPx0N2djb5+flmfn6+Pm7cOPLy8ozs7GwjFArpXq/X4/P5NMuyiMfjlmVZ8UQiETcMw4hEIvFTp06FT5065Y/H4+6amhqjubk5YJqmC/VdCwzy8FqB3wM/REU2hxURYoIgCMJwM1xCbAFKnLwHVe81FgmjUn3rUSmyLag0ZxflwBeAjzJyBe8DxufzUVZWxvTp05k1axYVFRXMmjWLcePGUVBQQHFxsRUMBru+H1byoWH/zlioOrY3/jtJ25kzZ4yamhpPa2tr/fbt2xsPHz7Mli1bQidPnsxta2vLQy1S8A7g8DuA3wHfZRgjZCLEBEEQhOFmqIVYOfCPwEcYuuhX191Q0zQNt9uNx6Nq2w3DIJFIkEj0FrQaEmpQ9VdrUDVtX2Dg6UcD0Nxut15YWBjLy8vTsrKyvIWFhXi93jcebrebSCRCW1sbbW1thMNhOjo6aGxspKWlpV/nnZWVxYIFC7jiiiu49NJLmTt3LtOnTycUylgJmUVy5efhw4dbjh8/3rZly5aWTZs2hTdu3Dipra1tKv1/PxuB7wP3Au1DfLwixARBEIRhZ6iEWBZwF/BFBiZOEoBVUlISnTBhgqe8vDw6c+ZMd2FhYaCkpMQsLS018vPzPW63W+sSYpqmYRjGG4/GxkbOnj1LbW0tjY2NNDQ0UFNTw7lz56iurqampiZTgs2JSDAYbJo5c6a+aNGi6MyZM91LlizxjRs3rrCoqChaWFio+Xw+n6b1/HFYlkV7ezsNDQ00NTXR0tLC3r17qaqq4ujRo5w4cYKzZ89SV1eHpmnMmDGDVatWcdVVV7FixQqmTp2Kro+qZgoGUFtVVXVi27ZtR9esWdO5du3a6SdPnrwUZe3RVw4CX0GtthwyRIgJgiAIw81QCLGlwM+AJf14TgJoqKioiCxbtsxYsmSJtmLFipypU6cGi4uL3R6Pp6umaNCqoUuknTlzhkOHDr3xOHLkCMeOHaOxsXGwL5GO+kmTJp1ZuXJl+IYbbrBWrlxZMnXq1HFut9uLSscNeVo4FotRV1fH4cOHcblcLFmyJJMRr6HgXEtLy56HH35438MPP+zfsGHDlaZpzqPv79XPgH9BGcgOGhFigiAIwnAzGDGgAZ8Hvolqd9Mblsvlqpo3b171Lbfc0n7TTTflLlq0aHJWVlYuKo2ZUSsNwzCorq5m3759bNmyha1bt7J//35OnjyJaZq978CZRFZW1oHVq1cf/vjHP87q1atn5+fnT0ZFDIW+YxqGsX/v3r3rfvGLX9Q/9NBDK9va2lbTs99aF4eBTwFrB3sQIsQEQRCE4Wag4icL+Dnw/j5sG83Pz9+xevXqPXfeeWfeqlWrlnm93okMrEh7WGlpaeHAgQOsW7eOF198kR07dlBfX9/7E5PccMMN5+69996dM2fOXIgyqB0zWBa0RaLUNrXT0NxBQ2uEhtYwdc0dNLd30hmNE4nGCSf/BfB53Hg9LrxuF16Pm+yQj/EFWZTkhSjKC1GUG6I4N0RhXhC9l7RrD5yurKx8/Hvf+97Jhx9++K2tra3X0XukNAr8M6p+bMCIEBMEQRCGm4HcHYtQK9au72U7My8v79k77rhj+5133jlvypQpKxljKyjPnj3L1q1bef7553nuuec4duyY48156dKlfP3rX+e2227D7R7NxvUXUtvUzuPrX+dgVR21TR3Ut7RT3xImGjMwEiZGQkUGNU1D05JfFk274EtjWWAl11NYlhIvuq7hcem43S7ysvyUFeUwa3IxMycVMXtyCVNK88nL6vdajrMHDx787Y9//OPqBx544EPhcHhxH57zW+BOlO1FvxEhJgiCIAw3/RVik4BHUW74adF1fecXvvCFR77whS9MLC8vfx+DMDeNRA3CnTHC0RhxwyRhmsTiCSzA43bh0jU8Lhchv4eg30vA52HgwZf0dHR0sHnzZp566imefPJJjhw5Qn5+Pt/4xjf4zGc+g8/n69f+4kaC2qYOqhtaqW3uoK6pg6a2SFIEJYgZJpZlEfC5Cfi8eD3qHEsKshlfkEVBdoC87AC5oYEvTo3GE6zdWcnDf9vNhj1VJEyTnJAPXdNBG1yuWGkYi4RpEjdMDNNC18DvdVOYE+KSKSVcPncSV8wrZ1ppPr0tVOjGvs2bN//q61//es7LL7/8OdQPg57YgPKyO9P/cxAhJgiCIAwv/bnXFqH6//VUlB9bsWLFvT/72c9OLliw4PMom4c+ETcSnK5r5fDJeo5VN3K6tplT51poCUfpiMTo6IwSiydImFY3Qwt1Al6Pm6yAh1DAR1bQR0FWgIKcAPk5AUqLcpheVsi4/CyK80P4PIOPWLW1tbF27VoqKiq45JJL+vScWDzB0dMNvHbgFK8fP8ex6iaq69toC3eSMC2MhIlpWcqoS0ueHIBlnTfx0pKRJpeO3+umICdIaVEOFWUFTJtQwNypJUwrLSQr2P+s77aDp/n5X7ewcU8VlgYB7/BE9iwLjIRJzDAwTYu8LD8LKiZw7dLpXLOkgnEFfS6n+9P999//+D/90z99pLGx8bpett2LMtw92L9jFSEmCIIgDC99FWJeVCTstnQbeDyeo3fdddf/941vfGNpdnb2pwFXbzttaouw9eBpNu6u4vUT56iqbaa1I4qRMNF1Dbeuo2samqah68kUmcN+LAsSloVlWpiWhWlaWJZFwrJwaRpej4vskJ9x+VmUFeUwpTSfuVNKmDGpiMnj8vC6ez3UAWEBB6tqeXrTITbuq+L42UbaIzF0TcPtduF2dZ1fP/drWeqcTZU+TCRM0CDg81CaTAMumz2J5XMnMrW0oM/1WaZl8crO4/zkz5vYU1mD3+vB4x5euwvTst5IhU4ozOatS6Zz++q5zK8Y35ennz1x4sR3PvrRj+avXbv2ayiD2HScAt4JbO/rsYkQEwRBEIabvkqAnwKf6WF+049+9KPvf/7zn/8ycEVPOzItix2HzvLYuv28uu8kZ+pbMC0Lr8uFO5lq1Dgf9BoKLAtM08QwTRIJlS5z6RrZIT8TS3KZPamY+RXjmD9tPDMmFeEfZDQonjB5cdtRHn15L9sPnaUtEsXnceFxuwZTtJ6WrvfLtFRkLR43MS2TvCw/c8pLuHpxBW9dWsHkcX1rABCJxnnouV386qmtNLZGCAW8GVnSaiRMItE4Qb+Hqy6t4EM3XsqSWWW9P88wfv6tb31r/T333PPv9Nxm6gxwM7CnL8cjQkwQBEEYbvpyf/00cF+6yYkTJz714IMP/vLqq6/+PqrvoiOWZfHSjmM89NxOth08TWfMwOd143G7Mutb0Y1EwiSeLEq3LIuQ30v5+DwunVnG8rmTWDh9AhMK++LMcZ6Xtlfyqye3se3QaQACXg+6PjJnmDAtYnEVbSrMDbFi7iTevmouK+dPxtOHKODx6ia+/du1vLS9koDfg8eVGTNY07QIR+N4PS6uWzaDz75zOdMnFvb4HMuy1r744ov/c8cdd3zh5MmTb+1h0xOoxvOv93YcIsQEQRCE4aY3hXAJqq2PY0F0WVnZE2vWrPnt4sWLf0QPdg17K2v46V82s3bXsWQBumdYIkODJWFaxI0E8UQCl6ZTlBukYmIhd9yylLcsmtrjc6vONfODP27g2c2HVZrQ6+5PAfqwYyRMOmMGLl1jQcUE3n3NfG68fCahQM/1ZEbC5KHndvKTv7xKeyRG0NcXK6+hwTQtOjpj5GX5ef91i/jEbcvICva4KKLqwIEDX77hhhveferUqXf3sN0R4AbgeE87EyEmCIIgDDe9KYU1pKkL0zRt67PPPvtf119//U9JY0sRTyT4+eNb+OUTWwlHY4T83lElTnqjtaOTyePzuf/udzK9LH1E5s9r9/H9P2ygrrmdrIBvWFZtDhWWBZ2xOAnTZHZ5CR+9eQm3rJiN19NzhGzvsRq+/vPnOVhVS3bPYmjIMRImHZ0xFk6fwD/+/Wouu2RST5s3Hjhw4HM33njjFSdPnvxsD9ttRKUp01pbiBATBEEQhpueJMMngPsdn6Rpp379619/7sMf/vA3gflO25w818w9//cC63YfJ+T34hpdPQ57RAPCsTiTSvL4+VffwdQJzu4bkWic7/7uFX7/t91vGJuOJTqTRfKXzijlM7cvZ3UvUb/6lg6+8Yu/8bdtR8kKeDMe1YxE43jcOp942+V8+h2X406fKo3s3r37rmuvvXZufX3953vY5cPABwDHVgoixARBEIThJp1ymAD8BnCq7ra++MUvfuVrX/vaB4GVTk/ef7yWT//34+yprCEn6B+VacieiBkJsvxefvzFtzG73NmDtq65gy/86Ame2HiQ7KC3J1EwanG7dLweF2fqWnj61UOcOtfC7CnF5KTxJgv6vdx4+QzihsnWA6oGzp1Bge1xu7CA9btPcOhUHZfPmZQuteoZP378DcuXL39gzZo1ZyORyNI0u5yPcul/2WnynnvuGZLjFgRBEIR0pFNI/4LqIWljypQp//fSSy81Tp069StO87uOVPP5H66hrrmDoM8zpKsfM4FpWkQNg29/6kbescrZI+zkuWbu+tGT7D1Wk/E03XBhWRbtkRjjCrL40ntW8c63zO0xxfroy/v49m9fpjOewO9xZfxzbgtHmV5WyH995mbmV4xLt1nnzp07P3XDDTdcV1dX94E028RRKcoXUickIiYIgiAMN0632gnAaygX/VQOP/jgg9/74Ac/eC8QsE2erOeO7zxKfUt4TIowgNaOKP/wjsv5yvtWOc6frW/lH773GAdO1pEduDhEWHdiRoJYPMFtK+fw9Q9eRWFuemuuV/dV8cV7n6I1HCXgdWf88w53xsnPCfC9z9zElQumpNusbf/+/R+/+uqr76irq0vXlmsbKrob6z4oQkwQBEEYbpxSk59HGV/auOWWW77/3e9+93YcHPPrmjv43A/WUFXTTMjvHZMirKMzxrLZE/nWJ2/A7WBk2tAS5nM/WMO+47UXpQgDcOk6HrfOnsoaNu45wYKKCZTkO7vdTyrJY8H08by04xgdnbGM2Vt04XG7CEdiPL/lCFNLC9ItqPCVlJQs9/l833z22Wfn47ywpBRlZ7Gv+6CkJgVBEIThJlWI5QM/S/6byo777ruvftq0ae9NnbAsuPt/n+HVfafGbKrOSJiE/B7++86bKSvOsc0nEiZ33/cM6/ecIGeMnmNf0TQNn9fNuaZ2nttyhInFOcyY6NzSsaw4l0UzS3l5ZyXtkREQYy6dWMLk5e2VzJhUxLRSx4UVuZdffvnkYDD43RdeeOFmVKeIVPKBB7sPiBATBEEQhpvUu+Y1pDFlvfXWW9dee+21b3Oa+8OLu3l+y5ExK8JArcj72C3LmD/NubXOvY9u4tktRwbVZHusEfR5CEdifPknT/PjP28iYTouLmTprDJ++qW3U5ATJBIzMmrQawFet4u4YXL3T59h3e4T6Ta94u67775p1apV6cyJVwGLhuMYBUEQBCEdqULs9jTb7fnSl77kw0Gkna5t4b7HNuPzuEe1f1ZPdMYM5leM58M3L3acf3FbJb94YitZvZifXox4krYcP3pkI1+771ki0bjjdpfOKOXeu24jJ+QjGk9k+CjB63HRGYtz90+fZt+xc+k2+/Bdd93VCZx12gXqh4ggCIIgZIzuQmwScJ3TRrfccsvOq6++2rHQ+Sd/eZWa+jZ8vRiCjlYsS61YuPP2FY6u8bVN7Xznd2sBcI1Qq6KRRtc1ckJ+Hlu3n6/e9wyRmLMYWzyzlG9+/Ho0TaV6M43f66alo5Ov3vc01Q1tTpvoN954400zZsw4kGYXVw7j4QmCIAiCje5C7Gag2GGbpne96115wIzUif3Ha3nutcOEAmOzOB8g3Blj1cIpXLPEuVf0j/60keNnmwgMshH4xUBulp9nNh/iqz95Om1k7Lpl0/nq36+mM2ZgZnjVoQUEfB6OnG7gX+5/jphDZC4YDM5/xzveEcDZxHUe4LwyQRAEQRCGgVQhZmPixImVN998s6Pl+sMv7KI9Eh+zkSLTsvD73Nxx6zLH+fW7T/D4+gNkBceu0BxqckN+nn3tCF/+8VOEO53F2IduuJQ7bllKWzia4aNT5AR9rN15jIdf3O007bvmmmsmAh0OcyWk6asqCIIgCMNBlxArIE2roptvvvlMSUlJeer40dMNPL/lCEH/2PQLA+VD9ZaFU1k2Z6JtLhZP8NO/vIppmmOuM8BwkxPy8dzWI9x939PEDOd6sC+/bxU3L581YmLM5/XwyEt7HcXi4sWLS0pLS51WXWQDZcN+cIIgCIKQpEuIzQGcol5NN910Uy6Qmzrx/NYjNLZFcI/RaJhlWbh1jXddNc9x/olNB9h++AwBh7oxQUXGnnntMN/+7VrHebdL518/+lZmTCykM2Zk9uAAn8dFVXUTr5+otc2VlJT4ly1b5vTB6sDkYT84QRAEQUjSJcRWOE2OGzcuunz5cpt5a9xIsHZHJV535lvbDBVqpeQEVjo4soc74/zmmR14XGNzAUKmyAn6eOi5nfxizRbH+eK8EP/84Wtwu/S01hfDhaZpROMG6/ccd5xfvnx5uqfavu+CIAiCMFz0KMSWLl0aGT9+vK1mZk9lDYdO1o/ZlZKgVvW94y2XODbr/tvWIxw8UYdfCvR7RNM0gn4PP3xkI09uOui4zcr55XzybZfREXGuJxtOXLrO3kpnK4tZs2ale5qTmbEgCIIgDAs6EEKlJlMxVqxYYeLgQv7KzmN0RONoY7R2Km4kKB+fz/WX2RaCAvCXV/ahj9GUa6Zx6TqarnHP/73AriNO9lzwqbdfxlsWTqE9Esuo2avbpVPb1E67Q53a+PHj031/33xmcYIgCMKIoaMsK5wafMeWLVvmwm76ys4j1Y6RpLFCZ8zgxstnUphjb2i95fXT7Dh8Fr9PomF9xed20R6O8R+/fon2SMw273G7+OcPX01hbjBtcf9w4NI1GlrDNHd02ubKy8spKXFqO8nYbQ8hCIIgjDl01Coxm3dSQUGBMWvWLFvTxXON7ZyobsLrHptpSdOyCPo9XLPEsZMTf163l86YISsl+4EFBP0e9lRW873fv+K4TUVZIR+/dVlGC/c1XSPcGaO+xe5UEQqFyM7OdnqaCDFBEAQhY+ikKU4uLy8PTpo0ybZa8kBVLQ2t4THrHRaLJ6iYWMQ8h56Sx6ubeGXncVkpOUCygz7++NJentjgbFz/gesXsXT2RMKd9qjZcKChkUiYtIftr+d2u/F6HbOQIsQEQRCEjKEDU5wm5s2bF9V1e/px//FzxI3EmK4Pe8uCKY4RvfW7jtPQEh7TadeRRNM03LrOfz28jhM1zbZ5n9fNl95zJV6Pm4SZgfW2GpgWjis2XS4Xbrdj+jnzvZkEQRCENy06MNNpoqyszI9DfdjRMw1jNm1nWRZ+n4dVC6c4zq/ddRyXg/gU+o7X46KmoY17/7TRcX7ZnIn8v6vmZSQqpqFS0fG4sxDz+RyDX63DfVyCIAiC0IUOTHAYN2fOnBmFCxe5mZZFTX3bmF1RGIsnmFFWyNyp42xzlWcb2XusBp93bNa+jSayAl6e2XyI57cecZz/2C1LGZefTdwY/uCTZVqOCwTcbjeBQMDpKY7dwgVBEARhONAB+9JB0KZMmWIrlGpu76S+NYxrjKbu4okEi2eVOfqDvbq3iua2iETEhgCVtta490+baG63r1icVJLLu986n0g0A7ViGo4/HDRNS5debxn2YxIEQRCEJDpgCwsEAgGtuLjYJsQamjtoHMNiRdd1Fs8sdZx7RdKSQ0rA5+ZAVR0PPLPdcf791y2ifHz+sNpZWBa4XS5Cfvvii1gsRlubY/BLhJggCIKQMRyFWF5eHkVFNkN96ls6iMYMxmJmMmGa5IX8zJtmT0vWNLZx8GQd3jHcKWA0EvR5+OOLe6hyKNwvyg3ygesvJTasdhYWLl0j6LevjozFYkQiEacniRATBEEQMoZjajIUCpGVZbMWoy0SI5GwIKP+6END3DCZUppPaZHNGo1DJ+tpaBm7KdfRisetU9fckTYq9rYr51BWkkt8mKJiKiKmpxVinZ32tClQNywHIwiCIAgO6IA/ddDr9eJ2u23+Ah2RGKZpMhYXTRoJk/lTxztaU+w6Uq0sOUbguC52Qn4Paza8zoGqWttcYW6Qt62cQ2SYomIWFm6XTsChJtAwDOJxW//LKFA9LAcjCIIgCA7ogC0f5/f7cblcNl3SEYmRsDLg/zQM6BrMr7CbuALsOTq2WzaNZly6TmtHlIee2+k4f/vqeRTnhTASQ7+C0rQg6PcSCtgjYtFo1Cki1gHYFaMgCIIgDBOO6iM7O9vR7LI9Eh2TUSPTsvB7PUwrzbfN1TV3cPRMA54x2rJpLBD0e/jb1qNUnm20zZWPz+OqRVPpjNmiU4PGTJgU5QbJDtr9ws6ePUtTU1PqcC1gL2gTBEEQhGHCUYhlZWU5Lu1vC8fGZFoykTApzAk61oedrmuhuT0yZls2jQVcuk5TW4S/rN3nOH/zFbNxu3SsIY62Jkz1uTvZldTW1pJI2GrTzqKiYoIgCIKQERyFmMvlHB1SbWnGnmAxEiZlJTnk59gt046eaiASNcZsy6axgt/r5pnNh2hsDdvmls0qY8akYqLxoS3aNy0oygs5zp0+fdpp+NyQHoAgCIIg9IIO2O5+DkXMAGO2jspImEyZUOAoIY+dbRzySMybFSvZ1zFuJIgbCWJx9ejqTVp1rpm1O4/Znuf3ebhq0dRh8RQrK7ZHQQGOHz/uNHx4yA9AEARBEHrAjUOTY4eUDQAuXRuTokXTYOp4e30YwJEzDf22rbAsi4RpYVkWpgVYFpqmoesauqah6doYjBv2ny7BZVrgcul4XTrZQR8Bvwdd03DpOrquYRgJovEEuqbx7GuHuX31PNu+VsybzP89tQ0r+V4OFZNKch3H00TEDgzZCwuCIAhCH3AUYobhbCcwFn22LFQ7m4kl9shIJBqntrEddw+O+pYFhmkSNwwSCWUQ6vO6yQn58Xvd+L1u3C6daNwgEjXoiERpj8QwEiYetwuvxz0mDXDTYZoWkaSp7/jCbGZPLmbhjAlMGZ/PhMJsinJDhPwe9KQI0zUNI2Em35840biBkTBt0dX508YzqSSXk+dahsRY1zQtgn4P5Q4C3DRNTp48mTocQ4SYIAiCkGHcgC0PmTYiNhaFmGXh97gpzLXXCrWFozS0hm2F+pal+lLG4ga6plOcF2J2eTFzykuYVprP1AkFFOWHCPo8BLxudF0nbiTo6IzRFo5ReaaBrQdPs/3QGQ6frCduJAj6vWNyoUMXFhDpjOH3erh68TRuf8tcls2ZSH62Y+NsB+wrF7sTCnipKCuk8kzjkAixhGlSlBtiQmG2ba6pqYmqqqrU4RrANigIgiAIw4kb1dJlYvfBRCLhmCJyj8HQjmla5IZ8lDgUbdc2dRDujKMlzythWnRG46DB5HH5rJw/mZXzy5k3bbzjDb07Xo+LUMBLST5UlBVw/WUziBsJth48zUPP7eLl7ZW4XDo+j4uxltw1EiaRWJzVC6fxuXetYOH0CcPyOmXFOZhDlPo2EiZlxTkU5doXaBw7doyamprU4cNIeyNBEAQhw7hx8E3q7OzEMAw8ngubJec4+DGNdkzLIhjwUpBjj9ycrW8hZhi4dAe/830AACAASURBVJ2OaIzsoI/rL5vBrSvnsPySSeRm2ZoO9AuP28UV88q5Yl45T796iO8+tJZzzR2E/B7GQqmdBnTGE/g8Lu756LW8960LhjUqahhD96YkTJPycXmO9WaVlZVO6fcjQ/bigiAIgtBH3EBD6mBbW5ujECvMDSX9nhgzaTbLsgj5vHg9di+puuYwDS1hKsoKec9bF/D/Vs9jdnnxsBzHzStmMXNyEV/+8dMcqqolFPSOejEWNRKE/B6+95mbWH3ptGF/vXA0NmT7siyYOdn5s9y7d6/j8JC9uCAIgiD0ETdwJnWwubmZxsZGysrKLhjPzwngcbmwsBgr6wJN0yI76HO03tA0jTtuXcpn3rkirc3BUDK9rJCffultfPK/HuN4dSMBn6f3J40QCdPEret877M3s3rR1F63j8YMaps7aGmP0NgaSRbmJ0iYJiG/h+ygn5Dfg9/noSQ/izyHaKNniKJtlmXh87iYPrHQcf7gwYNOw7uH5MUFQRAEoR+4gaOpg01NTdTW1tqEWF6WH6/HRTxhjhlfV9OyyA45p1RvXz2X9127sF/RPQuoa2rnbEMbzW0RWsNROqMG2UEv+dkBypOrB9MxsSSX7/zDjXzsO48SiydGrTdbpNPgS++9skcRFu6Ms37PCTbsOc7+Y7Wca2qnLRxVfSMt3qj36lo9qesa8USC91yzgHs+dq1tf0MVIEyYFoW5IWZOKrKfVyTC/v37U4erANugIAiCIAw3bhxqY2KxmFMfPopyQxTkBDnb0IpLHxu9GS0LshyaPgOOrW+cONfYzp7Kal57/TSvHz9HdUMbja1h4gkT07IwTWVroesahTlBZkwq4tYrZnPzitn4HFYALpg+nk/ctoz/fni9Yx/EkSYSjbN4VikfvWWJ47xpWazZcIBfPbGVg6fq6Ex2JvC4dFwuHU1TkUiP24Xf606mYC0sIBpJpG3wHRmifpOxeIJppQUUOyzQOHLkCCdOnEgd3oMU6guCIAgjgBuoBIzkf7/B0aNHueaaay7YOD8rQFFekFO1zTBGmmSbppVWiPVEeyTKxr1VPL/lKFsOnKKuqQPTMnG7XLh0DZdLx6Ppb0R/LEu9Vl1zmHONJ1i36zhrNhzgPz91g2OE7O+vX8RTmw5SebYRn0P92khiAR+88VLH44oZCe751Qv86eW9GAmLkN/DkpllLJw+gWml+eSE/MQNk5O1zbyw9ShHT9cn6/NUMtula+RnOVtedEYN9CEoPkyYJvOmjXOc27VrF9FoNHV486BfVBAEQRAGgBuoRtWJlXefOHLEYRGZBmXFuWw7aCsrG7VoGuSG+r76sbq+jcfW7+fJjUokddUbBf3n67k0IBIz8HncTC8roCg3iAW0dnRyrrGd+pYOLBPW7jzGnT/4K/d/9XYKU2wUsgI+3n3NAv79gZcYTaVinTGDWZOLuHpxheP8fz74Mn94YQ8+r4slsybwxXevZOmcibgcTHE/ctMSPvW9x9h5+OwF0cfxaVK3LR2d6IO0SLEs1Ypr/rTxjvOvvfaa0/C2Qb2oIIwQqeUjbx4ssKBw1SfxZI/DMp1NyDNEGTABCKEME0NAVvIRAMKoiHtr8r87gXpUScTQrVAafiYDxUARMAnIB/xAEPAAEdT5RVDndyb5by3Sx7dHuuwrTpMixNL04mPqhLwh83rKBBo4rphMpbqhjd89v5PH1r3OucY2fF43Ib+zQorEDJZfMokvvW8VsyYXv1FkbpoWNY1tHKyqY83GA7y0vZItr5/mf/64gW998nrbfq5dNp37n9hKc1tk1NSKxY0El8+ZRNBBHb6y6zh/eHEPAb+bSSV53HvXbZTkZ6XdV1bAS3FeKNks/rxIckoZdnTGqWvqGLQ9hmmZ5GX5mTOlxDZnWRbbttk0Vy2yYlIQhL6RBSwE5iYfM1CiZCJKgPX2s9pECZU6VDbqMLAL2IdaMNQxLEc9MCYCi4DlyX+nAeNRAqwvJFDnWQMcAl4DtqKut5ksBdEBF0oOxBm6cuQhw406qEpgZfeJw4cPk0gkcLkuTEGWFeeqnpOMlXp9zeac351ozOAPL+7ml09uo7q+laDfS04PETQjYVKUG+TfP34tk0ryLpjTdY3SohxKi3K4ZkkFz285wj//4nkeW7efd101j0tnll6w/fiCbBbPLOWZzYdwu/qfPh1qLMvC43KxfO5kx/k/vrhH1cNpGjlBH3lpUoxdbD90hg17qggko2GWZRHweigpsIu3prYwLeHooFOTsXiCS6aUUFZkXwVbVVXFgQO2LkYHUFFhQRAEJ0LAFcDbgWuBWYPYl57cXwiYAry129xB4K/Ao4xclH4CcAvwNuBywP6Ltu+4UMJtPErIvSc5Xgm8DDye/Dc8iNdwIh94BMjmvAhzJV/nJkZhPXBX+GFf6kRtbS319fW2J0ydUIDf6xk7zb81K22U5cipej7x3b/wzQdeprmtk5yQv0+RKdOiT42pr79sBn939TwaW8P8df3rjtssmVU2avzETMsiK+hl8rg821xNQxt7jlbj97rxed3sO36OXz2Z/lpxvLqJf/vVC4QjsTfSjZZlEfB7GO8QRattbCfSGRt0ajKeMFk8a6Ljfnbv3k1bW1vq8EuDekFBEC5WAsDnUKLoeeCzDE6E9cZs4GuomtV1KNGQKRYAPwB2AL8AbmNwIqwnKoCPA08CW4C7hvi1vMDVKCG5DFiMimIuJqUWfrTQpTr2pE7U1dVx9KjN2YKJxTkU5gZJpFn5NtqwLNVT0onv/O4VXtl9nJyQD4+7bykxt0unrrmDJzb2rT+0162Ey2sHTjkex8LpEwj6PKMi3WuaFjkhH8X59tTh4dP1NLV3vhFd9Hpc3PvoRr5+/3McPnXeE7ijM8aajQf46H8+SuWZBgK+89/7hGmRnx0gz6E/ZX1rmHA0Pih/OssCn9vF5XMmOs5v2LDBafiVAb+gIAgXK5ehfqTdixJImcQFrAKeBh5EpQSHi8nAT1Di7y5U9CqTzEUJwG3A5+k9tdsXLJyjbJ2MwrQknFeHB1GFhG/kc0zT5OjRo6xceUHGkvzsIBMKs6mub8UzBlZOWpbyu3Kiy16hv/i9bu7/61YumTKuR5+t/cfP8aeX95Ad9FFd30ZVTbNtNV9pUQ4FuQHqm8PorpFN9qq+nH5Ho9naxnZicQOfR9lt6JqG3+vh0Zf38bctR5kxqRC/10N1Qysnqptw6zoBn+eCb72RMBlXkOX4ntc0tGGa1qA6NhiJBOMLs5lfYb+WJBIJ1q1blzp8DIcfIYIgvKm5BXgYldrqjXZUHdQxlCfnOc4XrXeJgWzOpyPHA/NRaUlnx+kL+SBwHXAn8Oe+nkAf+TTwDVQ6si9EgFOouraTwFnU+UdQtVddhfvZqLq5cmBmcv+93WgnAT9CpS//EVjfj/MY83S9OTWovO2l3Sdff92eTtM01dR66+unh//ohgINomn8qbL8A2sz5NI14kaCL977JF957yree+3CC1JhlgVrdxzjPx54kaa2TgI+N+2RGEdO1duEWFFukPJx+VTXt414wb4FeN0uXA5qKBy1v4eapgryY4bBzsNnsVDvjd/rdkzdmqZFaaFzB4Pj1Xbfuv4SMxLMnzaefIeI24EDB9i3z5aBfxUY/AsLgnCxcB29i7Ba4G/Ac8AmlDjpz+pHHShARYOuA94JXNLD9uOBPwCfAv6vH6/T0/5+yPmarZ6oAV4EnkGlLY+iRFdfCaHOcymq7uwKen5vr0Clgf8RJczeFHQJsShqVcMFQszhxgWoVj2jNMJnQ0c1rnYimGZVZF/wuF0YCZNv/uYlnnz1IFcumEJJfhYt7RE27Kliy+un0JKixEr6jB2oquWdzLXta1ppARv3Vg34WIYOC03XHBuJ9pQydOk6AV/vItLCony8vf4MoLqhddCF+pYFl13inJbcuHEj4bAtWv23Qb2gIAgjy9Aai08Ffk96odAI/Az4KSoaNFBMlK3DK8nHf6CK9r8OXJnmOe7ka9egUpYDZRFK1PVW6/YqqlbsSVTEb6B0oOrAtgD3oSJkHwA+hrL9cMKPEooLUFG7sWTxMSC6hwv3Au/tPnnw4EEikQiBwIURhoqyQnxJgTHam39rmkY05uwxo1JwAxeU7qST/K4j1Ww9cBqXrpEwLdwu3RYVcukax842Ou5n1mR7K56RQNM0wp1xDCOBKyV9GBqAKW4quq47mtt2xgxqGtpx97FOz4munqJLZjsLsZdestXkt6IuNoIgjDk0LDNGtPoA3llXDZWP2L+hPLKcOAC8C3BedTU4YqiI00uoFOS/oyJJqXiA/0UFTJxvJj2zCvgjPaci96GE4V9Q9hNDzWHgX1Fi9rOourR0wvdjqHKpD6Lquy5aUoXYBVRXV3P06FHmz59/wXhFaQE5IR/tkRgubXT4X6VD09SN3omgzzPoFYsaqmast1ozt0vnRE0zze0Rm+3D1NKCpLC1+rQac7jQNY2OSIyYkcCXcj65IT8et2vA4tuyLPweF0UOHmLN7Z3Ut4QdTWH7SsxIsGhqCdPLCmxz9fX1bN5sM8/fj0N7r6GgrKzsBtSvveLkkJbycBrradxpXkddwBuSj2pU6sC+1FkQLkI0zUW4aivBKUvRXT4sa1ALyK4A3p9mrhKVVrOvXhtaosD3UaLvEZzF2GTgK6joWX+4AmUXYb9AKmLAfyZfv72f+x4I51CC7C+oYv2r0mz3LtT17gNcxGKs+932dZS/Rm7XQCQSobKy0ibEivJClBXnse9YDS7vaBdiGp1pasQGk5rsLy5dp6ktTE1ju02IjcvPIuTzEInFHeuzMoWuabRHYjS2hm09MKeVFZAd9NEZMwZ0jKaljHVzs+weba0dnUTjxqBEaNxIsGrBFEcxt2vXLk6ePJk6/CLDl1//APAW1EUzk1SjVh/9BnWBGxv1A4IwEHQXic5W4s1n8JfMxDIGlcH6OM4r9iyUhcVwi7DuPA18CJUmdWpGfCfwO9SPyb4wA1X3lk6EHUfVn41EqcYu4EaUGPt0mm3+H+rH5qcydVCZpvtd6wRK+V+AgxM5bpfO7ElFaZs3jyY0TSMSNRx9z/xed8buVLqu0n5n61ptc3lZgaQlyMjeN3Vdo6Wjk6qaZtvcuIIs5ZI/0M/csvC6dfIchFh7JEosbgw4zW1aFqGAN+0K1ieffDJ1yEDVPgwXETLzqzKVCSj/n0eBtcDqETgGQcgcpknH0Y3J1OSAf8gFSF+b9WdU2jDT/IX0hfnZwCf7uJ8cVDoy3Y/C3agFAyNZLxsFPoOKkKXjk8BXM3M4mae7EEug2g9cwO7dux2fOLN8dNQ19YamKff8rjY73fG43RntDpAwLU7X2U19c0I+xhVkjbiw1TSNeCJBpUMtW9DnYfK4POKJgZUNmJaF3+fB77X/6GwPx4jGEwP2EIvFE8yeXMzMycW2ufb2dp577rnU4T2oNN7FzFtQN5CPjfSBCMJwobk8xFvOkIi0wMBLGxagCvWd+OVAdzoEfAu1QtOJ1Sjj0t74L1IW4XVjK3ADDgGYEeKb9CzGvoW6rl10pBY2bU/d4MCBA7S1tZGdfWE93dwp4wiMgrqm3tFImKZjREzXtYwvNjh1zh5tAtXuaDR0K9CAQyedF8lMn1jI81sHVlZlWpAT8uPz2Fc5NbVFME1zwJ9F3Ehw5YIpjvYf27Zt4+DBg6nDz9G/JdhDgYW6KJ5F/d2l1n7pDmPd68G6j+moEoJClEv1TJzTDgHgV6j0xv8O6dkIwmhA00jEIoRP7iDnkhswzQH9UEznuH6GkWs11PX6DwFfcpibizKa7ckH8XbSp/OOouqvRlsz7m+iFkx83mHOgzLYfQtqsdVFQ+qXbycqbfPGeFVVFUePHuXSSy8U1ZNKcinMDVLfEsY9wkakPZNeKJqmmdH2QrqmcbbB1mIHgAmFOaOioMel65w814xpWTY7iaWzyvANsGDfsiyyAl7HBuxNbREGmlYwLYuQ38tVlzqbTz/11FO2pwC2wQxgoZafnxiGfU8BrkfVjsx3mP8fVC2GrBIVLjp0l5f2o+vxFpTjK5mJleh3rVg6N/nDqNqkkeR54IvYL5BulOVFOiGWA3w3zVw78D6UKeto5MuoVOo7HOYWolKU38joEQ0zqSGESlL8UQzDYO9e24JKivJClI/PJ26M/joxFflyMBjNsPLRdY2G1jBxw/6rrTgvxGhoOulxuzhR3cSZWnsKdeH0CZQW5WAMMD2pIn5De47RmMHMyUXMKrenJSORSLq0pC0FnyGcVkENBSeA+4HlKP+dVPzJ+eAwvf6bjSDKh6nrMYNR2sPuTYGmqVqxYxsHunLSfvFQpEsLZpLXUJExJ+b08LxPA9PTzP07Ixvp6w0Ddfwn0szfiXLtv2hIFWJNONhY7NjhXE4za3LRgG/KGcMCXUsXb8ms8NF1jaa2iKOdRmFeAN2lj3hUzO3SaWgNs+Ow3a8wN8vP4lllxNIY5PaEhrKYcKrVc4qS9RUjYXLt0ul4HNKSW7dudTIlfo6L1yAwjPr1/G2HuXmo1UfC4FmCEvNdj430vU2MMAxobi/RumPE6o6iufvteTguzfhoEGLNpBckzu7Y6nyc0pkAG3D+sTbaqEGlJ52UdR4qanbR4FTduCV1YNeuXY5Pnl8xYVDeT5lC13THXFqmA1C6phHpjDv2vizIDuJzu0dFnZhlwfrdJxznVsybPDCxqEHCMDEdF00M7DuUME3yswJcs6TCcf6pp55yej9HIi2Zaf4VdcFN5bNI5GYo8KJWrnU98lGNmoURxaL92Cbof1Qs3QXI3ittZEhn3ppuxdz7gBKHcRN1bRgS99sM8ETy4cSHgNIMHsuw4vQFtKVtDh8+THV1tW3DS6aUkBPyOUY5RgsWydSk05xlZTQCpTzNDFo67L50Ib8Xj1sfDdlJfB4Xu45W09gasc1dfskkSvL7v8JTQ8MwnYWYb4ARsc6oweLZZcmWWxcSDod54gnb3/BW3hx1UgbO9SFLUAW+wtBiIJ5tI47m8hKrq6Sz9kh/o2L2m5vCuU1H5knXYigf+8pJP+lXSj8FvDxUB5Uh/gNlb5FKLimdgMYyTkJsLykffHV1tWMD8EnFuZSPz8NwqHkaTWiac27SsgbhPDOg41CptIhDA22vx4VL1xgN13OP28XZ+lb2HbcvqJlQmM2qBeVpuxWkQ9Mg3Bl3tL/IDfnQNa3/Z67BTctnOk69+OKLHDhwIHX4UcbOr8HB8gLKobs7bmDZCBzLxcZoXp305saCcOUmME368THVpBmfQPpoWSb5Nqow/6puj6tR3lqpF9SVOC/YAdXrcayxg/Q+bh/gIonwO33JTuNQJ7Zhgz3T4XbrzCkvGbC3VKbQNeeImJnh8JMGGIbpKGJ8Hjcu1+iIiIESjC9tdzaTvuWK2f2O3umaRkdnzDEtm5sVwO/rX1o2biSYWJzLqoXO9j9//OMfU4fagL/2/YjHPJ04F+RenukDuQgRITZK0dweovXHiNYeQXf3uXNKulqwOagm2SNNJaoP5SvdHmtREf7Um++tafaxh7EXDevi12nGF5BedI4p0ql9W/rGyWEf1Eq60YxpWQT9HsdVk+FoZmu2uwxTnVouedw6HvfoKTPxedy8svMY9S0dtrmlsycya3Ix0Xjfg0uaphGNJ2hoCdvmcrP8+D39E2KdMYMrF0yhINtexnH69GmeffbZ1OGXgUN9foGLA5svIKMn3SIIw0bHsU3Kbb9vPjv7cS4K96KiLmMFP8ol34m/4pziGwv8DWfTWRcqUjjmSSfENqYO7Nu3j8ZGe83g3KnjyAr4HGt/RgOWqfyrnGjtiI7IT1vT4U9e05S57Ggo1gclDM/Ut/HyjmO2Ob/XzQ2XzSDWj5R0V/P1hla7EMsJ+ZIRsb7ty7IsfF532rTkk08+SUODzf7HFiJ7E2Bf+pp+pZXQdyQiNorRXB46aw/TdmQ9uqdP9fbbSd9L8qOMnXT+bJSdSiomI9vCaLBESB/NSyc8xxTphNhuUsK1J06ccHIoZ/K4XMqKc0ZtelJFxNILsUxb62uahq47reC0kkapo+ca79I1nnnVOYh084rZlOSH+uwjp2ka8Xgiad56IVl+L3lZgT73seyMGSysmMCyOZMc5x999NHUoSqUMeKbDac2Duka/wp9ZzTUDQk9oLt9dBzbRLSuEs3t1Df7AsKkFyp5KHf70Z36UczDuWaqCmXoPJaxGUImmQdkZfJAhoN0F5SzONSJbd682bZh0O9l1uTiUWvsagEhv3OtQFs4sxGxroBPqmM9qIUDoy2q6PO42Xmkmn3H7EX7k0pyueGymY4LD9JhYdHokJr0ed0U5YZIOIUKHUgkTN6+ak5yccOF7Nixg/Xr16cOrwHq+3ygFw9OX6iL1UNNEM6j6ZjRMG2HXlJO+1qv2vkR0q+Umomq0bp2KA9xGLgszfgBVI3sWGY7zqnVYi6CleA9rTh4lZT8q5MQA2VpsGaDbYXaqEAD8nOcDcXbI9HMRqAsC5eu4XbwzUqYJolRkpbsQtc12sJRnth4gHnT7J6Hf3fVfP66/gAJ03QURXbSt3gqyAn0yQYlbiSYPD6f65bNcJz//e9/Tyx2gdYweXOmJUEtb09lMIK0KLnPLNQFsACVNqhHRd8iqBVodrU9PARQ/TYLUC1dslC+XqBuPG2onnR1qJ56Q/UH5iRm7Z40gyMbZcwZQL3nhaiamGagBZWxqGFk635KUMcWQh2vF/UenwP20f/32436LP2o885CvdcdqO9WGHXufUL3+IjWHqZl12PkLXkvltHjR7QOeAzVn9GJ2cCzwC9Q/VtHozP93DTjTrWiY41zqDqxS1LGPajPZjR+Hn2mJyG2KXVg586dtLa2kpOTc8H4/GnjyQ74MPp8Q84MFir6NKEw2zYXNxK0dsQc04TDdjyWcpHPDthD5ZFoHMNIZLwJeW8EvB6e2XyIj9y8xPY+XjK1hFULynnmtUNkOZxTKroGtU3OQmxcQd+iy50xgxsvm0G+Q5F+bW0tjzzySOrwBt4c3mFOOBkeNvVzH4uA1ahowEKUOEhn0hQGjqHSIC+h3nd7PcPA8aC80FYDq1D96EpRIqUnqlHu5AdR0dH19K2HoIaqucniwmLueQ7bLUQJo64G7Xry4UVlGI734fUuQVkTrE7ubwqqYbsTLaj3eh9KQLyCs/Hn1OSj+/PS3ZincD517UOdT+pxL0E1i16V3N7J4mEfqpF2X8LlM5P7vAq4FPV5hlDCumu/Yc6L6uOo79ZaVNamR9Gvu/10Vu8ncmYPwYkLMeP20ohufBkVVUq3oMUF/APwCWAz8CIqpbmXfgjEYSKAs4krqMUIY52ua0uqEIOLoN1RT0JsO+oP8Y2GqJWVlezbt48rrrjigg2nlRZQPiGPg1V1uLyjyNbDsnC5dAodImLtkRhNbeGMdgawLAufx0VW0H5tDXfGiRsJnI02Rg63W+dsfRtrNrzOp95udz5433ULeXF7pWOT8FRcLp2GljCmadkEcGlhTq/1eqZpkRvycduVzi3WHn/8cU6dOpU6/BucV0S9GXCyqjjcx+euBu4GbqTvNVFBlEiZh1ptFgH+DPwA5Qc0UPyooumPo27w/WVC8rEiuZ8q4AHgXtK7loO6Pj6EEgo94eN8x4YuAdadX6Ju3ulYBnwB1YLK38trdZGLEi6XAh9ECZQfonqKdg/9fAz4l27/v5P07+GPgLd1+/9foLyqQNVK/QB4P+mFeBd9KRi+DNXC5u30XuMTTD7Gofp6Xp8cfx34GeqzdP6Fp2lYlkbLjkfRNAiU9SjGTqBc6dfgHE3uwoXy61qJcqqvRKX/XkV9zw/RN+E9lOSR3mnfqVZ0LJLux1NZRo9iGOjpAltLSrjPsixHPzGvx8XC6RMcm1mPJKYFAZ+Hghx79KSlo5O2cDSjETHTUnVXuQ5CrD0SxUiYoy4iBuDzunh8/QFaw/YsyPK5k7lyQTkRB3+wVLp6bTrZXuTnBOjNzjYSjbNiXjmzJtt79BqGwQMPPJA6fBx1UX0zkoWzEHNqfdSdyahU7kvAzQyuMD2AEmSbUF5A6W4UPVGCivjcR88izESlsE4DJ1Hp0nRpu3Lg31DvxepeXr+v5+9OPpy2T/dDIBslnDYCf0/fRZgTU1FC6gkufJ9TL8o95edSi2m7npuNsj/4CL2LMOj5PSsFfo967/8eZxFmoiIgNagIbrobyyUoMf1qcl+OaJoOWDRt/xPh07vRvT2upNyAEqN9/cECUIHy7/oWynx0G0qQ3Y/68bAcFeEbTnJwjgxbQPswv3amSPejyXnV1hiit/DVy6QYxK1bt467777btuGy2RN5+G+7sBg9a7tNS1lXFOWGbHP1zR1E45lNBZqWSUFukKDD4oG65PGMJi+xLnweN5Wn63nutcP83dV2/7wP3riYDXuqsCyrx5o7XdNoj8QIR+MEfBe+B1kBL163K9nuwHkxg65r3L46NSukWLduHa++astAPsKbs0gfVPpoWspYA/BaD89ZAjyMijqkEkWlHNejBG4D6sLoR6WzClBppstQN8juosKHuokvREUc+urnFgQeR0WyUtmBSg1tRd2w61Gpqwjq5uNBCcEKlIC7EeVG3l0kzEnu/92kXzWXKgLSXeK6ttO6/dv1306/LypQ0dqVaV63DnVD3wacQb3fLSjhUojKVCxC3eS7RwSuRUXnbk3uoz9COvVcuwTkD4G3OGwfRQmlOlQtV1fdYDqxtxwlyJ2Kq3ej0o2voCJd7cn9uFHfg7LkMVyDSmN2v1DORUUuZ6EiVHZ0F5qZoHnHn9CAQM9pyg3AlcA/Ah+m99R3Kl1/D5eiIqEJVI3TftT3dT/qb+k46vs6FASxC2lQ7+FYL9TvIp0Q6yl6OSboTYi9gvpjfOOPedu2bdTW1lJScmE6en7FePKzg4Q7Y7hco2N1t2UqURI5PwAAIABJREFUM9fcLPsPzbrmMLG4gd/bZ/flQZNIWEwoyMLnkL49XdvKaGhvlA6XS+ePL+7mtpVz8Kcc/8r55Vy5sJyXtx8jlMazDZS+isUTtHZ02tLFuVl+fF43iTRRwUgszqUzSlm1cIrjvn/9a5v5cgR1cX4zUgz8k8P4n0h/MbsO+F3yud1pQaXWfgkcofe0kwcVnfkIKg04vtvcpSjx9Hf0rW7vX7GLsCOoc1tD32qQqlDRvf8GrkD1ruu+CCkPeBAl1lJ7DhrAp1DRhq4/zgRKsP6w23ZRlPCt5nxUrHuN2OmU/U5DtaCa4nC821BRnqfoOW3aRXbyfL7IebF0Geq7fxODa+kVRr3/qb0Ln0UJ2LWoc+5E3Sf8KKEYwv49eVvymFILdjehUp5r6HlF73GUQPpP1Od4Nyqt2Z1voG7KX8ApCqm7wEzQtONPgEVg0iLMWFodVIeqGfsx6rv8LtQPjIH8dHehIoGlnPe96kT9gNiNShevTf73QNOIzivS1HXwYhFi6VKTvRcoj3J6U0yvowov3+DcuXPs2GEv95hYnEPFxAKioyg9qSJiPjwOqxRbOjozngo0LYuppc42Tqdqm0ddfVh3Aj4PeyvP8exm54j9B29YjMft6tGQVkO567e0238w54b8+NK461soUf3+6xbidhD5R48e5amnnkodfpqU7+6bhBAq0pLqdhtGiREnKlDpolQR9gwqvfkVVKF7X/6446i0zteBpcBvU+bLkq/ltJAgdbvPpoztRUVE/kzfRFgqm1Dp1tRjGo9KVaZioSJvaznfWmYD9qiihYp0bE/OvYpKN65HCc/uEcAQSvhNSdlHDPgSKkL2W/omwkDdZB9HpVg/xflo1PXA93GOkvQVHSXwujiJarR8E/Bz1Hm1Jo/dQEWxalA1U92F0HxUHVeqCPsWKkr5KP2zVdkEvAMl9FOL9e8kXVQM0HQVSGva8SjhU7v64jF2ArgH9SPiKlTfxz2oNPhg8KO+A29P7n8t6vv9J9Q5TO/n/uxpH0UE9RldDKTLblz0QiyCw+pJpzoxTdNYPLOsz6acmcC0LPKy/I4F+U1tmVphfx4NmDHRXiaTMC2qalsyWq82EHRd47fP7XD0Dls5v5xrlkyjo4daMU1Tq1VbOuylO1kBH163yzEmGI0ZzJlSwrVLna9NDz74IE1NtsWAv+rhVC5WlqIiLTc5zH0f5zYhPlS0K/WL+XPgnQyuLdQZ4ENcWCwO6gb0c3qOyN/MhfVDUZTQSI0u9ZcYqgB9d8r4u7kwetcTTrVcfa3v+jb2dGQN6nx/wOB83u5H3di7Igd3oWqU+krqn98qzkdwjqG+V/21gilCRVq7p48SnP9eDOZ8H0ClYFN7Rf4TzqlU4LwYa97+CNHaI2iuPmnVOMri4usoUXY5qi7tftR3aSjqsCaiIm8/RqUun0K9T/aiWDvpTiLO2G1tlEq697hrpfKYpS85xLWpA+vWrXPccNnsicmoxiCPaqiwLFsarYv2cCyz0TDTIjvk45Ip9hXGdU3tnDrXPCrrw7oT8HnYd/wcz6SJin38tssI+T09+IFpmJaF4dCFQeteUZNC3Ejwrqvn2+rKQEVoHYr0X2N0OukPtdcUqOL6m1A3u7WoOpxUHkOl5Jz4DOqXfnceRS3TH6oL+LeA/00ZuxW1Ai8dqW1lNjN0NiSdwHdTxvJRwmM4mcP5VYhdxFA32xeH6DWeB+7gfPSyr+LSiWWo1G0EeA8qQ9JfvoK9MfN/YI9KDpSXUatGu39XvcBPSR8lAg10XxauYD6W1e/ggYmq8/o96sfBYtR7dRsqsvo4Kho/mPqvEEqc/waVrv4yaqVsOtK9lp+e3oexRbrIl8ForuvpA33xmtiMCpO/kVPbs2cPlZWVVFRUXLDhohkTKC3O4Wx9qyq8HnE04mkidCqNlrkjiRkJZpcXM2WCva7wVG0LzW0Rx7TbaMOl6zz0/E5uWj7TJowWVIzntpVzePiF3WQ7rAw9T98VcDRuUFFWyG1XOJsn/+53v3OyrLiPvqXRMomGioY0MLhfbxoqxZOPWlE4mZ5XI3bdmJ1qhULY03+VwOcGcXzpuBtVb7So29jnUTczp2NLFRCpEazB8jLqs+heiL0ElRoaLj6L/WZyD0PfB/CvwP8AX+3n89JdEX/EwAwzS7HbdmxCCfOh5HnUud7bbWweKqLrWCdqGTGCFVfiyS7pzVusL5io1P1B4MnkWAAV4ZqB+t4vRC0qmEr///4no8oKPsb5+shU0qV4AqgaR3t7lLFHuuWuQ7XgYcToixDr6lN1TddAS0sLmzZtsgmx7KCPxTNLOVHdODqEmAZGGiHm9WT2+OJGgqWzJzqKrddeP0VnzOhFvIwO/F43+ypreGzdft5/3SLb/MduXcrfth6hPRIbkghfNJbgnasvcVxw0dLy/7d35vFRFHb/f+9udnMnEELCfcoRBAW5FBAVLFoP1FqvR7Fq0dqnttUq2latVlsfax9r609bD56qVAVtVRRPRBTBA7lE7vuO4UhIQs49Zn5/fBNIdmaTTbJX8Pv2tS/cmdnd2SMzn/ken28ZzzzzTPDitUhEJ9FwIEXqseRRJJUSKv1zGVIf1pAHkVRZpKkAHkGEVz0jkW7Gt222D273j/TBtghpRGgoxPqG2DYS5CEdow3ZhqQjo8GfkEhRWyJiIGm/1u7jzTSebWoCfyA6F0lPIlG7hmnf6cjvrfFJwDRxJCXjye2HaUTteq0aaSzZgtSrgkS0eiLRs1M4Js7Cnf86BIm2/Q75HBsSSoilEX3rjFhhdWYX2r0QCzcEsyB4wYcf2l/EnTa0V8IMrnbioKbWZ1sAnp3eFsuelmEiEbjThvayXb9swx6SXAkgXMPE43bx/HsrbQd49+nSkcsmnUR1bVPNWuGFIn3+AD3zsvnBRHvLildffZVNmywlTM8QuxE7iYiJFNmfh6SFmqrB+VHQ/S1IIXy0eLPuNRpyeYhtDwbdt3PUbivPA3MQy445SMF9tBiF9YT7BNFJV4NE+yytxM1g94e5AGsNVjgkIfVODVlO6OHNbcVAUp4N38PpWFPcmGaApLQcPB17YBqt6floNWXIheJzSNT5DMTKo76xYh3Nm087kIul4LrLSuwbCNyEFjDtjVANPi2dFpJwhCvEPiSoS2nRokWUlFgbe8YU9JQBzglQtO90Oiguq6baaxUF+TkZUhweg/ykzyeCYmhf67zGXUWH2bj7UMwjdG3B405i+74SXp7/te36aeeMoE+XDnh9Vgsmp9NhGy01TNPyXVR7/Vxx9kl07mAtcaipqeHpp58OXrwDqZX6LhFAuok+Bx5GDu7nIWKsKbpgFTeziK75YxViONqQUdibhAbnmycReqhxa3kQiVL9V92/obpKI0FwgX4tEt2IJnNpm30FtF6YD8bqY/dvojvl4hPE4b4eJ9b6R8yAj5Qug3C6U4lzQbOJXHB8iFw0jUCaDP5A8878D9DY47MU68VLPeHNj0t8Qhm37orpXkSBcOcRrUbU+tFc1O7du1m+fDlTpkxptGHXTpmc2DefT7/eQVqca56cTgflVTUcKq2kV36HRuu65WaR7EnCMM2ot1vU+vxMOqW/bXptxaZCSo9UN+m/lYikpriZ/dE3TD19CD3zGteQdu6QzjXnjOCPsz5uJDBNE5KTXHTMtFrelFfW4m0wa9PrD9C3a0eumHSS7evPnTuXFSssI/P+Sfht/7HGBO5GLADaqrpNRNSUI/YFe2l5N+EQGs+mM7HpkI4CXwbdPwFJj24IWv4Bja0T0hGRPc3mOdoDo4Luf4N0lUaTdXWvEe4svmBVUoX1ewmXsTSuh6tG/MeiiRdpemh4gRE0jcHEmZRMct7AaKYlW4sPsT35DImW/glr1LoeR936T5CLp1LkgqyPzbahZme2N0KNMtoZy52IBuEKMR9yYGxUFDR//nyLEAM49cSefLzSrlM+tjidDo5U1rC/pMIixHrndyA/J4M9+8uiGo0yDJP0VA/nhyg2X/LNznbZeOt2OSkqPsJz7yznd9dPtqy/fNIw3vh0HVv2Fh/tXDVNk+RkD52yrUKstKKaGq/vqJdardfP1VOG2w739vl8PPnkk8GL99PyVEwsMZEU2M4470c9wSmbg4g4iDZfI+m4+qsSNxIJCD7hf1y3bcNjzglIqmwWMjVhMzJQO9HxILMuG/I1rfNCawmVyHfa2qHI+5ELh9YQPJ9zHy0bG9RaVgXdPwURhLUAht9LatcT8eT2xfTHNC3ZUvYjRrIbkSYfO4YA5yOWIgEkihws+AmxrL2Rhf3ED2i7pU3caUnIynI189FHH+H1WktQTh3Si4zUZIw4+1g4HQ6qvX627LH6wKWnehjcKw9vlA1oa+oc4Yf2s0tLlvL52l0hLTYSnfQUN28u2cCGndYSkrQUD9edN7KRVYXfMOicnUaOzRD2Q2WV1NT6cTgd1Pr8DOyZy6Uhxhm99tprdl52/yL6EYa24CCxUgTB9RZ7iM04qGKsHVx2XZ9exFojuO4lHfgpItRWIgarj9dtewEi3Foz0zKauLEWTLem7qo1tKRbLviAvYfWG5cGe1+tJTZ+VsHCPJ+Gv3XTJDm339H5k+2Ah5ELuFA0HNIeqrP1ZNo2MzYR6Ib9BUUNsRH4UaUlCmA58oaPOnavWbOG9evXM3x44+65AT07MaBHJ9bu2B93keFwOFi5pZD/mmLt8DttaE/e+by1kffwMEyTqRMKbNfNX7aZ4rKqdtEtaYfL5aS8soaZby/j0VvOt6y/cHwBr3y0mtVbi0hNduMPGPTMyybZJgK5s7BUJh0AXr/BNeeMsP1cqqur+ctf/hK8+DBiEJroJFLsM9hHJVYpXS/Wk3uorq4vkNqtJ5AW/mDy624N669qkN/DIaQrcVPdvzsRU9JCYt9llYzVAypWn3dbXqctRdDB8xlHI5MJovk3YGL9nD2IFxoYftyZeaT0OBnT3xYf2ZhzG1LQbzfzcjLSBFJCaCFWX6+3NSp7FxvGYl/SsZfvmBCrQPLvR4VYIBDgww8/tAgxd5KLcSf1ZtWWwrgLMU+Siw27DlBV6yMtyPdq4vB+5OVkUF5ZGxUPr1qvnwE9cvneaGtE1ecP8P6XWxLexLU50lM8zF+2leUb9zJqcONShCSXk+vOG8Vtj4s7QcAwOXlAcIZG2LL3EA4c1Hj9nNgnL6R4nT17NsuWWZrbnqV9HGQSSYgFH9RbO+OupdRgbQhoamjvPCSNNwOxuuhH0zV2KUgasCtWI9H6WpoliGv5AqJj1WG3T8FuxNFsimhIS7oyg0NEbdnHDkH3uxO6xieaJFMn9E3TJK3fOJzJ6Zi+GpDfSD6N37cDidxF9wq9ZexH/g6us1mXj5g4v4vUBDby/KwjA2niaQ/HyFCcG2L5Sto2nSEhaKn6sAz0mz/f3sB80in9SUvxxD096U5ysuvbUr7ZEjzPF7rkZDBuaG/bkT2RwOsPMPX0IWTYFOJ/uW43G3cdsI0OtSecTgder59n59l3/k8ZPYCxQ3pSWe0lLdnNKQOtx+Jan58te4tJSnLiNwyuP28k6SnWz6yyspLHHrNYGhUhBq5KywgON8ZqDIofa21Uc14yexDz15OACcCvkRqxNUhtW7gHmQykcPlKJJW9FhnvFE3/MJAIXPDJIlaWAk25sTdHa9OSdnMyTOKXC5TP2uHE07EHHCvS/xFiWbK8wW0ZUoaTaJYPrzaxrv6gug/rHNR6Lo7s7sSUDoiQtGNRLHckWrQ0XLUUOSgebSNdunQpW7ZsYcCAxlGfIX3yKOjdmW+2FcU1KuZwSM3R+19t5lQbH6+rzj6ZD77ajGGaOCPof+YPGHTJyQjpCP/vj9fiCxgkt9P6sIakpbhZvHonH6/czlmnNO5YdzodXD1lOIu+3sHQvvkM62f1l9y2r4RdRaX4/AHGD+vNBePtP7MXXniBtWstc7yfpv20LydSRCw4AhYr00cPYjLZkLIwH1uDdEw27JrsgnRd9kVGCJ1Udz8P+1ROQzohUwfOQ0bINFWL0xa8yHtsGPkLjhhFi7YIsdYW0JpYB03PRbyyYvk3UC8IZTSTaWAGGunhMuzPgdnI93MkyvvXEjYivyO79vqGv/O3sJ81OxkYRNtmx8aL87E2u4B09TZn09MuaKkKOAQspsGMuCNHjvDOO+9w6623Nn5il5MzhvdlxaZ9cU9PpniSWLJ6J8VlVZaOvREDuzF5ZH/mfbaJrDRPxC7Zqmt9XDzxRLrlWs9v63bsZ8k3O21nJ7ZHHA6ZIfl/by/j9JP7WNK8Z47oR0GfPMaf1Me2Q3XV5kLKKqtJT/Hwsx+cajukvaysjMcffzx48S6sMwyV8CgOuh8rYZCCVYi1JS1aVHf7rMEyFxL56omIsmFIh1lPpNYs+I+yK8c81IJ9ziKBF6swiVVDQUusC4IPf20RTcG1aeU0/o5iihnw4+7QjaSsLpjGUWu14L+BetyIGLPMTosjZchnaPe7adgJ9n7ddsG/8VTgeiSa3N64PsTyz2jeb61d0JrCqDeDF8yda+9LeMbwvtI9GXIIdGxwJ7nYfaCM95ba1/T95KKxdMxMCTmXsqUYpklqspuLQtQ5vfbJWsqranE5EylA0jbSkt0s37iXBcusZQjuJBe/umIC548bZPvYj5ZvpabWz4XjCxhdYO/ZN3PmTDsX/SdpXzPUEukLDz5R5tHyC7PWkIpV9EU68hBARPoSZGjyHUjUq360zO1AcK1CElJraG1vbjs+rN18JxL9TraOyMzF1tKW32uwyGnrqKU2YpBxwkSc7rSGJq6hmhFSiN2FSbjUEFo4NhRdO7GfRQkyq7K9eYqNI3RaMloR7JjTmgPBAoJSQV999RXr1q2zbFjQJ48hffKo9bXV3LntuJOczFmwmiNV1lKYQb06M/3C0VRWR6bmr8brZ+SgbowcZK2HKjxUzofLt5J6HKQkg3HgYPaC1bZ1gWePOoFBvYI72mHznkMs37SPXvkduGmqZRoJALt27bLrlNyC1Pe0JxJJiAWr2l6IT1e06YNV7OyMweuCnMy2IQOxz677/4bkA1dH6bWDO9pOwmrxEGmG0di0N5YEe9L1pflawCjiIFBTBmajbGsoJ3on4m2XSLgIPfQ6WFA+g309XmfgzkjuVAy4F/sLxK3IpIbjgtYIsRJkJMNRqqureffddy0bOhwOJp3SL+Tg7ViS7E5i855DvLXEvhnmuu+PZPKo/pRXtr1m2TBMvj/WPvrzwVdbKCo+0u67Je1ISU5i2aa9LF4dfrR43pIN7D9cwY++fwq9u9g3z/3pT3+isNDi2/k32teMsUQSYQAraFygn4aIg2gT5HROGdL5FGvWAz/BOgLoYqLzXX0RdD8bGWcTTS6hZcf4SKYml9G4xqwPoQ05I0k6EiHKRD7jdACHK4nydR/gKyvE4Tp6Xt9FaO/Bc6K9oy0kmdDdxcGedIsB+y46uBHpsmwPXETobskniV3ncdRpbWjcMn/srbfesp3bOOHkPmSlpxAw4i/GPG4Xz85bxr5DweUasu7BG6cwoGcnKqu9rT4C+QMGXTpmcMaI4DFr0h349mcbcbejAd8tweFwYAZMnntnRVjp6P0lFbyycA0jBnRj2jn2F6Bffvklzz77bPDilcg4o/ZGIomxzVgjURfYbBdpzg66vwbrieQG4HfAfYih5S+jtC8fYe0yyyc6xrsrsF44/CwKr1NPPnBNCx8TSSG2hsbpXw82cx8jzBDEwmFj3W0rR387DjDNuvqwo2/rMGKNYsdomm/2iCW5hI4o2hkx34f9nNEUpK7W6qqdWHQGLC3ydWwC/i+G+xJ1WivEFlPfiVLH0qVLWbnSemE7qFdnhg/oSq3N4O1Y40lyse9gGU/8x36kXn7HDP72ywvpnpdFZY2vVUehGq+fccN6k59jPZav3FQolhWe41OIAaSkuPl87W7e+NSaqg7m35+sYd+hMn552TjbWZumafLAAw/g91t+Ow8Se1POSJBIQqwWa+v3xUTXymEg1o6uT7EKgBuA3wP3A3fV3aLlehycQsshOh2k+7HWtEwk9BV/W5lB2xsC2vJ7rSAocwLcRHTTk5ch7utdESf2XBqOPHLYuWqEnFuaV/d8icIorF509dh54S1FLFrsGA78NRI7FUX+Ruhj0e0kVkdrm2mtEKskqLvI5/Px3nv2naQXjh8c5yH3x0hP9fDmkg28+4V9F+/Anrk8edtF9MjLtq0na44kl5NzTrWPwM//ajM+fwBHBG0yEg0HUo/31JtL2V8SOnK8Ze8hnp67lEvPGMr3T7VP486ZM8fuN/Ua0gqvtJ2naexvlYmMD4oWt9C4zqUSKaYPJviKLpno1TpVBd2voXUGkeEc4Z6kcTrYgUQn7KYGtIWLgVub3Sr6PEFjz7ihRE/cZAPXBi3bjgQNmuLTJtbdRdNmw7Hk9BDLDwJfhVj3W0Jb+9xYtz4RuR+ZqGHHc9j4mbZ32tK1MxdolG+cO3euXfSCM0f0p1d+B3xRnusYDk6HA6fDwYPPL2TjLvtazYI+ebxwz2WcOrQXZZU1YadVvb4AvfKzbU1LS8qr+HT1zuPCN6w5kt1J7Pz2MI+8HPoYd6hUrERuv3KC7frS0lL++Mc/Bi+uRKJh7ZVEU+ArsdaS/BIxTY00U7CKvDewH08SPLg5h+gNLg5u0z1M81fbwd+ji/A6TtdjHUzfB3iZyLnOn4c0sdSH3VtSExLJ1CTI7yv4SuphWj+EvCl+jkxdaEg4dURLCS1k+iBGwvGmM6HLBhYRekZsEXLxE+oi4Q/Ar9q2axHnFiStascyEm9/I0JbhFi9E/FRVqxYwSeffGLZsENGCpNG9qcmAdKTAMluFyVHqvjt0x9w+Ih9hqt7bhb/uONifvaD03A4HFRUe5udEuD1+RlT0JPsdGv0fck3u9h7sOy4LNK3IyPVw7wl65n9oX0JxtghPXnx3itCFug/8cQTdp24/wBWR3RHlYdpHLXwIF1X9rOoWseguudsKFaqEINPOz7GKoZuIfJCtiPWgvn1ND8WKDhi5iZ824vfYK1LGg98gphutpYkZCbhXI7VNq1HRF48uZ/GYqgbUt8TyfRv/bSFhmwnvDrSWkL/DkG+rx+0cr8ixS9oOLi8Mc0Zmr5N6ItXB/Le72/dbkWcB4D/F2JdIdLRHKtRbDGlLULMD7wevPDFF1+03fj8cYNJT/XYFvTHGhOZkbhmexG//Ns8yirsj7vpKR5+dcUE/nXP5Zw9sj/+gMGRqlp8fsNyiWEiacmzTulv+1wLVwZ3yh/fOBwOkj1u/vLqZ6zdYbX6cjod9MizN/3+5ptvePRRy7FxK/C/bdilNGT47feRbrn7kdboq4lNNxckXkQMxBTxgaBlBcAHyOfVVsYgJpPBURA7QVLPTkSMNWQScHcE9qch92H1t3oljMeVYo002Xuv2D/2eqyeUCcgn/nrwPcIbVUQTBqSivwUseWoryMqA6YhY5zCJdIRMZDo5m1ByyYjXleREPsjgZeo646sw0AaIcI9ac8l9AVeMmL2G68uygmEjsrtJbRnWEPuo2lReh8yQileXm89gf8gx2M7DiAp7S0x26MY01ZDwbkEXbm+/fbb7NplTUuf1L8LIwZ0o7o2MaJiAJlpyXy+dje/+Os8DpaGHqs2rH8X/n7HxTz3mx/ygzNOJCczhapqL+VVtVTX+vD6AlTVeOmam2U71PpAaQUrN+8j2X38pyUb4klyUl5Zy+//uSBsjzbTNPntb39LaanlGDqTps1bXchJKQ/pnpqC1EE8jNQUrKi7vQs8hRx8HgBeRATB/xEdM8+GJKIQA/gfrFfWwxDPwOm0rlA+B6mxeR9J8TRkNmAZkxDE77HOpHwQ6aRqq9lmMvBHrN2YXxG67b8h+7B2et6ONCOEw9dI92hwo4ALsZyYjwioV5BIz7WI2Dqz7nFXICfnF+q2ewM4rcHzHKrbZiVt6wCN1O91JtZ5sGcgv69L2/C805DfV3CN3e/rloeLl9AiAETkvYJcwMWSMYhACRU9vJvQaclgfoZN4KQBlyFR2UvC3bkIcRWSXg31O9iEjDiy77A7TmirMtiE/OCPFmAWFxfz+uuvc9ttwRdBcP5pg/hsTWKNBcxOT2bB8q088doX/P7HwZ31jRld0IPRBT04cLiCFZv2sWZ7EZt2H+JQWRUHD1cydkhPcjKtF7JL1+2hqLiC9JTjY6RRuEjk0c2qLd/yx1kf89BPmr+onDlzJu+8Y1uL+Qvk5FKGpDqqkd+vG+nEykCKzTsgYqwlH3Ya0qk3Cvmj39uCx7aERBViAeSkNgupMaqnO+I2/1NEsH6ERCaDC9zr6Yw4xk9CxqDZhYefQ+p5mmMlErUMLhS8Fek0/BcSDdhGeB20DiQqNwXp3hsZtL4CSX+GM+i6FIkkNjx59EJOFv9GoiuFSIrz5Lp9DD4J1ouxx4HLsV4U96u7XR7G/jTkY+R91He1t8U3KJK/118gv5s7GiwbggiNj5Df2ec0P1YoH4mo3Yi9HcZDWCO84TAPSdPdHmJ9NnIBdxESzY1miUQq8nn9mtAXHR8ikcBwqUGi/08hw87tGIT8Tt9Asg/RFD+TkffX9ElXUpXBZsitxSRBvcci8Yd2PpKHPsro0aP57LPPcLsbnwuLy6u4/N6XOHC4MiFqpRwOqKjyMqx/F5741VS65GS26nl8/gClFTUku11k2dSH3fr427y5eD2Zacn4/AEChkmy25UQn0Es8PoCFJdX8ccbp3DDBaFrrrdv387EiRPZty+Ux2JMmEvdVWFr0+jdu3d/Bqn7GRK06lSsvlWJRDIiDG4Ksd5ATvDfIvPsDiMitgMigvsRuujcQKKQf2jhPj2IdHfZRe99iF/UbkQgFiMn+yokipFXd+uIiMRh2EeI9gPX0bIoyngkHRhOVuEpmu5GHYeI06kfyUi3AAAgAElEQVS03t/pK6Q4/WUa+0fdR+MaoC/qXs+O2cCVDe4/T+g5f63lF8CfsR9eXYoI8B1IxPEA8l46IGnMgYjQt0tpliKRsJC2DKYRoNP4H+Pp2BMzEBxsBeTC7jma91+rQCLrs4GFWOeItpa+SAr0J4jFRCg2I8X7rUnVOZEI+AyaPv8byN/DC0jEKhKj5LoDZyFR9lBji4I5jAi2Z1rwOnnI8SD4hF6DHH8qSZyLYiewLxI7k4L8cTf64SxYsIDJk621p4/OWcw/5i4lKy1atkDh4QAqarz0796Jp2dcQs8Q9UptJWCYLNuwh9RkN06ng937S/lq/V4+W7OTPfvL8BzHgixgGFTX+ujdpSNnjejHuacOtO0orefHP/4x//xn5Hxas7Oz6dGjB126dKFjx474fD527tzJxo0bqa0NaU1iIFfai9sgxJ5H2s2Du7jG0z5C7Dcgo1DsfUVazvvIyXdhKx//fSQyFumxMwZy9X8vYD9yo2l+iryv9Ga2+wfw32E83xBErE9Cphx0rXvuYMuPUiQy/C3ye/oAOQbbRb9+hwiUepoSYq/TODU1h9A2Am3hNOTkOjVCzzcPiVI1aV4YhhADEYiPIlHFcNiCREeXIxcpO5BuxeYaPrI4NoR+EPKdT6B5u4y1SPNAW+ulLkO8usKp09uLvMdFSCR3JyKSm7JByEKiiL2Rv9uzkO+9tXVojyK/mXBqm0IJsURlZSSKlmqQEGkjIfbiiy/aCrHLJ53Ea5+spaLaS5Ir2jNv7XEAVbU+uudm8fitF4YUYV6vF4fDYYnstQSX08GpJx4rYRjWrwvnnzaY8soa5i7ewMx5y9h/+PhKWzqAaq+fFE8Sv7xsPFdPGUGHjOZ9HG+99VaSk5NZsGAB27dvJxAIz+4kKyuL/Px88vLyKCgooKCggJNOOokTTjiB/Px8UlOPncf8fj8rVqzgrrvuYtGiYD9TQK5QzkOiLK3No29BTp6HkAOHgRy02kvHzz+RFNv1SBpjGC1L9YKk5r5ErmQ/aOP+vIecBC7iWK1UW3zFNtc934s07SPVHP9AhM2NSPdlT+Tg3/DA5sc6YD0U6+tu/0R+Pzl1/6YhkbwqJPpSgQiycNKowSKxqTTuSkQImMifcbTSb18g3+U5iJgdR8vnbn4LvImkqCN5ceNFopOrkOhJc0JlQN3turr7JXW3GuSzLkO+syTkt5HJsVKKPFoWAf0UKSHY3YLHhOLfiHh8kObnq/ZAykKuqLu/H4lUFdX9W4VEp+sjzx2Q95VO5Oap3o58ztMJPSO0vVIZqfBcH+RLPToSIjc3l2XLltGnTx/Lxg/N+pjn3llBZnp8omK1Xj9ZGSk8PeMSTupvL9D9fj/XXnst5eXl3HPPPYwZMwanM/LC8dvicn7z1Ad8tmYXmXGOEkYCEWE+8jpk8OjPz7cdfN4clZWVbNmyhR07drBnzx7Ky8upqqrC4XDgcrnIyMggNzeXTp06kZeXR35+Pp07dyY9PT3s76iyspIf/OAH/vnz59tdjLwDPGaa5kct3nmge/fuLo6Fvg3kxBb/duHW4UFSJuORaE0X5Gq3Y92/1cjBuBQ5AdWLnHVYOwMjRR7S0TkA6TbsUbcv9aIlFRG+lXX7V4qI6q1IRGEdka8VSUMiABnIZ5SDnIR3IyesUHV10eYZRCjW8xrwwzjtSyjykBmkk5Hvs2PdLQdpYKiPABYhEZnFiEhs0e8rzIhYQ/pwzFzULpUaK3YjTUczsTawRIIpSOF/tGefNsUBJBV+JtKkEIrVSOq4qW7g9hYRWxTJPOk/CaonuPfee3ngAWvd5LZ9xVx532xqfYGYR8V8/gAul5PHb72QiSeHnuZy88038/TTTwOQlJTEqFGjuPTSS5k6dSoDB4bbHBUeFdVebnv8bRZ9vYMMm1E/7QmfP0B6qodn7vxBSJGbKCxZsiQwceJEl00KchHwqGma82we1izdu0fKmzNhcSARMg8S8fHStqLwSOJETt4m4aUxjnfm0dgM9FlC1wAmCg7kt+Wp+38vIkDa5AjeCiFWzwikbutiot9Z3ZDdSLfmYzSe2xkNHIhtyo1IKUBz6fZIUS/A/o5cLOUigvOiZh5zA6Ed9vORzytR6sCa46tI7ugZSPvrUXr27MlXX31Fly7WE/LvZn7I7AWrYxoFChgGPr/BQz85h4tPD66jPsadd97Jn//8Z9t16enpjB49mjFjxjBs2DD69+9PXl4ebrebHj16tDpqdrC0kmv/8Cq7ikpJaafu+yZQXePjwelnc9mkk5re1jQxkUkH8aKyspIxY8awfv364FWvAH8zTfOL1jzvd0CIKa2jvnHAhQhZP83UNbWRdCTV2dDe4bdIsfZ3jjYIsXpykajdBUi9Uy9anrJvCgNJ6X+ApF0XEblGgJYwEOlmvADpLo70eLE9iFZ4H+nyDRaZSUgEMFQHK4gwvxP75oysuuWpWC8Qg7MTZtC/dv/f1Lq2bu8ANkTyLOhAPtxG4c2HH36Yu+66y7Lx+p0HmPbAK/gNA1cUUn7BGKZJdY2Pu645gxvOD92599BDD3H33S33jZwxYwaPPPJIyPVFJUdw4LAdBl7Pp1/v4Gd/eROXyxlXgdJaqmt9jBrcg+fv/mHI73TPgTIWfb2dj1duJ79jBrf88DS6dYrGjOXm8Xq9nHrqqaxaFTxRh7uBZ03TbFUtggoxJQR3An9qcP8IUqgdrWjHWGAJx2yKTKRo2rY48ngnAkKsIcnI7MwCJE0+BEmRp9TdUoP+DSB1Y7UNbhVI4fs3SLPIzrp/E6mWtCvSqXoykjLsg9SA5SDpeDfHxKiJvC9vg38PI8JrI/LetiNlTGVhvPZPkIaCpqI1MxFLm3DqJROWSIZeTMQUs5EQe/bZZ5k+fTqdOnVqtPGQPnlMGnUCcz9dF/WomImk/35y0ZgmRdgzzzzTKhE2ceJE7r3X3g/QNOGpN79k1vurSHI6GTesNz+9eCx9ulqbYyYO78vE4f34cNmW9pmiNOHSM4bairDyqhr+MmcJ7325mZLyKlxOBwETFn+zk6u/N5yppxdEVJCVHqlma2EJ3XIzQz7vwYMHKSwstFu1lOOvIFSJP8HDzDORk9ubUXq9a2h8jC/CaiKrtI5ajplEN8RF41rFhjWL1Rwr4q9FhHii145+W3db0GBZOhIdTEdEWDLyO6sXYA0FZwmtr2t7GhGnzxO627Iv7ScFGZJI58D+g/iTDK1fsG3bNl566SV+8QvrlIYfnXsKHy3fSiDKUbHyyhouO2sYv7oi1AB7GVh+yy3hdiwfo3///syaNYvMTPu6wEdeXsTTb35FeqoHB/Cfj9fw5brdPD3jEgb3tjaUXDl5GItWbcc0TRztKCrmDxjkdkzntKHBJteShrzn6fm8+dkGOmSkkJWWfPToU3akhr/MWcysD1YyclAPThnYjRP75JHXMYOc7DQyUj220cFar5+KGi+V1V7KKmrYf7iCvQfLKDxYzoZdB9m2r4RzTx3A7Vc2/Z3v32+xx9mO9eCqKJFgHXJiymmw7HKiI8T6YPXDWohEKJToEUAiXQlpHBohwu3YjQQfIOngfyENHQ1ZjDSetPvPOhpn+p8BTzRcUFBQwJdffklWljUy8YcXFvL8uyvJilIHZXlVLWcN78fjt00lNdledy5evJgLL7yQsrJwoqXHyM7ONt59913nuHH2tjwvvLeSP7ywkPQGYsJRt08jBnZj1j2XW+rBqmt9XHrPS+wuKsXjbj/+YtW1PsYN683//do6qWLx1zuY/sjrpCW7Q4pLf8Cg1ufHMGQoe0aah5wsEWLJbhfJ7iQChknAMPAHDKprfFTW+Kis8VJR5cXnD+D1B6isrqVLpyxuv+p0rv7eySFfb8+ePUyYMIHduy2d4P+LXEy0xdC1VY9TvhO8QmO3/EokhRjJWjEHIu4ubLDMi3S9WvLw3xUinJpUYksnpNGk3uduNTJhoyhuexRBolEV/jJSZHe0JXHDhg3MmTOHm26yNuv8+ILRLFi+lUOlVREVHg4kHXlin3weuvmckCJs7dq1XHXVVS0WYampqYHnn38+MG7cONsc4sKV23h09qdi5NpADJjIjMtVmwt5f+kmLj79xMbPm+zmxL75bN1b3K6EWMAwbdOtAItW78Qwmo7wJbmcJLnko6yv59tdVYphmMh/ja8aHA4HTqcDp0NuBiZOJ/zgjKHcefUZ9O4SehxhdXU106dPtxNhVUgYXFGixT9pLMTSkQvX84mcxcUjNBZhIALwOyvClHZPMRL9egzp7ryY40SEQduHfttxGJtxBI899hiHD1uj4l07ZXLjhaOp9UW207za6yc/J4NHbzmPzh3sO3H37t3LVVdd1eKROoMHD+add95xXnzxxbYibNPug9z77IcEDDOkPYfDAYtW7bBdN7RfXqujMfHCAXQNUYu189uSFtmUOB0OXC4nHreLlOQkUpPdpCW7SW148yThTnLhDxhU1Xo5sW8+f/3lhfy/X01tUoQFAgFuvvlm5s+3ne38PNHtYlOU+Yibf0POrFsWupU7PPoj7vh3BC1fT12UV1HaMQbwS2QCwc747kpkiVZh1kyCPqiNGzfyxBNP2G58xeSTmXBSHyqrvRHJlfr8BsnuJB6++VxO6NHJdpuysjKuueYa1q5tyhfuGCkpKUyYMIGZM2fy5ZdfctZZZ9nuakl5Nb9+6n2Ky6qatKFwuVzsL6nAMKyCKzM1mXZUHnaUnEyre351rY/DR6pxOiPzhkwkjXmkqpZar4+BPXP5w43n8NLvruC8Uwc12W1aVlbGFVdcwaxZs+xWFyFjNBQlmpjAr5BROA2ZgoyReRwRZvYHLit5yInpKWTe5CVB6/ch42wiMStQURKBcCdVtBuiZVh1CGk7fazhwr/97W9cc8019O3b2Eg1yeXkjqtO50fb9+P1+dtk8moYJv5AgPtumMy4Yb1tt/F6vdxwww2hRtwAIrz69OnDySefzFlnncUZZ5zBwIEDm/QJ8wcM7nl2Pmu3729UkG67nwGDtFSPrUAxTOm2PB4IGCYV1d5WvR8TMA0Tv2Hg8wcwDRO3O4n8jhmcNrQX3z91EKMGdw/Ld23Lli1MmzaNpUtDztz+PVKoryjRZidiWPkfxLOpng7IeJ2fI+aWezg2ALsKqSfzIF5kHZA5fgMR2wQ7PkFqdi1GeYqiJA7RdA59DnFwLqhfUFxczIMPPmg72PnEvvncdvl4fv/cAtJTPK3qGDRNqKzx8osfjuOHZw4Nud2MGTN4/fXXGy3zeDwUFBQwbtw4TjvtNEaOHEmfPn1ISwtvFJhhmDzw3EI+XLaFzGZEmGlK0fm5YweEeK5EMSkPHxNsh5enJidxysBuFBYfqRNkJk6HQ75fBzhwACamidSCmfL5uBxOXElO0lLc5GdmcEKPTgzr14WTT+jK4N6d6ZiZanmtEARefvllx4wZM5whrCpA0kJPteZ9K0orWYNEsn6DHCeD6yd6190mtOK59yK/5/9FLAQURUlgoinEyoA/I8WpR3nuueeYOnUqF198seUBV08ZzprtRby6cE1YQ6KDKa+q4fJJJ3HLpaeF3Oavf/0rjz/+OADJycmcddZZXHDBBebEiRMZOHCgIzm55d2blTVefv/Pj3h9UXieaOVVtVw0YQg/PHOY7fqATboy0XE6HKQmW02mXU4nf7zpHK47byRfb/mWnd8e5mBZJTVeH9W1fqprfbgcDjLSkklP9ZCe4qFDRgpdO2XRKz+bLp0y6dwhvTVec+b+/fuP3Hnnnc5Zs2Y1Na5jI9By3xJFaTsHkTTlTCSleC4wmqYNLENRDiwDZiMdk4citI+KokSZaM/SmYVMdp/ccOGvf/1rJk6cSE5OjuUBv5l2JnsOlLF0/R6yWnDyLaus4Yzhfbn3R5NCRtNef/11ZsyQmtULLriA+++/n5EjR0IbbDy+XLeHR15exNptRWSmeZqt7aqoqmX4CV2550eTQm7T3gr1DdMk2ZNETpZ99NDpdDCoV2cG9bL6phmGCY6Ijjoya2try2fPnl1+3333Ze/evTv0KANpLLkOGSuiKPFifd3tIaTbfEDdrR9SK5ZWd0tHfKrKETPQMiTNuRJxLT9uusgU5btEtIVYAHgAGatxtLhq06ZN3HPPPfz973+3PCA7PYW/3HI+N//5DdZs3x+Wv1h5VS1jC3ry6C3nk5ZiP/rriy++4Prrr8fv94ccuxQuPr/Bso17+M/Ha1mwfCs+f4CMZkSjAzhS7WVAz1we+8UF5GSFTq21t4iYaZqketxNvqdQRKqIH6C2tjbw5ptvFv/5z3/2LV++vAtNz4E7AvwX4qIfUVrahasodZhIneJ2xMhSUZTvALGYLv0pkp6c3nDhP/7xD8aMGcN1111neUB+TgZP3n4RM558jy/X7yYzLdk2YmKaJuVVtYwe3IO//fLCkHVDO3bsYNq0aZSXl3P77be3SoRVVHtZt2M/n6/Zxedrd7Nh5wG8/sBRW4XmKK+qFYuFX1xAr/zQ9gogw8nbE4ZhkpriJjM1dgPcG3Lw4EHeeOMN85lnnjFXrFjRCRkz0hRliAh7P/p7pyiKoiihiYUQA+lIOxsZu3GU22+/neHDhzN8+HDLA7rlZvGPOy7if19ezOufrsXrN0jxJOFyOjAMk5o637ErJp3EXVefQXaImrKysjKuvfZatm3bRn5+PrfddluzO2ticuBwJdv2FbN2exHrdx5k466D7DtYRo3XjztJnN7DMVz1+8Xn6pwxA7n/x2eH9DRriJ2lRSITMEw6ZaWRHsP5mIWFhSxZsoR3332XDz74gKKiIgfh/Z53IOnyL6K7h4qiKIrSPLESYnuBXwNzGi4sKSlh2rRpvPfee/ToYe3AzkpP4YEbv8eUsQN4+cPVrN1RRGW1l/RUD6N69uC/vncyk0b2Dz02x+/npptuYsmSJQCMGjUq5PiZg6WVbN1bzNdbvmX5xr1s3nuIkvIqvL4ATqcDd5ILT5LLtjPQjoBhUFnto1N2GrddOYFp54wI25aj/Qkxg05ZaWHZSLSG8vJytm/fzjfffMOqVatYtmwZGzdupLi4uKVPNR+4EbBY6iuKoihKPIiVEAMZsXEecG3DhfUjht5++22ys7NtHzjhpD6MH9aHQ2WVlB6pITPdQ+cOGbiaqC8yDIOf/exnvPrqq0eXpaeHjkZ9smo7//OvT9h3sJzU5CTSUjx46mYchothmHj9AXz+AFnpKVx5dgHTLxgdcvRPKNpbatI0oUOItPCSJUu47777SE9PZ9CgQfTq1YsuXbqQm5tLUlIShmEQCATw+/0EAgHKy8vZs2cPhYWF7N69m3379lFUVERhYSFer7e1u1gKPIiYZUZ2hIOiKIqitIFYCjGAO5H27IKGC5csWcKVV17JSy+9ZNtJCTISqHOH9LBSeyBpz2eeaTxpac2aNRw5coTMzEzL9pedNYwxBT34YOkWPl29ne2Fhzl8pBp/QESRy+k8WlheL/8M05SbYeLAQVqqm8G9O3PG8H5cMG4w/bvbv5fmCATaV0QMpK7PjpdeeomFCxcCMG/evEbrHA5HtDtEq5HZpw8DW6P5QoqiKIrSGmItxPYDP0GKpBt5Hbz//vucffbZvPzyywwePLjVL1BTU8Mdd9zBk08+aVm3YcMG3n77ba666irbx/bu0pGbLhrD9AtHs+9QOdv2FbNtXwmFh8rZd6ic8ooafP6AiDOHdHh2yk4jNzudE3p0YkifPAb0zMUTRvqyvLyc999/n4suuohg7zIRdu0Jk66drOIWYNu2baEfFR0RZiKt/K8hUVidHakoiqIkLLEWYgCLkaG0Fu+KVatWMXnyZJ588klbw9fm2Lx5M9OnT2fx4sUht5kxYwYjRoxoUuw5nQ565mXTMy+bM0f0a7TONI+lDls7iunAgQNMmzaNqqoqLr/8csv6gGk06cyfSJiA0+Ekv6M1IlZeXt6kEIsgtYif0qfI2JjFSDRMURRFURKaaA39bo5/IOM3LBQWFnLJJZdw2WWXsW5deMGMkpISHnvsMcaPH9+kCAPxeLrsssvYsGFDi3caJEWa5HK2WoTNnTuXsWPHMn/+fLKysmy3CQSMdjP02zRNkj0u2xqx6upqSktLI/2SPsSAdTkyxuV6JN09HBkVMx8VYYqiKEo7IR4RsXpmIE7RP7Vb+Z///If33nuPyZMnc9lllzF27FhycnLo0KEDgUCAwsJC9uzZwwcffMCsWbPYs2dP2C+8du1axo8fz0MPPcT06dNJSor+x7B27Voeeugh5syZczQl53LZpzCla7J9KLGjZq42QuzgwYNUVVUFL34M2AwMAXoCGUia2lN3A6hBhhyXIp5fJcgA5M3IMOSDyAiXQITfjqIoiqLElHgKMYCfA6nImBkLlZWVvPXWW7z11ltkZGTQsWNHOnTogGEYfPvttxw+fDhUndFG4B3g9lAvfPjwYX7605/y/PPP8/Of/5ypU6faFvG3BcMwWL58Oc8++yyzZ8+msrKy0fpQQixgmLSX3KRhmKSnemxng+7YsYOamprgxZ8AbwUtcyAmrPW/Rx8qshRFUZTvAPEWYgHgBsRn7Lc0kSqtqKigoqIinMjXDmAakrrKQnyjQrJ06VKWLl1Kv379mDJlCueddx5Dhw6lZ8+erYqUeb1eNm7cyMKFC3njjTf4/PPP8fvtHRNCCzEDHO1DiQUMk5zMNNJSrGauNmnJANKwEYyJ2EqotYSiKIrynSLeQgzkJHwvEsV6HGid54PwHtKVWa/W/hvYB/wGaHL+zvbt23nqqad46qmnyM7OZsCAAQwePJh+/frRu3dvevXqRXZ2Nh6PB7fbjdPppKKigqKiIvbv38+BAwdYt24da9euZdOmTXaRIAtGCL8wh9PRbiJiAcOgY1aK7ZSBw4cPBy+qAL6NxX4piqIoSnsgEYRYPS8hA5jvB66iZY0EZYhX1KNIWqsePzJe6TXgFuByoFl31bKyMpYvX87y5cst6xwOB06nE5fLhc/na5MFg8/ns13udrnaS4kYhmHSMTPNdt369euDF5Uhw7YVRVEURSF+XZOh2Apcg8ylnI0UZTfFbuAPSMfcwzQWYQ1ZC9wMDEXq0d4ELOGacDBNk0AggNfrbYkImwM8H7wwpBBLchFdn9PI4QC6dLI3c7VJTR4AKm02VRRFUZTvJIkUEWvIx3W3rsBZSIddR6ATElXZCnwDLEM66sKlEHih7tYTEXwjgBOBvkAPwB2RdyDeVu8hfmkfIt5pjQgdEWsn4TAkg9o1x77JwSY1eRBo9ZwiRVEURTneSFQhVs+3yIiaaLAHeK7uBtABEWdD627DgP6IGOxAeMnCfUit2/vA23X/X4+liKo+tRk8tDwpzMHi8cY0xVPNbuxUdXU127dvD158ICY7piiKoijthEQXYrGktO62psGyNKBz3a0b0BvIRkSZA0ntViJdnzuRSN0h7EvtLZX5Xq8XwzAs3ZPupETLGNtjmiZpyR7ybOZM7t+/n2+/tdTl747JjimKoihKO0GFWNNUIQaiuyLwXBYh5vf7bYVYUghbi0TDME0yU9y244127txp8U1DUsOKoiiKotTRPkIvxweWKFmogv/Wjk+KNdIxmUp2utXM1SYaBs03XyiKoijKd4r2ccY/PrAUqft8PgIBq4G809k+ivX9AYPOHdNJ9lgDqzbGuwb2Zq6KoiiK8p1FhVjssDi8+nw+W1NXVzuZ+B0wTTpnWwv1QcYbBaFmroqiKIoShAqx2GHxqghlCOtyOmkXWsw06d45y3aVTWryMGI9oiiKoihKHSrEYoclNWmapm1ELCnJicPRPr6arrlWIeb3++1SkweQrlRFURRFUepoH2f744Pa4AWGYdjWiCUluXAmeEjMNE087iRbD7Hy8nIKCy0NknvRod6KoiiK0ggVYrGjOnhBIBDA77dqE7fLidNBQo85MkxIS3HbuuoXFRVRXl4evFg9xBRFURQlCBViscNSrG8Yhq0Qc7mcJHqRmGmapKd46NzRGhHbu3cvVVVVwYu3xWTHFEVRFKUdoUIsdtQAjfKQfr8fr9c6ejHFk4TL6cDeoD8xCBgGnbLSSEvxWNaF8BDbG/WdUhRFUZR2hgqx2FFBUMG+1+u1ixyRkeIhyeVMYBkmHmL5ORkku61TAGxmTPqROZyKoiiKojRAhVjsqCbIwsLr9dqNASItxS3u+gmsxEzDpEfnbNt1Nh5iZaiZq6IoiqJYUCEWO2oJ6pwMFRFLT/HgcjkxE1iJmUDvLh1s1+3ebanLL0U9xBRFURTFggqx2FGDTeekXUTMneTCk+RK2K5JE3AnOemaa+2YPHz4MDt37gxeXIh6iCmKoiiKBRViscNWiNlFxNxJLlI8Sbau+4mAaUjHpF1q8uDBgxw+fDh4sRbqK4qiKIoNKsRiRw1SsN+I0lJroMjtdpKe4sFITB1GwDDJTEu2NXPdu3evnYfYlpjsmKIoiqK0M1SIxQ4fcCR44f791hr2FI+brPRk2/FHiUDAMMjPySQzLdmybts2W7swFWKKoiiKYoMKsdhiydkdOHDAspEDyExPxkjQ1GTAMOiWmymdnUFs3rw5eJEJWPwsFEVRFEVRIRZrioIXlJSU2G6Yk5mWuMX6pknPvLCtK0pQDzFFURRFsUWFWGyx5CGLi4ttN+yUnZbAwyYd9MrvaFnq8/nsOiYPAPZvUlEURVG+46gQiy2WiNiBAwfw+XyWDTtmpiaki5hhmqSnuBnUK9ey7tChQxQWFgYv3oFNk4KiKIqiKCrEYo0lD1lcXGzrJdalYwZul3V8ULyR0UaZ9LBJTW7bts1uzqTF3VVRFEVRFEGFWGw5GLygpKSEQ4cOWTbsmd+BlOQkjATzsPD7A/TvnkN2eopl3ddff233EEv1vqIoiqIoggqx2FJEUJqurKyMffusteydstPITEu8zsmAAUP75mFYk78AAAhkSURBVNuuW7p0qd1iFWKKoiiKEgIVYrGlBJtRPzadhnTISCE/JwN/IHG8xAzTJD3VzenD+1rWVVdXs3r16uDFpcC6WOyboiiKorRHVIjFlmLAUkS1ceNGy4buJBdD+uThDwRisV9hUev1U9A7j4JenS3rNm/ezJYtFt/WDcCuWOyboiiKorRHVIjFlgA2nlohaqsYXdATh8MR7X0KG5/f4Mzh/XDZGLm+88471NTUBC9eBQnZ/KkoiqIoCYEKsdhjiRCtXr3azvaBUYO6k98xA18CpCd9/gBdO2Vw/vhBlnWBQIB58+bZPeyrqO+YoiiKorRjVIjFHksesqioiBUrVlg2zM/JYNLIE6iptfqMxZqqWh+XnjmMHp2tthWrVq1i+fLlwYtrgWWx2DdFURRFaa+oEIs9a7FJ182dO9d24ysmDSMzLZlAHAeA13j99M7vwH9972Tb9S+++CJ+vz948RfA+mjvm6IoiqK0Z1SIxZ7t2PiJzZs3j127dlkEWkGfPM47dRAV1V7iUS0WMEwCAYNbLx9PXscMy/qNGzfywgsv2D3UNlepKIqiKMoxVIjFniJgW/DCgwcP8tprr9VgEy277vyRdMpKw+uPbQelYZpUVNVy88VjmTphiO02f/3rXykttThylABvRHv/FEVRFKW9o0Is9hhIetLCc889V1JdXW0ZDH5C90789JJTqfFa0n9Rwx8wqKjycuPU0dx2xQTbbb7++mv+9a9/2a2ai8yYVBRFURSlCVSIxYf5dgvXrl2b+u6771qq3gGu+/4pnD3qBMoqLRYREcU0TSqqa/G4Xfzuhkn8+pozbbfzer3MmDGDqqqq4FXVwFNR3UlFURRFOU5QIRYflmBTJwbkPPbYYy6v1/tN8AqHw8ED07/HySd05UhVbcR3yDBNKmu81PoCfH/sIF6+70quPeeUkNs/+OCDLFiwwG7VS2i3pKIoiqKEhSveO/AdpQI4DSgIXrFnz55O6enpr0+YMGEY4Gm4Lj3Fw+kn92Ht9iK27yvBneTC2QbDV9M08foDVNf6SHYnMaqgB3dfexY/veRUOmWnhXzczJkzmTFjht2qg8D1wOFW71QCcf/998d7FxRFUZTjnMSxbf/u8X3gXbsVqampn3300Uc7TzvttKvt1h+pquXxf3/Oqwu/oarWR2qyG5fL2eyXaZom/oCBzx8gYJgku5Po3aUDk0eewLmnDmRw787NCrtZs2Zx0003UVtrG5X7GfD3Znaj3WAm2MB1RVEU5fhDhVh8+QiYZLdi7Nixb3z44YfdMjMzx4Z68Ddbi3hpwdd8tnonB8sqCQRMXE4HDocDh0PaL03DxDBNHA4H7iQneR0yGNSrM6MGd2f4Cd0o6NOZ9FRPqJdoxCOPPMLdd99t5xkGMBu4muNopJEKMUVRFCXaqBCLL99DomJJNuuMc8899+NXX321Z2Zm5sCmnqSo+AirthSycddBCg+Vc6Tai9cXIMXjIjMtmdzsdPp2y6FXXjb9uueQm53eop3ct28fd9xxB3PmzAm1yTLgXMS24rhBhZiiKIoSbVSIxZ//BW4PsS4wZcqU5S+99FJebm5u31juFEBVVRXPPPMM//M//8OBAwdCbbYBSbNaZmi2d1SIKYqiKNFGhVj8SQcWAKeGWG8WFBR8+9RTTyVPnDixUyx2qKamhnfeeYcHH3yQ1atXN7XpGuBSYEss9ivWqBBTFEVRoo0KscTgJCRF2T3UBqmpqd5bb73VcccddyTl5ORE5XvbuHEj//73v3nllVdYt25dc5t/CFwDhAyVtXdUiCmKoijRRoVY4jAGGQvUramN+vfvz2233cYVV1xBbm5um16wpqaGjRs3snTpUubNm8fChQuprq5u7mF+4GHgj0B03WXjjAoxRVEUJdqoEEssRiNiLGRkrJ7u3btz4YUXcu6553LKKafQrVs3XK7QtnCGYXDo0CEKCwtZs2YNn3zyCUuXLmXr1q2hrCjsWArcBSwK9wHtGRViiqIoSrRRIZZ4FACzgFHhPqBjx47069ePHj160L17d9LS0khLS6Ompobi4mJKSkooKipi9+7dFBUVEQi0eHj4FuAvwPMc51GwhqgQUxRFUaKNCrHEJBv4PWKQamdtEQv8wArgn4hH2JE47UfcUCGmKIqiRBsVYonNeOA+4Gxi911tR9Kj/waWAy0Onx0vqBBTFEVRoo0KscTHAUwG/hsRZJkRfv4KYB3wJbAQ+AQoj/BrtEtUiCmKoijRRoVY+6IvcAEizEYAPWnZd2gARcBe4Guk6H4pYsZqO7fou4wKMUVRFCXaqBBrv+QgwmwQMAzIA3KRiFkAEVbVHBNeO5Gi+11AMd/hlGO4qBBTFEVRoo1DTzaKoiiKoijxwRnvHVAURVEURfmuokJMURRFURQlTqgQUxRFURRFiRMqxBRFURRFUeKECjFFURRFUZQ4oUJMURRFURQlTqgQUxRFURRFiRMqxBRFURRFUeKECjFFURRFUZQ4oUJMURRFURQlTqgQUxRFURRFiRMqxBRFURRFUeKECjFFURRFUZQ4oUJMURRFURQlTqgQUxRFURRFiRMqxBRFURRFUeKECjFFURRFUZQ4oUJMURRFURQlTqgQUxRFURRFiRMqxBRFURRFUeKECjFFURRFUZQ4oUJMURRFURQlTqgQUxRFURRFiRMqxBRFURRFUeKECjFFURRFUZQ4oUJMURRFURQlTqgQUxRFURRFiRMqxBRFURRFUeKECjFFURRFUZQ4oUJMURRFURQlTqgQUxRFURRFiRMqxBRFURRFUeKECjFFURRFUZQ4oUJMURRFURQlTqgQUxRFURRFiRMqxBRFURRFUeKECjFFURRFUZQ48f8BXXPaSpsBa7QAAAAASUVORK5CYII=;" vertex="1" parent="1">
          <mxGeometry x="720" y="215" width="152.49" height="70" as="geometry" />
        </mxCell>
        <mxCell id="saT2jb2MqarJS_3Qa-GO-29" value="" style="shape=image;verticalLabelPosition=bottom;labelBackgroundColor=default;verticalAlign=top;aspect=fixed;imageAspect=0;image=https://blog.kakaocdn.net/dn/bX3iyf/btsDfib6wz2/XWNz5P65O8eTGFDnC3FZ7k/img.jpg;" vertex="1" parent="1">
          <mxGeometry x="420" y="225.73000000000002" width="30" height="22.5" as="geometry" />
        </mxCell>
        <mxCell id="saT2jb2MqarJS_3Qa-GO-34" value="" style="endArrow=classic;startArrow=classic;html=1;rounded=0;" edge="1" parent="1" source="saT2jb2MqarJS_3Qa-GO-1" target="saT2jb2MqarJS_3Qa-GO-4">
          <mxGeometry width="50" height="50" relative="1" as="geometry">
            <mxPoint x="340" y="280" as="sourcePoint" />
            <mxPoint x="390" y="230" as="targetPoint" />
          </mxGeometry>
        </mxCell>
        <mxCell id="saT2jb2MqarJS_3Qa-GO-35" value="" style="endArrow=classic;startArrow=classic;html=1;rounded=0;entryX=0;entryY=0.5;entryDx=0;entryDy=0;exitX=1;exitY=0.5;exitDx=0;exitDy=0;" edge="1" parent="1" source="saT2jb2MqarJS_3Qa-GO-4" target="saT2jb2MqarJS_3Qa-GO-9">
          <mxGeometry width="50" height="50" relative="1" as="geometry">
            <mxPoint x="340" y="280" as="sourcePoint" />
            <mxPoint x="390" y="230" as="targetPoint" />
          </mxGeometry>
        </mxCell>
        <mxCell id="saT2jb2MqarJS_3Qa-GO-36" value="" style="endArrow=classic;startArrow=classic;html=1;rounded=0;exitX=1;exitY=0.5;exitDx=0;exitDy=0;entryX=0;entryY=0.5;entryDx=0;entryDy=0;" edge="1" parent="1" source="saT2jb2MqarJS_3Qa-GO-8" target="saT2jb2MqarJS_3Qa-GO-18">
          <mxGeometry width="50" height="50" relative="1" as="geometry">
            <mxPoint x="340" y="280" as="sourcePoint" />
            <mxPoint x="390" y="230" as="targetPoint" />
          </mxGeometry>
        </mxCell>
        <mxCell id="saT2jb2MqarJS_3Qa-GO-37" value="" style="endArrow=classic;startArrow=classic;html=1;rounded=0;exitX=0.5;exitY=0;exitDx=0;exitDy=0;entryX=0;entryY=0.5;entryDx=0;entryDy=0;" edge="1" parent="1" source="saT2jb2MqarJS_3Qa-GO-4" target="saT2jb2MqarJS_3Qa-GO-8">
          <mxGeometry width="50" height="50" relative="1" as="geometry">
            <mxPoint x="340" y="280" as="sourcePoint" />
            <mxPoint x="390" y="230" as="targetPoint" />
            <Array as="points">
              <mxPoint x="295" y="90" />
            </Array>
          </mxGeometry>
        </mxCell>
        <mxCell id="saT2jb2MqarJS_3Qa-GO-38" value="" style="endArrow=classic;startArrow=classic;html=1;rounded=0;" edge="1" parent="1" source="saT2jb2MqarJS_3Qa-GO-9">
          <mxGeometry width="50" height="50" relative="1" as="geometry">
            <mxPoint x="530" y="180" as="sourcePoint" />
            <mxPoint x="580" y="130" as="targetPoint" />
          </mxGeometry>
        </mxCell>
        <mxCell id="saT2jb2MqarJS_3Qa-GO-39" value="" style="endArrow=classic;startArrow=classic;html=1;rounded=0;exitX=0.5;exitY=0;exitDx=0;exitDy=0;" edge="1" parent="1" source="saT2jb2MqarJS_3Qa-GO-10" target="saT2jb2MqarJS_3Qa-GO-9">
          <mxGeometry width="50" height="50" relative="1" as="geometry">
            <mxPoint x="360" y="300" as="sourcePoint" />
            <mxPoint x="410" y="250" as="targetPoint" />
          </mxGeometry>
        </mxCell>
        <mxCell id="saT2jb2MqarJS_3Qa-GO-40" value="" style="endArrow=classic;startArrow=classic;html=1;rounded=0;exitX=0.5;exitY=1;exitDx=0;exitDy=0;entryX=0;entryY=0.5;entryDx=0;entryDy=0;" edge="1" parent="1" source="saT2jb2MqarJS_3Qa-GO-4" target="saT2jb2MqarJS_3Qa-GO-10">
          <mxGeometry width="50" height="50" relative="1" as="geometry">
            <mxPoint x="370" y="310" as="sourcePoint" />
            <mxPoint x="420" y="260" as="targetPoint" />
            <Array as="points">
              <mxPoint x="295" y="410" />
            </Array>
          </mxGeometry>
        </mxCell>
        <mxCell id="saT2jb2MqarJS_3Qa-GO-41" value="" style="endArrow=classic;startArrow=classic;html=1;rounded=0;" edge="1" parent="1" target="saT2jb2MqarJS_3Qa-GO-20">
          <mxGeometry width="50" height="50" relative="1" as="geometry">
            <mxPoint x="643.6800000000001" y="410" as="sourcePoint" />
            <mxPoint x="693.6800000000001" y="360" as="targetPoint" />
          </mxGeometry>
        </mxCell>
        <mxCell id="saT2jb2MqarJS_3Qa-GO-42" value="" style="endArrow=classic;startArrow=classic;html=1;rounded=0;exitX=0;exitY=0.5;exitDx=0;exitDy=0;" edge="1" parent="1" source="saT2jb2MqarJS_3Qa-GO-27">
          <mxGeometry width="50" height="50" relative="1" as="geometry">
            <mxPoint x="360" y="300" as="sourcePoint" />
            <mxPoint x="660" y="250" as="targetPoint" />
          </mxGeometry>
        </mxCell>
        <mxCell id="saT2jb2MqarJS_3Qa-GO-43" value="" style="shape=image;verticalLabelPosition=bottom;labelBackgroundColor=default;verticalAlign=top;aspect=fixed;imageAspect=0;image=https://blog.kakaocdn.net/dn/bX3iyf/btsDfib6wz2/XWNz5P65O8eTGFDnC3FZ7k/img.jpg;" vertex="1" parent="1">
          <mxGeometry x="540" y="160" width="30" height="22.5" as="geometry" />
        </mxCell>
        <mxCell id="saT2jb2MqarJS_3Qa-GO-44" value="" style="shape=image;verticalLabelPosition=bottom;labelBackgroundColor=default;verticalAlign=top;aspect=fixed;imageAspect=0;image=https://blog.kakaocdn.net/dn/bX3iyf/btsDfib6wz2/XWNz5P65O8eTGFDnC3FZ7k/img.jpg;" vertex="1" parent="1">
          <mxGeometry x="540" y="330" width="30" height="22.5" as="geometry" />
        </mxCell>
        <mxCell id="saT2jb2MqarJS_3Qa-GO-45" value="" style="shape=image;verticalLabelPosition=bottom;labelBackgroundColor=default;verticalAlign=top;aspect=fixed;imageAspect=0;image=https://blog.kakaocdn.net/dn/bX3iyf/btsDfib6wz2/XWNz5P65O8eTGFDnC3FZ7k/img.jpg;" vertex="1" parent="1">
          <mxGeometry x="390" y="54.35000000000002" width="30" height="22.5" as="geometry" />
        </mxCell>
        <mxCell id="saT2jb2MqarJS_3Qa-GO-46" value="" style="shape=image;verticalLabelPosition=bottom;labelBackgroundColor=default;verticalAlign=top;aspect=fixed;imageAspect=0;image=https://blog.kakaocdn.net/dn/bX3iyf/btsDfib6wz2/XWNz5P65O8eTGFDnC3FZ7k/img.jpg;" vertex="1" parent="1">
          <mxGeometry x="370" y="380" width="30" height="22.5" as="geometry" />
        </mxCell>
      </root>
    </mxGraphModel>
  </diagram>
</mxfile>
